<svg xmlns="http://www.w3.org/2000/svg" xmlns:xlink="http://www.w3.org/1999/xlink" viewBox="0 0 4680 3120"><defs><style>.cls-1{fill:none;}.cls-2,.cls-20{fill:#fff;}.cls-2{opacity:0;}.cls-3{fill:#dbf0f5;}.cls-4{fill:#bde0e5;}.cls-5{fill:#d0d1d8;}.cls-6{fill:#a1a4ad;}.cls-7{fill:#c4d554;}.cls-8{fill:#224942;}.cls-9{fill:#adba2b;}.cls-10{fill:#c7c365;}.cls-11{fill:#f4ec5d;}.cls-12{fill:#d3c840;}.cls-13{fill:#b2a530;}.cls-14{fill:#0e4574;}.cls-15{fill:#022b49;}.cls-16{fill:#fffcd2;}.cls-17{fill:#ddd6a2;}.cls-18{fill:#f4eeba;}.cls-19{fill:#ff6371;}.cls-21{fill:#96c8cc;}.cls-22{fill:#e04457;}.cls-23{fill:#00bfe9;}.cls-24{fill:#02a1bc;}.cls-25{fill:#04a5bf;}.cls-26{fill:#f5ae97;}.cls-27{fill:#ed856e;}.cls-28{fill:#072c35;}.cls-29{fill:#0e4959;}.cls-30{fill:#06252c;}.cls-31{fill:#cb6655;}.cls-32{fill:#8e0e2a;}.cls-33{clip-path:url(#clip-path);}.cls-34{fill:#fefcd3;}.cls-35{fill:#fdfbd4;}.cls-36{fill:#fcfbd5;}.cls-37{fill:#fbfbd6;}.cls-38{fill:#fafad7;}.cls-39{fill:#f9fad8;}.cls-40{fill:#f8fad9;}.cls-41{fill:#f7f9da;}.cls-42{fill:#f6f9db;}.cls-43{fill:#f5f9dc;}.cls-44{fill:#f4f8dd;}.cls-45{fill:#f3f8de;}.cls-46{fill:#f2f8df;}.cls-47{fill:#f1f7e0;}.cls-48{fill:#f0f7e1;}.cls-49{fill:#eff7e2;}.cls-50{fill:#eef6e3;}.cls-51{fill:#ecf6e4;}.cls-52{fill:#ebf5e5;}.cls-53{fill:#eaf5e6;}.cls-54{fill:#e9f5e7;}.cls-55{fill:#e8f4e8;}.cls-56{fill:#e7f4e9;}.cls-57{fill:#e6f4ea;}.cls-58{fill:#e5f3eb;}.cls-59{fill:#e4f3ec;}.cls-60{fill:#e3f3ed;}.cls-61{fill:#e2f2ee;}.cls-62{fill:#e1f2ef;}.cls-63{fill:#e0f2f0;}.cls-64{fill:#dff1f1;}.cls-65{fill:#def1f2;}.cls-66{fill:#ddf1f3;}.cls-67{fill:#dcf0f4;}.cls-68{fill:#00adc9;}.cls-69{fill:#93c647;}.cls-70{fill:#a6d062;}.cls-71{fill:#b73047;}.cls-72{fill:#fc95ab;}</style><clipPath id="clip-path"><path class="cls-1" d="M2776.52,1233l-157,1164-.48,3.52-293.61,230.85c-87.21,2.66-182.45,4.12-282.18,4.12s-195-1.46-282.18-4.12L1467.46,2400.5l-.75-3.49L1217.35,1231.86Z"/></clipPath></defs><title>06</title><g id="_06" data-name="06"><rect class="cls-2" width="4680" height="3120"/><path class="cls-3" d="M3017.76,2640.85c-235.23,0-560.23-6.2-864.24-13.59h0c-100.5-2.46-198.72-5-290.63-7.56-69.3-1.91-135-3.79-195.44-5.55-217.75-6.38-366.76-11.39-366.76-11.39s-149.94-105.05-263.27-293.41c-91.57-152.16-159.24-358.7-104.67-608.14.09-.39.17-.79.26-1.18,15-68.3,39.23-139.81,74.62-214.31q10.83-22.82,23.09-46c299.76-566.72,466-937.13,1037.35-969,47.21-2.64,97.17-3,150.22-.91,109.92,4.28,233,18.83,372,44.37,97.2,17.85,181.86,39.34,255.77,64,308,102.69,429.06,260.23,490.39,438.47,17.21,50,29.7,101.58,40.32,154,16.11,79.74,27.87,161.48,45.07,242.61,22.89,107.92,55.44,214.74,120.79,314.25a860,860,0,0,1,53.46,93.38C3798.08,2232.83,3559.66,2640.85,3017.76,2640.85Z"/><path class="cls-4" d="M3017.76,2640.85c-235.23,0-560.23-6.2-864.24-13.59h0c-100.5-2.46-198.72-5-290.63-7.56-69.3-1.91-135-3.79-195.44-5.55-217.75-6.38-366.76-11.39-366.76-11.39s-149.94-105.05-263.27-293.41c-91.57-152.16-159.24-358.7-104.67-608.14A672.15,672.15,0,0,1,1071.2,1620c170.63-73.92,375.78-70.57,538.06,20.23,138.15,77.3,240.23,211.06,384,277.31,128.7,59.31,278.23,57.78,416.84,28.28s270-85.2,403.78-131.85c203.59-71,427.16-121.24,633-57.19,51.86,16.13,100.93,39,149.16,64.07C3798.08,2232.83,3559.66,2640.85,3017.76,2640.85Z"/><ellipse class="cls-5" cx="2358.05" cy="2609.57" rx="1563.4" ry="184.65"/><path class="cls-6" d="M3186.6,2492.37c-266.62,0-486.92,36.28-521.54,83.32-155.06-12.74-369.42-20.62-606.21-20.62-310.21,0-581.91,13.53-732.25,33.79-4.13-25.75-89.12-46.3-193.38-46.3-106.9,0-193.55,21.6-193.55,48.25s86.65,48.26,193.55,48.26a721.49,721.49,0,0,0,77.09-4c57.77,34.21,415.66,60.55,848.54,60.55,331,0,618.2-15.4,760.84-37.95,94.8,16.87,224.22,27.26,366.91,27.26,290.66,0,526.28-43.11,526.28-96.29S3477.26,2492.37,3186.6,2492.37Z"/><path class="cls-7" d="M798.81,1520.16c21.29-.63,40.74,12.86,54.32,29.28S876,1585.36,888,1602.92c4.18,6.07,8.87,12.08,15.28,15.72,8.27,4.69,18.23,4.86,27.51,6.89A69.25,69.25,0,0,1,980,1668.25c14.46,38.92-6.86,88.78,19.56,120.8,7.4,9,17.65,15,26.37,22.73,21.19,18.68,32.64,46.48,36.76,74.43s1.58,56.41-1.16,84.53q-4.07,41.67-8.72,83.26c-1.88,16.89-8.68,38.45-25.68,38.63-7.08.07-13.45-4-19.26-8.09a623.63,623.63,0,0,1-116.46-105.39c-28.14-32.81-54-77.53-36.61-117.09,4.08-9.27,10.56-18.6,8.67-28.55-1.12-5.94-5.11-10.9-9.22-15.33-17.93-19.28-40.85-33.74-56.88-54.63s-23.38-52.41-6.75-72.82c7.48-9.19,19.94-18,16.92-29.43-1.28-4.82-5.16-8.43-8.7-11.94C771.85,1622.52,723.57,1522.36,798.81,1520.16Z"/><path class="cls-8" d="M801.15,1574c17.42,21.31,33.71,43.54,49.19,66.3s29.89,46.26,43.56,70.16,26.39,48.34,38.34,73.14,23.1,50,33.47,75.49,19.78,51.39,28.51,77.5l6.39,19.63c2.07,6.57,4,13.16,6.09,19.73s3.86,13.21,5.79,19.82,3.61,13.28,5.42,19.92q10.52,39.91,18.54,80.44c1.32,6.76,2.5,13.53,3.76,20.3s2.27,13.57,3.41,20.35l3.07,20.41,2.64,20.46a2.72,2.72,0,0,1-5.39.77v-.05l-3.15-20.29-3.44-20.24c-1.26-6.73-2.46-13.46-3.78-20.18s-2.68-13.42-4.11-20.11q-8.4-40.17-19.34-79.76c-1.87-6.58-3.69-13.18-5.59-19.74s-3.83-13.14-5.83-19.68-4-13.07-6.11-19.58l-6.42-19.5q-13.1-38.88-28.52-76.94t-32.92-75.15c-11.75-24.71-24.34-49-37.58-72.93s-27.41-47.36-42.4-70.25-30.8-45.23-47.5-66.91a2.5,2.5,0,0,1,3.91-3.11Z"/><path class="cls-8" d="M907.3,1751.82a3.58,3.58,0,0,1-.85-.1l-93.85-22.47a3.64,3.64,0,1,1,1.69-7.08l93.86,22.46a3.65,3.65,0,0,1-.85,7.19Z"/><path class="cls-8" d="M939.37,1803.77a3.68,3.68,0,0,1-1.22-.21,3.64,3.64,0,0,1-2.22-4.65A596.13,596.13,0,0,0,960.19,1708a3.64,3.64,0,0,1,7.17,1.31,604.39,604.39,0,0,1-24.56,92A3.63,3.63,0,0,1,939.37,1803.77Z"/><path class="cls-8" d="M991.66,1937.17a3.63,3.63,0,0,1-3-5.68,416.27,416.27,0,0,0,35.1-63,3.64,3.64,0,1,1,6.65,3,424.16,424.16,0,0,1-35.72,64.1A3.63,3.63,0,0,1,991.66,1937.17Z"/><path class="cls-9" d="M1086.74,1470.3c18.07,11.43,27.17,32.65,33.48,53.07s11.22,42.06,24.47,58.83c13,16.39,32.45,26.27,46.93,41.33,31,32.22,33.64,84.16,17,125.63-10.08,25.14-26.72,50.87-19.9,77.08,2.64,10.16,8.64,19.07,13.11,28.58,12.62,26.82,12.78,58.28,5.36,87s-21.93,55-37.84,80c-7.7,12.09-16.73,24.71-30.32,29.26-22.33,7.46-44.85-9.88-61-27-24.07-25.68-45.67-54.36-58.5-87.14s-16.31-70.1-4.47-103.25c3.7-10.36,8.86-20.29,10.83-31.12,6.9-37.92-26.3-72.54-26.89-111.08-.67-43.33,39.73-80.7,34.51-123.71-1.92-15.79-9.93-30.19-13.34-45.73C1012.3,1485.87,1052.08,1448.39,1086.74,1470.3Z"/><path class="cls-8" d="M1073.33,1519.48c15.17,54.25,24.8,109.8,32.47,165.46,3.85,27.85,6.92,55.79,9.6,83.76s4.86,56,6.64,84,2.88,56.12,3.68,84.2c.23,7,.36,14,.51,21.07l.21,10.54.13,10.53.12,10.54,0,10.54c0,7,0,14-.1,21.07-.27,28.1-1.05,56.21-2.52,84.28l-.6,10.53-.72,10.52-.75,10.51-.88,10.51c-.54,7-1.28,14-2,21-.33,3.5-.76,7-1.18,10.48l-1.24,10.48a2.72,2.72,0,0,1-5.41-.59v0q4.13-41.74,5.61-83.74c1.16-28,1.62-56,1.58-84l0-10.5-.1-10.5-.07-10.5-.16-10.5-.16-10.51-.24-10.5c-.17-7-.32-14-.57-21-.86-28-2.21-56-3.88-83.94s-3.72-55.89-6.25-83.78-5.58-55.73-9-83.52-7.51-55.49-12.34-83.06-10.4-55-17.25-82.1v0a2.5,2.5,0,0,1,4.82-1.29Z"/><path class="cls-8" d="M1105.81,1731.88a3.6,3.6,0,0,1-2.15-.71l-30.52-22.3c-14.32-10.46-29.12-21.27-44.15-31.16a3.64,3.64,0,1,1,4-6.08c15.17,10,30,20.85,44.43,31.36l30.53,22.3a3.65,3.65,0,0,1-2.15,6.59Z"/><path class="cls-8" d="M1116.63,1808.9a3.64,3.64,0,0,1-2.73-6.05c23.83-27.06,47.21-55.17,69.5-83.54a3.64,3.64,0,0,1,5.73,4.5c-22.37,28.48-45.84,56.69-69.76,83.86A3.63,3.63,0,0,1,1116.63,1808.9Z"/><path class="cls-8" d="M1120.21,1943a3.58,3.58,0,0,1-2-.61,435,435,0,0,1-70.74-58.32,3.65,3.65,0,0,1,5.21-5.1,427.07,427.07,0,0,0,69.54,57.34,3.65,3.65,0,0,1-2,6.69Z"/><path class="cls-8" d="M1126.65,1995.38a6.3,6.3,0,0,1-2.29-.41,5.53,5.53,0,0,1-3.46-4,4.37,4.37,0,0,1,6.39-4.75l48.16-34.55a4.37,4.37,0,0,1,5.1,7.1l-48.63,34.88A9.49,9.49,0,0,1,1126.65,1995.38Z"/><path class="cls-7" d="M1384.07,1502.79c-21.3.42-40.06,14.85-52.82,31.92s-21,37-32.24,55.13c-3.87,6.27-8.26,12.5-14.49,16.45-8,5.09-18,5.75-27.13,8.23a69.27,69.27,0,0,0-47.05,45.09c-12.53,39.59,11.22,88.34-13.6,121.62-7,9.32-16.88,15.89-25.21,24-20.25,19.7-30.32,48-33.06,76.15s1.19,56.42,5.32,84.37q6.11,41.41,12.8,82.73c2.71,16.78,10.56,38,27.54,37.32,7.08-.28,13.25-4.7,18.85-9a623.74,623.74,0,0,0,111.14-111c26.48-34.16,50.13-80.09,30.8-118.75-4.53-9.06-11.46-18.06-10.07-28.09.83-6,4.57-11.14,8.46-15.76,17-20.14,39.14-35.72,54.13-57.36s20.77-53.5,3.16-73.07c-7.93-8.81-20.8-17-18.35-28.56,1-4.88,4.74-8.67,8.1-12.35C1416,1603.7,1459.33,1501.29,1384.07,1502.79Z"/><path class="cls-8" d="M1388.43,1559.55c-15.61,22.48-30.39,45.53-44.15,69.17s-26.8,47.71-38.89,72.24-23.43,49.44-34,74.7-20.25,50.83-29.18,76.68-17.26,51.93-24.71,78.25l-5.44,19.78c-1.76,6.61-3.43,13.25-5.15,19.87s-3.23,13.29-4.85,19.94-3.07,13.32-4.62,20q-8.94,40-15.39,80.62c-1.1,6.75-2.08,13.52-3.12,20.29s-1.85,13.55-2.78,20.33l-2.44,20.39-2.15,20.42v.05a2.72,2.72,0,0,1-5.42-.5l1.64-20.57,2.06-20.53c.8-6.84,1.55-13.68,2.41-20.5s1.77-13.65,2.75-20.46q6-40.85,14.56-81.26c1.48-6.72,2.88-13.46,4.43-20.16s3.16-13.4,4.82-20.08,3.36-13.34,5.11-20l5.41-19.92c7.44-26.51,15.6-52.81,24.66-78.81s19-51.69,29.72-77,22.19-50.41,34.7-74.94,25.78-48.67,40-72.21,29.53-46.5,45.88-68.64a2.49,2.49,0,0,1,4,2.91Z"/><path class="cls-8" d="M1279.87,1738.54c-4.66-6-9.09-12.18-13.45-18.51a191.71,191.71,0,0,1-12-19.81c-1.78-3.44-3.42-7-5-10.49-.76-1.77-1.49-3.56-2.2-5.35s-1.39-3.59-2-5.4a226,226,0,0,1-6.77-22,2.28,2.28,0,0,1,4.3-1.47h0c3,7,5.82,14,8.76,21,1.51,3.44,2.93,6.92,4.54,10.3.75,1.71,1.57,3.39,2.36,5.09s1.64,3.35,2.5,5c3.35,6.67,7.12,13.14,11,19.64s7.82,13,11.45,19.73h0a2.09,2.09,0,0,1-3.49,2.26Z"/><path class="cls-8" d="M1271.38,1768.12c9-3.52,18.11-6.84,27.2-10.14l27.29-9.83,13.66-4.86,13.68-4.8c9.13-3.19,18.27-6.35,27.5-9.31a2.27,2.27,0,0,1,1.65,4.23c-8.81,4.09-17.77,7.84-26.79,11.41-4.51,1.81-9,3.5-13.59,5.23s-9.11,3.34-13.68,5c-9.17,3.2-18.37,6.29-27.64,9.14s-18.6,5.58-28,7.94a2.08,2.08,0,0,1-1.26-4Z"/><path class="cls-8" d="M1205.86,1941.28c-4-6.48-7.71-13.18-11.14-20s-6.6-13.77-9.56-20.8c-1.47-3.53-2.86-7.08-4.25-10.64s-2.64-7.17-3.84-10.79c-2.43-7.23-4.61-14.56-6.34-22a2.28,2.28,0,0,1,4.32-1.38c2.87,7,5.6,14,8.37,21.06l4.2,10.49,2.1,5.25,2.15,5.22c2.84,7,5.8,13.91,8.75,20.84s6,13.85,8.93,20.84a2.08,2.08,0,0,1-3.69,1.91Z"/><path class="cls-8" d="M1201.06,1981.68l23.88-16.88c7.93-5.63,15.86-11.27,23.72-17l5.9-4.29,5.87-4.33,11.74-8.68c7.8-5.82,15.58-11.68,23.46-17.44a2.27,2.27,0,0,1,2.9,3.48c-7.14,6.74-14.59,13.13-22.22,19.3-3.8,3.1-7.69,6.09-11.56,9.1s-7.85,5.88-11.83,8.75c-8,5.71-16.08,11.26-24.35,16.52s-16.68,10.34-25.32,15h0a2.08,2.08,0,0,1-2.19-3.53Z"/><path class="cls-10" d="M965.05,2207h.05a.11.11,0,0,1-.05,0Z"/><path class="cls-11" d="M1246.16,2207,1210,2563.4a471.36,471.36,0,0,1-207.23.34l-1.52-.34-32.32-315.11L965.1,2207Z"/><path class="cls-12" d="M1246.16,2207,1210,2563.4a471.69,471.69,0,0,1-50.34,8.59c57.33-459.53-190.73-323.7-190.73-323.7L965.1,2207Z"/><path class="cls-13" d="M1264.33,2136.7v51.75a18.5,18.5,0,0,1-18.5,18.5l-101.42,3.85q-38.78,1.45-77.57,0L965.38,2207a18.49,18.49,0,0,1-18.5-18.5V2136.7a18.49,18.49,0,0,1,18.5-18.5l102.26,3.85q38.77,1.45,77.57,0l100.62-3.83A18.5,18.5,0,0,1,1264.33,2136.7Z"/><path class="cls-11" d="M1264.33,2136.7v27.41a18.51,18.51,0,0,1-18.5,18.51l-101.42,3.83q-38.78,1.47-77.57,0l-101.46-3.83a18.5,18.5,0,0,1-18.5-18.51V2136.7a18.49,18.49,0,0,1,18.5-18.5l102.26,3.85q38.77,1.45,77.57,0l100.62-3.83A18.5,18.5,0,0,1,1264.33,2136.7Z"/><path class="cls-14" d="M3387.5,1420.93V2459.72a67.19,67.19,0,0,1-67.19,67.19H2759.24a67.19,67.19,0,0,1-67.2-67.19V1420.93a67.19,67.19,0,0,1,67.2-67.19h561.07A67.19,67.19,0,0,1,3387.5,1420.93Z"/><path class="cls-15" d="M3387.5,2317.36v142.36a67.19,67.19,0,0,1-67.19,67.19H2759.24a67.19,67.19,0,0,1-67.2-67.19V1420.93a67.19,67.19,0,0,1,67.2-67.19H2870C2870,1367.33,2704.94,2476.06,3387.5,2317.36Z"/><rect class="cls-4" x="3010.63" y="1353.73" width="633.09" height="1173.18" rx="67.2" transform="translate(6654.36 3880.65) rotate(180)"/><rect class="cls-16" x="2768.32" y="1651.5" width="1117.73" height="577.64" rx="39.47" transform="translate(5267.5 -1386.86) rotate(90)"/><rect class="cls-17" x="3067.76" y="1417.29" width="505.8" height="111.87" rx="24.08" transform="translate(6641.31 2946.46) rotate(180)"/><rect class="cls-18" x="3080.37" y="1416.53" width="505.8" height="111.87" rx="24.08" transform="translate(6666.54 2944.93) rotate(180)"/><circle class="cls-7" cx="3552.68" cy="1450.62" r="10.22"/><circle class="cls-19" cx="3552.68" cy="1495.85" r="10.22"/><rect class="cls-12" x="3384.69" y="1438.87" width="132.74" height="67.19" rx="9.28" transform="translate(6902.11 2944.93) rotate(180)"/><rect class="cls-20" x="3388.03" y="1439.5" width="132.74" height="67.19" rx="9.28" transform="translate(6908.8 2946.19) rotate(180)"/><rect class="cls-17" x="3067.76" y="1570.28" width="505.8" height="111.87" rx="24.08" transform="translate(6641.31 3252.44) rotate(180)"/><rect class="cls-18" x="3080.37" y="1569.52" width="505.8" height="111.87" rx="24.08" transform="translate(6666.54 3250.91) rotate(180)"/><circle class="cls-7" cx="3552.68" cy="1603.61" r="10.22"/><circle class="cls-19" cx="3552.68" cy="1648.83" r="10.22"/><rect class="cls-12" x="3384.69" y="1591.86" width="132.74" height="67.19" rx="9.28" transform="translate(6902.11 3250.91) rotate(180)"/><rect class="cls-20" x="3388.03" y="1592.49" width="132.74" height="67.19" rx="9.28" transform="translate(6908.8 3252.17) rotate(180)"/><rect class="cls-17" x="3067.76" y="1723.27" width="505.8" height="111.87" rx="24.08" transform="translate(6641.31 3558.42) rotate(180)"/><rect class="cls-18" x="3080.37" y="1722.51" width="505.8" height="111.87" rx="24.08" transform="translate(6666.54 3556.89) rotate(180)"/><circle class="cls-7" cx="3552.68" cy="1756.59" r="10.22"/><circle class="cls-19" cx="3552.68" cy="1801.82" r="10.22"/><rect class="cls-12" x="3384.69" y="1744.85" width="132.74" height="67.19" rx="9.28" transform="translate(6902.11 3556.89) rotate(180)"/><rect class="cls-20" x="3388.03" y="1745.48" width="132.74" height="67.19" rx="9.28" transform="translate(6908.8 3558.15) rotate(180)"/><rect class="cls-17" x="3067.76" y="1876.26" width="505.8" height="111.87" rx="24.08" transform="translate(6641.31 3864.4) rotate(180)"/><rect class="cls-18" x="3080.37" y="1875.5" width="505.8" height="111.87" rx="24.08" transform="translate(6666.54 3862.86) rotate(180)"/><circle class="cls-7" cx="3552.68" cy="1909.58" r="10.22"/><circle class="cls-19" cx="3552.68" cy="1954.81" r="10.22"/><rect class="cls-12" x="3384.69" y="1897.83" width="132.74" height="67.19" rx="9.28" transform="translate(6902.11 3862.86) rotate(180)"/><rect class="cls-20" x="3388.03" y="1898.47" width="132.74" height="67.19" rx="9.28" transform="translate(6908.8 3864.13) rotate(180)"/><rect class="cls-17" x="3068.36" y="2028.33" width="501.31" height="435.26" rx="29.27" transform="translate(6638.02 4491.92) rotate(180)"/><rect class="cls-18" x="3080.37" y="2028.33" width="505.8" height="435.26" rx="29.4" transform="translate(6666.54 4491.92) rotate(180)"/><rect class="cls-21" x="3260.48" y="2050.31" width="293.33" height="394.46" rx="22.99" transform="translate(6814.3 4495.08) rotate(180)"/><rect class="cls-20" x="3270.04" y="2050.31" width="293.33" height="394.46" rx="22.99" transform="translate(6833.42 4495.08) rotate(180)"/><rect class="cls-3" x="3284.42" y="2155.17" width="264.82" height="133.28" rx="11.77"/><rect class="cls-3" x="3284.42" y="2296.84" width="264.82" height="133.28" rx="11.77"/><path class="cls-21" d="M3527.79,2288.45h9.68a11.76,11.76,0,0,0,11.77-11.77V2166.93a11.77,11.77,0,0,0-11.77-11.76h-9.68a11.77,11.77,0,0,1,11.77,11.76v109.75A11.76,11.76,0,0,1,3527.79,2288.45Z"/><path class="cls-21" d="M3527.79,2430.11h9.68a11.76,11.76,0,0,0,11.77-11.76V2308.6a11.77,11.77,0,0,0-11.77-11.76h-9.68a11.77,11.77,0,0,1,11.77,11.76v109.75A11.76,11.76,0,0,1,3527.79,2430.11Z"/><path class="cls-3" d="M3368.52,2070.27h42.83v22.15h-42.83c-2.32,0-4.2-5-4.2-11.07S3366.2,2070.27,3368.52,2070.27Z"/><ellipse class="cls-19" cx="3411.35" cy="2081.35" rx="4.2" ry="11.07"/><path class="cls-3" d="M3304.86,2070.27h42.83v22.15h-42.83c-2.32,0-4.2-5-4.2-11.07S3302.54,2070.27,3304.86,2070.27Z"/><ellipse class="cls-19" cx="3347.69" cy="2081.35" rx="4.2" ry="11.07"/><path class="cls-3" d="M3498.79,2070.27h42.83v22.15h-42.83c-2.32,0-4.2-5-4.2-11.07S3496.47,2070.27,3498.79,2070.27Z"/><ellipse class="cls-19" cx="3541.62" cy="2081.35" rx="4.2" ry="11.07"/><path class="cls-3" d="M3432.17,2070.27H3475v22.15h-42.83c-2.32,0-4.2-5-4.2-11.07S3429.85,2070.27,3432.17,2070.27Z"/><ellipse class="cls-19" cx="3475" cy="2081.35" rx="4.2" ry="11.07"/><path class="cls-9" d="M3306,2587.15l.49,3.86,3.42,27.8h-338.3c.13,0,.24-.1.36-.26a295.19,295.19,0,0,1,21.12-27.54c1.12-1.3,2.25-2.58,3.41-3.86,25.49-28.29,56.55-50.48,93.64-61l9.56-2.7,28.91-8.16,1.1-.24,1.28-8.91,1.44-9.95,9-62.37,123.85-7.37,28.46,13.45,12.3,147.22Z"/><path class="cls-12" d="M3149.21,2609.39c0,3.18-.16,6.32-.45,9.41H2971.59c.13,0,.24-.09.36-.24a297,297,0,0,1,21.11-27.55c26.13-30.14,58.29-53.87,97.06-64.82l9.56-2.7A99.19,99.19,0,0,1,3149.21,2609.39Z"/><path class="cls-22" d="M3309.88,2618.8H2971.59c.13,0,.24-.09.36-.24a297,297,0,0,1,21.11-27.55c1.13-1.3,2.26-2.58,3.41-3.85H3306l.47,3.85Z"/><path class="cls-23" d="M3290.88,1984.51l41,482.75c-34,30.59-70.36,44.33-104.74,48.53-81.44,9.95-151.56-33.64-151.56-33.64l14-478.56,63-466.44,8-59,35.82-8.62,135.51-32.59-17.79,237.39Z"/><path class="cls-24" d="M3331.9,2467.26c-34,30.59-70.36,44.33-104.75,48.53l-32.41-456.52,34-425.42s48.56,48.36,85.38,40.44l-23.23,310.22Z"/><path class="cls-11" d="M3197,1479.29c0,31.48-19.79,57.1-44.44,57.86l1.25-9.25,6.72-49.78,29.27-7,6.55-1.58A73.06,73.06,0,0,1,3197,1479.29Z"/><path class="cls-25" d="M3189.84,1471.08v.23c0,27.79-15.42,51-36,56.59l6.72-49.78Z"/><path class="cls-7" d="M3534.65,2561.15l.79,3.81,5.58,27.44-337.27,26.4c.13,0,.24-.11.34-.28a296.47,296.47,0,0,1,18.9-29.1c1-1.39,2-2.75,3.1-4.11,23.2-30.21,52.44-54.75,88.6-68.09l9.32-3.44,28.18-10.39,1.09-.33.58-9,.65-10,4.08-62.88,122.9-17,29.41,11.19,23.76,145.81Z"/><path class="cls-11" d="M3380.09,2595.55q.38,4.75.28,9.42l-176.62,13.83c.12,0,.23-.11.34-.27a296.62,296.62,0,0,1,18.9-29.11c23.69-32.1,53.91-58.26,91.7-72.2l9.32-3.44A99.19,99.19,0,0,1,3380.09,2595.55Z"/><path class="cls-19" d="M3541,2592.4l-337.26,26.4c.12,0,.23-.11.34-.27a296.62,296.62,0,0,1,18.9-29.11c1-1.39,2.05-2.75,3.1-4.11l308.57-24.16.77,3.81Z"/><path class="cls-23" d="M3541,2449q-11.23,8.16-22.15,14.91c-124.92,77.58-217.53,25.85-217.53,25.85l-72.56-394.46V1511.94l118.47-16.77,74-10.47c14.66,18.53,23.69,69.4,26.4,127.55,2.22,47.76.17,100.43-6.53,144.11-1.17,7.65-2.16,15.93-3,24.67,0,0,0,.2,0,.58-.28,2.91-.53,5.89-.77,8.91,0,.29,0,.59-.07.89-7.91,102.4,3.87,257.65,3.87,257.65Z"/><path class="cls-24" d="M3541,2449q-11.23,8.15-22.15,14.91l-86.15-394.18H3406.3l24.07-20.69c-9.94-46.81,3.18-214.15,6.82-257.62-7.91,102.4,3.87,257.65,3.87,257.65Z"/><path class="cls-11" d="M3447.59,1612.25q-3.63.29-7.33.28a95.64,95.64,0,0,1-93.06-117.36l9.6-1.36,64.39-9.11c13.8,17.44,22.61,63.53,25.86,117.37C3447.25,1605.43,3447.43,1608.83,3447.59,1612.25Z"/><path class="cls-25" d="M3447.05,1602.07a108.52,108.52,0,0,1-90.26-107c0-.43,0-.85,0-1.28l64.39-9.11C3435,1502.14,3443.8,1548.23,3447.05,1602.07Z"/><path class="cls-22" d="M3160.57,1445.72v32.4s124.18,71.51,260.62,6.58l-3.86-39-109.57-21-101.1-3.29Z"/><path class="cls-26" d="M3101.42,1079.21l-18.77,85.4-62.74,30.21c-91.23,29.12-151.45-300-151.45-300-55-47.88-34.94-109.27-34.94-109.27l53.24-32.2,22.47-13.6-10.36-38.79c-10.27-41.86,17.53-59.41,28.37-56.53,3.5.92,5.24,4,3.34,9-7.76,20.7,17.48,79.59,43.36,114.53s7.12,90.27,7.12,90.27l47.88,194.46,16.53-11.68,41.72-3.2Z"/><path class="cls-27" d="M2934.3,747.93l-31.83,12.82-15.71-7.44,22.47-13.6-10.36-38.79c-10.27-41.86,17.53-59.41,28.37-56.53l-.62.37s-29.21,15.06-19,51.08S2934.3,747.93,2934.3,747.93Z"/><path class="cls-27" d="M2899.88,873.87a62.9,62.9,0,0,1-67.66-20,60.09,60.09,0,0,1-12.69-27.75c-2.24-12.67-.8-26.75,7.48-41.47a80.19,80.19,0,0,1,38.79-34.16c18.86-8,48.73-16.67,68.5-2.6a39.52,39.52,0,0,1,12.16,14.31C2967.39,802.3,2968.14,852.12,2899.88,873.87Z"/><path class="cls-26" d="M2891.15,865.14a62.94,62.94,0,0,1-58.93-11.23,60.09,60.09,0,0,1-12.69-27.75c-2.24-12.67-.8-26.75,7.48-41.47a80.19,80.19,0,0,1,38.79-34.16c18.86-8,48.73-16.67,68.5-2.6a44.6,44.6,0,0,1,3.43,5.58C2958.66,793.57,2959.41,843.39,2891.15,865.14Z"/><path class="cls-19" d="M3440.19,1365.39c-2.1,67.67-30.7,108.73-79.51,106.72-73-3-197.64,2-209.69-40.2-12-41.92,20.91-326,21.34-329.75v0l-89.69,62.49a458.63,458.63,0,0,0-6.79-48.78c-5.46-28-14.86-60.34-30.39-74.83,0,0,106.75-90.86,139.8-129.34s177.32-20.73,177.32-20.73l76.61,37.43s-12.46,41.88-21.3,100.32c-9.7,64-15.05,147.91,5.09,218.32C3435.77,1291.68,3441.25,1331.81,3440.19,1365.39Z"/><path class="cls-22" d="M3178.83,1043.57l-6.49,58.55-89.69,62.49a458.63,458.63,0,0,0-6.79-48.78Z"/><path class="cls-22" d="M3440.19,1365.39c-34.57,13.56-230.88-5.72-230.88-5.72L3197,1253.23l126.13-24.78c57.31-1.71,59.1-184.88,59.1-184.88l35.64-14.89c-9.7,64-15.05,147.91,5.09,218.32C3435.77,1291.68,3441.25,1331.81,3440.19,1365.39Z"/><path class="cls-22" d="M3255.46,957.23q-.95,5.26-1.85,10.54-2.51,14.54-4.88,29.09-3.58,21.92-6.95,43.84-4.2,27.36-8.05,54.78-4.32,30.86-8.15,61.78-4,32.57-7.32,65.21c-2.16,21.55-4,43.14-5.49,64.75-1.36,20.14-2.36,40.3-2.71,60.48-.3,17.47-.14,35,1.07,52.42.95,13.64,2.43,27.4,5.79,40.68.66,2.59,1.4,5.17,2.24,7.71.66,2,3.78,1.12,3.12-.86-4-11.9-5.8-24.49-7-36.93a496.58,496.58,0,0,1-2.08-50c0-19.58.77-39.15,1.9-58.69,1.22-21.3,2.92-42.57,4.9-63.81q3-32.62,6.94-65.17,3.72-31.59,8.06-63.11,3.86-28.29,8.12-56.51,3.51-23.3,7.26-46.55,2.66-16.41,5.44-32.81c.88-5.12,1.8-10.22,2.67-15.34,0-.22.07-.44.11-.66.37-2-2.74-2.9-3.11-.85Z"/><path class="cls-26" d="M3407.54,744c-8.69-47.85-52.18-20.6-52.18-20.6l-64-108.58-6.24-10.59-10.72,2.35-94.71,21.05-.53,63.46-.28,30.45s-2.62,135.31,69.57,134.12l2.13,37c0,.68.12,1.35.22,2l0,0,.13.58c.13.73.31,1.45.51,2.16l8.69,60.27,60.34-52h0c7.72-5.27,15.85-12.66,24.28-22.8.24-25.67,6.59-62.52,9-75.4a7.49,7.49,0,0,1,5.15-5.88,114.42,114.42,0,0,0,16.9-7.07c2.23-1.07,4.5-2.46,6.84-3.86.06,0,.06-.06.13-.06C3397.39,781.43,3411.59,766.48,3407.54,744Z"/><path class="cls-27" d="M3248.38,855.65c8.1,0,35.36-2.39,55.94-33.09,0,0,2,37.82-54.85,52Z"/><path class="cls-27" d="M3366.14,745.73c-2.1-6.25,5.08-11.84,10.65-8.3,4.63,2.93,8.39,9.13,4.27,22.19-8,25.38-21.59,13.71-20.28,6s8.49-10.87,5.45-19.58Z"/><path class="cls-28" d="M3258.17,723.4a8.49,8.49,0,0,1,4.64-3.87,10.55,10.55,0,0,1,7.08,0c4.45,1.43,9.63,6.35,9.13,11.26-.21,2,2,3.71,3.88,3.66,2.25-.06,3.44-1.85,3.65-3.88.44-4.29-1.83-8.29-4.5-11.45a22.75,22.75,0,0,0-10.37-6.92c-7.45-2.39-16.23.59-20.1,7.52-2.36,4.25,4.23,7.91,6.59,3.68Z"/><path class="cls-28" d="M3192.78,721.05c.6-4,5.64-8,9.61-8.6,4.59-.68,9,3.23,11.62,7.2a3.8,3.8,0,0,0,5.29.67A3.85,3.85,0,0,0,3220,715c-4-6.09-11.38-11.38-19-10-7.2,1.32-14.55,7.48-15.66,15a3.77,3.77,0,0,0,7.47,1Z"/><ellipse class="cls-28" cx="3201.01" cy="740.84" rx="10.71" ry="6.72" transform="translate(2316.94 3905.29) rotate(-87.42)"/><ellipse class="cls-28" cx="3262.5" cy="743.61" rx="11.3" ry="7.08" transform="translate(2372.9 3969.36) rotate(-87.42)"/><path class="cls-27" d="M3375.72,794.51a111.69,111.69,0,0,1-16.91,7s-16.15.66-18.06-14.57C3341.77,788.39,3352.82,803.07,3375.72,794.51Z"/><path class="cls-29" d="M3423.25,621.93a1.16,1.16,0,0,1-.18-2.11c5.48-2.94,19.63-9.75,25.4-5.12C3455.42,620.27,3443.26,628.77,3423.25,621.93Z"/><path class="cls-29" d="M3418.76,615.64a1.59,1.59,0,0,1-2.57-1.33c.59-8.46,3-29.77,12.56-33.06C3440.25,577.28,3441.21,597.51,3418.76,615.64Z"/><path class="cls-27" d="M3371.19,653.44l-15.83,69.92s-71.74-63-123-39.54c-26.84,12.28-43.5,11.12-53.29,7.23l.53-63.46,94.71-21.05,17,8.24Z"/><path class="cls-29" d="M3423.05,716.91H3423a255.54,255.54,0,0,1-16,24.3s-8.87-39.82-51.59-17.86c0,0-52.24-57.69-103.7-55.78-9.21.35-18.09,3.34-26.3,7.56-12.6,6.42-46.17,18.05-68.66-9.91-28.69-35.66-3.36-69.55-1.43-71.93a.22.22,0,0,0,.06-.13s-.7-78.48,63.67-57.33c13.76,4.52,30.9,14.57,40.71,15.13,39.29,2,46.63-27.35,73.4-2.73,33.43,30.74,75.14,20.43,68.85,78.61C3402,626.85,3469.12,637.12,3423.05,716.91Z"/><path class="cls-30" d="M3423,716.92a255.54,255.54,0,0,1-16,24.3s-8.87-39.82-51.59-17.86c0,0-52.24-57.69-103.7-55.78-9.21.35-18.09,3.34-26.3,7.56-12.6,6.42-46.17,18.05-68.66-9.91-28.69-35.66-3.36-69.55-1.43-71.93-.6,2.9-12.14,59.56,30.74,72.05,44,12.77,50.59-34.75,100.46-8s90.56,19.74,102.17-7.68C3388.64,649.68,3378.63,721.1,3423,716.92Z"/><path class="cls-30" d="M3368.81,579.32S3417,610,3371.1,650.83C3371.1,650.83,3400.57,614,3368.81,579.32Z"/><path class="cls-30" d="M3172,615.49s-.48,43.82,60.7,32C3232.66,647.53,3192.37,651.09,3172,615.49Z"/><path class="cls-30" d="M3175.38,574.77s3.7-44.16,50-27.33C3225.43,547.44,3185.09,542.75,3175.38,574.77Z"/><path class="cls-30" d="M3236.72,578.74s-7.26,21.11,22.36,30c0,0,25.67,58.8,89.72,30.37,0,0-59.36,16.77-82.56-35.55C3266.24,603.56,3243.68,603.38,3236.72,578.74Z"/><path class="cls-31" d="M3218.28,797.52l39.76-8a3.87,3.87,0,0,1,4.65,3.87c-.27,9.1-2.89,28.14-19.82,30.39s-24.67-13.37-27.48-21.15A3.87,3.87,0,0,1,3218.28,797.52Z"/><polygon class="cls-12" points="3260.7 906.86 3260.05 957.65 3253.34 913.03 3260.7 906.86"/><polygon class="cls-12" points="3260.05 957.65 3283.11 910.55 3292.07 920.19 3293.54 930.58 3260.05 957.65"/><path class="cls-11" d="M3283.11,910.55l5,56.46a4.51,4.51,0,0,0,7.35,3.16c16.22-13.27,56.92-48.47,67.09-75.35a9.49,9.49,0,0,0,0-6.86l-10-25.51a4,4,0,0,0-6.45-1.42C3337,869.7,3314,899.45,3283.11,910.55Z"/><path class="cls-11" d="M3260.7,906.86,3240,951.61s-2.86-55.89,3.23-81.22l5.6-8.27S3251.69,898.83,3260.7,906.86Z"/><path class="cls-11" d="M3107.79,1181.39c-36.61,27.46-66.95,4.3-66.95,4.3,21.11-48.88-11.9-133-11.9-133-2.56-16.68,25.66-23.42,30.84-24,1.18-.13,6.19,6.27,12.81,16.56h0C3095.09,1080.24,3136.08,1160.17,3107.79,1181.39Z"/><path class="cls-12" d="M3066.93,1119.6c-8.31-33.27-38-66.92-38-66.92-2.56-16.68,25.66-23.42,30.84-24,1.18-.13,6.19,6.27,12.81,16.56-15.25-15-12.1,13.71.5,50.46S3075.26,1152.87,3066.93,1119.6Z"/><polygon class="cls-15" points="3132.58 1135.1 3039.45 1117.08 3031.82 1122.93 3042.37 1132.32 3059.74 1222.81 3097.53 1296.8 3151.47 1292.77 3151.47 1238.82 3132.58 1135.1"/><polygon class="cls-14" points="3143.84 1244.67 3124.94 1140.95 3031.82 1122.93 3056.64 1252.27 3089.9 1302.65 3143.84 1298.61 3143.84 1244.67"/><ellipse class="cls-25" cx="3051.3" cy="1144.61" rx="6.69" ry="11.86" transform="translate(-191.94 825.34) rotate(-14.94)"/><ellipse class="cls-23" cx="3049.26" cy="1144.61" rx="6.69" ry="11.86" transform="translate(-192.01 824.82) rotate(-14.94)"/><path class="cls-19" d="M3446.2,937.13c22.5,55,88.91,233.46,42.48,319l-113-48.29s8.36-88.66,7.11-139.58c-1.09-44.3-5-116.74,35.23-140.5A19.6,19.6,0,0,1,3446.2,937.13Z"/><path class="cls-26" d="M3440.26,1351.23l-231,8.44s-73.85,30.58-125.55-13.83-33.08-124.62-33.08-124.62l100.79,17.6-8-40.77c16-4.37,53.56,55.18,53.56,55.18l17.09-1.9,149.09-16.52,32.16-9.82,37.12,56.06Z"/><path class="cls-27" d="M3155.75,1242.67c-27,7.48-105.07-21.45-105.07-21.45l100.79,17.6-8-40.77C3154.55,1202.59,3155.75,1242.67,3155.75,1242.67Z"/><path class="cls-27" d="M3206.1,1283.88c-.92-11.66-9.07-30.65-9.07-30.65l17.09-1.9C3217.17,1266.83,3206.1,1283.88,3206.1,1283.88Z"/><path class="cls-11" d="M3518.91,1299.74c-.78,28.69-70.72,77.79-84.46,60.9s-29.59-81.82-71.24-125.83c0,0,1.31-45.06,38.24-51.35,16-2.72,40.39,13.4,62.8,34.88h0C3493.49,1246.38,3519.36,1283.5,3518.91,1299.74Z"/><path class="cls-12" d="M3450.13,1302.65l-.93-1.25c-39.88-53.22-86-66.59-86-66.59s1.31-45.06,38.24-51.35c16-2.72,40.39,13.4,62.8,34.88-31.57-21.42-79.54-18.07-43.06,8.89S3490.22,1356.92,3450.13,1302.65Z"/><rect class="cls-11" x="3395.25" y="1605.3" width="12.5" height="6" transform="translate(1568.72 4894.3) rotate(-86.15)"/><path class="cls-11" d="M3467.48,2445.35l-5.86-24.08,5.83-1.41,5.86,24.08Zm-11.71-48.16-5.85-24.08,5.83-1.41,5.85,24.08ZM3444.06,2349l-5.85-24.07,5.83-1.42,5.85,24.08Zm-11.71-48.15-5.85-24.08,5.83-1.42,5.85,24.08Zm-11.7-48.16-5.86-24.08,5.83-1.42,5.86,24.08Zm-11.71-48.16-5.86-24.08,5.83-1.42,5.86,24.08Zm-11.71-48.16-5.85-24.08,5.83-1.42,5.85,24.08Zm-11.71-48.16-5.85-24.08,5.83-1.42,5.85,24.08Zm-11.71-48.16-.46-1.91a109.43,109.43,0,0,1-3.07-23.21l6-.15a104,104,0,0,0,2.9,21.94l.46,1.91Zm3.67-49.74-6-.4,1.67-24.72,6,.4Zm3.32-49.45-6-.4,1.66-24.72,6,.4Zm3.33-49.45-6-.4,1.66-24.72,6,.4Zm3.32-49.45-6-.4,1.66-24.72,6,.4Zm3.33-49.45-6-.4,1.66-24.73,6,.41Zm3.32-49.45-6-.4,1.66-24.73,6,.41Zm3.33-49.45-6-.4,1.66-24.73,6,.41Zm3.32-49.45-6-.4,1.67-24.73,6,.41Z"/><rect class="cls-11" x="3474.73" y="2468.56" width="6" height="12.5" transform="translate(-486.1 891.34) rotate(-13.66)"/><path class="cls-22" d="M2477.05,532.77q-13.9,0-24.21-5.54a39.09,39.09,0,0,1-15.93-15.67q-5.64-10.12-5.63-24,0-13.72,5.63-23.85a38.51,38.51,0,0,1,15.93-15.58q10.3-5.46,24.21-5.46t24.2,5.46a39,39,0,0,1,16,15.58q5.73,10.13,5.73,23.85,0,13.91-5.73,24a39.56,39.56,0,0,1-16,15.67Q2491,532.76,2477.05,532.77Zm0-19.89a17.49,17.49,0,0,0,13.82-6.16q5.37-6.17,5.37-19.19,0-12.86-5.37-18.92a17.61,17.61,0,0,0-13.82-6.08,17.34,17.34,0,0,0-13.73,6.08q-5.28,6.08-5.28,18.92,0,13,5.28,19.19A17.22,17.22,0,0,0,2477.05,512.88Z"/><path class="cls-22" d="M2552.92,532.42q-13.73,0-13.73-13.55v-62.5q0-13.38,13-13.38t13,13.38v3.17q6.35-15.66,26.23-16.9c2.93-.23,5.2.5,6.78,2.2s2.44,4.49,2.55,8.36c.24,3.64-.5,6.52-2.2,8.63s-4.55,3.4-8.54,3.87l-4,.35q-19.72,1.95-19.72,20.07v32.75Q2566.3,532.42,2552.92,532.42Z"/><path class="cls-22" d="M2651.68,564.46a100.78,100.78,0,0,1-18.13-1.58,64.76,64.76,0,0,1-15.5-4.76q-5.1-2.11-6.51-6a10.2,10.2,0,0,1,.09-7.57,10.76,10.76,0,0,1,4.75-5.55,7.84,7.84,0,0,1,7.31-.09,56.39,56.39,0,0,0,14.34,4.58,72.91,72.91,0,0,0,11.36,1.06q22.53,0,22.53-20.78v-9.85a25.84,25.84,0,0,1-11.09,10.74,34.49,34.49,0,0,1-16.55,4,37.42,37.42,0,0,1-20.24-5.37,35.84,35.84,0,0,1-13.38-15.05q-4.76-9.68-4.75-22.71,0-12.84,4.75-22.53A36,36,0,0,1,2624,448a37.51,37.51,0,0,1,20.24-5.37,34.78,34.78,0,0,1,16.38,3.87,25.72,25.72,0,0,1,10.91,10.21v-.35q0-6.51,3.43-9.94t9.77-3.44q13,0,13,13.38V520.8q0,21.83-11.79,32.75T2651.68,564.46Zm.53-55.63a17.88,17.88,0,0,0,14.17-6.16q5.37-6.17,5.37-17.08t-5.37-17a18,18,0,0,0-14.17-6.08q-9,0-14.26,6.08t-5.28,17q0,10.92,5.28,17.08T2652.21,508.83Z"/><path class="cls-22" d="M2731.25,531.72q-7,0-11.18-4.23a14.91,14.91,0,0,1-4.14-10.91,14.42,14.42,0,0,1,4.14-10.65q4.13-4.14,11.18-4.14t11,4.14a14.77,14.77,0,0,1,4,10.65,15.3,15.3,0,0,1-4,10.91Q2738.29,531.72,2731.25,531.72Z"/><ellipse class="cls-32" cx="2043.26" cy="2400.5" rx="575.8" ry="43.7"/><g class="cls-33"><rect class="cls-16" x="1217.35" y="2596.48" width="1559.17" height="38.99"/><rect class="cls-34" x="1217.35" y="2557.49" width="1559.17" height="38.99"/><rect class="cls-35" x="1217.35" y="2518.5" width="1559.17" height="38.99"/><rect class="cls-36" x="1217.35" y="2479.51" width="1559.17" height="38.99"/><rect class="cls-37" x="1217.35" y="2440.52" width="1559.17" height="38.99"/><rect class="cls-38" x="1217.35" y="2401.53" width="1559.17" height="38.99"/><rect class="cls-39" x="1217.35" y="2362.54" width="1559.17" height="38.99"/><rect class="cls-40" x="1217.35" y="2323.55" width="1559.17" height="38.99"/><rect class="cls-41" x="1217.35" y="2284.56" width="1559.17" height="38.99"/><rect class="cls-42" x="1217.35" y="2245.58" width="1559.17" height="38.99"/><rect class="cls-43" x="1217.35" y="2206.59" width="1559.17" height="38.99"/><rect class="cls-44" x="1217.35" y="2167.6" width="1559.17" height="38.99"/><rect class="cls-45" x="1217.35" y="2128.61" width="1559.17" height="38.99"/><rect class="cls-46" x="1217.35" y="2089.62" width="1559.17" height="38.99"/><rect class="cls-47" x="1217.35" y="2050.63" width="1559.17" height="38.99"/><rect class="cls-48" x="1217.35" y="2011.64" width="1559.17" height="38.99"/><rect class="cls-49" x="1217.35" y="1972.65" width="1559.17" height="38.99"/><rect class="cls-50" x="1217.35" y="1933.66" width="1559.17" height="38.99"/><rect class="cls-51" x="1217.35" y="1894.67" width="1559.17" height="38.99"/><rect class="cls-52" x="1217.35" y="1855.68" width="1559.17" height="38.99"/><rect class="cls-53" x="1217.35" y="1816.69" width="1559.17" height="38.99"/><rect class="cls-54" x="1217.35" y="1777.71" width="1559.17" height="38.99"/><rect class="cls-55" x="1217.35" y="1738.72" width="1559.17" height="38.99"/><rect class="cls-56" x="1217.35" y="1699.73" width="1559.17" height="38.99"/><rect class="cls-57" x="1217.35" y="1660.74" width="1559.17" height="38.99"/><rect class="cls-58" x="1217.35" y="1621.75" width="1559.17" height="38.99"/><rect class="cls-59" x="1217.35" y="1582.76" width="1559.17" height="38.99"/><rect class="cls-60" x="1217.35" y="1543.77" width="1559.17" height="38.99"/><rect class="cls-61" x="1217.35" y="1504.78" width="1559.17" height="38.99"/><rect class="cls-62" x="1217.35" y="1465.79" width="1559.17" height="38.99"/><rect class="cls-63" x="1217.35" y="1426.8" width="1559.17" height="38.99"/><rect class="cls-64" x="1217.35" y="1387.81" width="1559.17" height="38.99"/><rect class="cls-65" x="1217.35" y="1348.82" width="1559.17" height="38.99"/><rect class="cls-66" x="1217.35" y="1309.84" width="1559.17" height="38.99"/><rect class="cls-67" x="1217.35" y="1270.85" width="1559.17" height="38.99"/><rect class="cls-3" x="1217.35" y="1231.86" width="1559.17" height="38.99"/></g><path class="cls-68" d="M1997,362.92c-430.57,0-779.61,349-779.61,779.58a777.64,777.64,0,0,0,256.75,578.23v200.08a40.23,40.23,0,0,0,80.46,0V1476.54a40.23,40.23,0,0,1,40.23-40.23h0a40.23,40.23,0,0,1,40.23,40.23V1822a40.39,40.39,0,0,1-1.37,10.44,0,0,0,0,1,0,0c1.54.81,3.1,1.61,4.65,2.41l.57.3a775.75,775.75,0,0,0,76.62,34.57v259.78a40.23,40.23,0,0,0,80.46,0v-457.7c.07-22.21,18.25-41,40.48-40.82a40.24,40.24,0,0,1,40,40.23v170.73a78.81,78.81,0,0,0,74,78.78l6.48.33v87.38a40.23,40.23,0,0,0,40.23,40.23h0a40.23,40.23,0,0,0,40.23-40.23V1921a782.73,782.73,0,0,0,80.47-8.3v245.68a40.23,40.23,0,0,0,80.46,0V1589.14a40.23,40.23,0,1,1,80.46,0V1869.6h0v111a40.24,40.24,0,0,0,80.47,0V1833l1.34-.69a39.87,39.87,0,0,1-1.34-10.31V1476.54a40.23,40.23,0,0,1,80.46,0v307.72c203.52-140.66,336.86-375.63,336.86-641.76C2776.52,711.49,2428,362.93,1997,362.92Z"/><circle class="cls-23" cx="1996.93" cy="942.37" r="585.38"/><path class="cls-69" d="M2056.77,420.59c11-20.34,15.07-39.06,13.1-54.25-24-2.23-48.33-3.43-72.93-3.43a780.38,780.38,0,0,0-214,29.76c3.38,3.38,8.57,4.79,11,8.26,14.37,20.35,48.47,41.28,35.27,63.07-19,31.48-11.69,54.36.28,81.27,4.75,10.66,2.75,28.16,18.6,28.64,16.27.5,29.81-9.65,37.07-24.77,14.64-30.45,39.91-45.68,70.37-58.2C1993.82,475.19,2034.8,461.38,2056.77,420.59Z"/><path class="cls-7" d="M1573,526.73c8.9-1.12,13.86-7.62,19.31-15.52,29.84-43.36,41.5-45.76,88-23.38,12.71,6.12,21.27,16.45,31.94,24.58,14.84,11.3,30,10.88,42.18-3.22,14.93-17.35-4.35-21.89-13.06-30.07-7.27-6.83-14.84-12.82-21-21.33-7.5-10.35-31.8-18.44-54.28-21.31a777.15,777.15,0,0,0-84.07,46c-4.44,10.27-11,19.9-18.17,29.59C1557.63,520.45,1559.81,527.07,1573,526.73Z"/><path class="cls-69" d="M2041.8,523.06c-1,13.35,12,24.33,20.8,20.72,12.85-5.27,34-6.64,35.41-25.1,1.39-17.58-15.45-10.79-25.46-12.49C2059.39,506.67,2043.32,503.65,2041.8,523.06Z"/><path class="cls-69" d="M1667,513.47c-5.88,1.73-19.56-3.62-16.56,7.73,3.49,13.23,14.07,26.95,30.64,24.87,8.3-1.05,25.79-.88,23.64-13.4C1701.52,514.32,1683.31,513.66,1667,513.47Z"/><path class="cls-69" d="M1738.76,695.94c-9-1.06-19-.89-17.16,13,1.24,9.11-2.12,21.84,13.63,21.65,11.81-.14,17.29-8.3,20.89-18C1756.15,700.65,1747.9,697,1738.76,695.94Z"/><path class="cls-69" d="M2141.81,671.64c12-2.36,18.47-9.29,18-21.19-.45-10.77-6.36-15.44-17.71-15.3-13.61.18-13.63,8.91-13.51,18.25S2128.59,672.32,2141.81,671.64Z"/><path class="cls-70" d="M2267,588.82c13.26-2,22.69-.09,31.67,12.42,14.61,20.36,30.65,16.15,41.63-6.8,4.68-9.79-.47-17.13-.79-25.56-1.29-34.77,15.12-56.95,44.5-58.57a584.05,584.05,0,0,0-54.28-42.9A173.28,173.28,0,0,0,2308.4,480c-24.26,16.68-39.18,49.56-66.89,68.62-11.6,8-7.25,28.67-1.09,41.34C2246.8,603.07,2258,590.15,2267,588.82Z"/><path class="cls-7" d="M2056.77,420.59c10.68-19.82,14.9-38.14,13.3-53.11a584.87,584.87,0,0,0-277.24,32.26,9.46,9.46,0,0,1,1.1,1.19c14.37,20.35,48.47,41.28,35.27,63.07-19,31.48-11.69,54.36.28,81.27,4.75,10.66,2.75,28.16,18.6,28.64,16.27.5,29.81-9.65,37.07-24.77,14.64-30.45,39.91-45.68,70.37-58.2C1993.82,475.19,2034.8,461.38,2056.77,420.59Z"/><path class="cls-7" d="M1712.22,512.41c14.84,11.3,30,10.88,42.18-3.22,14.93-17.35-4.35-21.89-13.06-30.07-7.27-6.83-14.84-12.82-21-21.33-3.66-5.05-11.38-9.54-20.87-13.17q-24.57,14.64-47.56,31.58c7.92,2.28,17.12,6.21,28.37,11.63C1693,494,1701.55,504.28,1712.22,512.41Z"/><path class="cls-7" d="M2041.8,523.06c-1,13.35,12,24.33,20.8,20.72,12.85-5.27,34-6.64,35.41-25.1,1.39-17.58-15.45-10.79-25.46-12.49C2059.39,506.67,2043.32,503.65,2041.8,523.06Z"/><path class="cls-7" d="M1681,546.07c8.3-1.05,25.79-.88,23.64-13.4-3.16-18.35-21.37-19-37.72-19.2-5.88,1.73-19.56-3.62-16.56,7.73C1653.89,534.43,1664.47,548.15,1681,546.07Z"/><path class="cls-7" d="M1738.76,695.94c-9-1.06-19-.89-17.16,13,1.24,9.11-2.12,21.84,13.63,21.65,11.81-.14,17.29-8.3,20.89-18C1756.15,700.65,1747.9,697,1738.76,695.94Z"/><path class="cls-9" d="M2733.54,1021.66c-22.22,9.75-32.88-2.26-44.28-15.59-9.9-11.57-23-26.91-10.08-40.05,14.41-14.65,28.55-1.75,38.86,11.55,6.05,7.81,14.06,10.3,23.68,10.51,7.27.16,16.7,1.24,20.7,6.37-35.25-183.32-134.68-343.77-274-457.08a54.1,54.1,0,0,1-13.56,3.76c-9.84-10.37-22.62-18.49-26-33.82h.14a781.51,781.51,0,0,0-82.9-51.58c-20.75,3-40.52,12.47-57.69,24.26-24.26,16.68-39.17,49.57-66.89,68.62-11.6,8-7.25,28.67-1.09,41.34,6.38,13.13,17.58.22,26.56-1.12,13.26-2,22.69-.09,31.67,12.42,14.61,20.36,30.65,16.15,41.63-6.8,4.68-9.79-.47-17.13-.79-25.56-1.46-39.69,20.12-63,57.78-58-32.15,9.16-30,36.11-26.79,55.62,3.42,20.87,22.47-6.85,33.82,3.58-7.19,15.74-27.84,21.87-31,41.54-4.77,29.31-32.62,34.62-53.09,40.76-12.25,3.68-32.63-8.64-38.19-28.57-2.82-10.1-12-10.36-19.45-7.59-8.55,3.21-5.9,11.64-2.84,17.29,9.75,18-.91,21.41-15.2,22.83-7.54,8.2-3.22,25.91-20.88,25.91l.24,0c-2.31,2.33-4.63,4.67-6.92,7l0-.28c-7.87,1.06-14.37-.07-10.43-10.22,18-46.29.27-78.87-49.93-87.67,5,20,18.31,36.91,16.11,57.87-2,19-18,42.11,14.17,51.85q-2.68,4.18-5.36,8.36c-7.31.72-15.68-2-22.54,8.85,16.38,7.26,30,18.2,23.27,38.3-7.76,23.08-28.29,11.87-43.62,14.45a20.13,20.13,0,0,1-6.75,0c-21.36-3.79-33.5,8.15-35.08,26.61-1.45,17.16-11.55,41.82,15.28,48.68,20.22,5.17,43.49,33.82,62.29,4.69,16.46-25.5,38.81-44,58.32-65.85,13.85-15.48,33.62-20.74,48.07-10.25,15.2,11,43.18,16.16,37.46,45.55-1.3,6.63-11.33,14.45,2.57,17.92,9,2.24,15.92-3.71,18-11.64,3.27-12.75,16.36-24.78,3.37-39.56-4.88-5.56-10.23-14.11-.07-20s13.82,4.08,18.36,9.69c8.89,11,12.36,23.83,11.13,38-1,11.79,1.93,22.17,10.87,30.57,4.27,4,8.45,7.55,14.73,6.38,12.94-2.38,3.12-10.33,2.93-15-.6-13.84,4.78-25.49,16.32-30.38,13-5.51,20.28,6,25.85,16.09,13.11,23.75,34.71,33.11,59.79,39.4,12.52,3.14,35.69,1.19,32.24,21.28-2.94,17.11-12.93,34.72-36.42,38.77-25.85,4.45-49.2-1.66-72.57-9.82-19.68-6.86-40.41-12.31-56.73,2.84-13.53,12.56-20.27,9.6-28-3.45-14.74-25-35.55-34.29-64.67-43.17-54.57-16.66-99,3.33-139.89,26.55C2051,942.9,2042,1038.24,2019.49,1120.12c-8.54,31.06,31.31,67.1,49.69,100.54,6.46,11.77,15.73,21.95,23.43,33.08,15.59,22.53,41.33,27.46,62.76,11.16,26.3-20,60.63.83,87.33-17.43,1.19-.82,6.07,2.58,8.45,4.83,17.14,16.22,37.71,27.09,59.49,36.59-26.88,30.64-31.3,33.22-10.82,68.33,22.32,38.26,5,84.38,31.07,120.5,3.07,4.27-1.36,15.15-4.19,22.22-14.59,36.59-17,72.13-9.21,106.87,4.34,19.53,11.89,38.81,22.26,57.88a19.74,19.74,0,0,0,5.38,1.76c6.64,16.27,11.7,32.8,14.07,49.81V1476.54a40.23,40.23,0,0,1,80.46,0v286.11h0v267.27a40.23,40.23,0,0,0,80.46,0V1666.06c2.08-6.71,6.92-12.3,12.66-17.84,8.75-8.41,18.11-19.89,12.76-32.41-13.76-32.23,5.24-48.2,29.13-59.68,26.28-12.6,32.3-31.6,30.25-58.88-2.62-34.67-.18-69.73-1.71-104.54-1.51-34.49,26.49-53.6,41.25-78.63,21.28-36,32.93-74.79,47.32-112.94,2.41-6.41,9.21-14.84,1-21.64-6.54-5.46-12.35,2.82-18.36,3.18-15.4,1-37.76,21.43-44.09.51-4.89-16.13,23.43-21.66,39-26.82,54.69-18.14,91-47.86,93-111.83C2763.25,1015.53,2749.92,1014.48,2733.54,1021.66Zm-117.16,150.73c-15.79-.8-15.34-15.36-24-19-7.11-14-16.67-27.19-20.81-42-8-28.48-6.38-61.38-41.31-74.79-.7-.27-.77-2-1.27-3-9.22-18.33-20.85-37.11-13.33-57.89,2.37-6.57,15.48-15.43,25.9-11.5,22.34,8.43,36.46,24.68,40.66,49.29,4.48,26.32-8,57.45,21,77.13h0C2631.58,1114.2,2612.38,1143.65,2616.38,1172.39Z"/><path class="cls-9" d="M1554.56,1647v137.47q-12.68-8.74-25-18c2.3-45.64-1.45-91.52,2.75-137.12a130.62,130.62,0,0,0,.49-18.11,40.25,40.25,0,0,1,21.74,35.74Z"/><path class="cls-9" d="M1827.54,1372.42c-16.13-9.39-32.35-19.12-49.6-26-35.49-14.09-68.15-30.65-84.58-68.16-7.21-16.48-18.13-27.73-38.38-25.91-13.81,1.24-16.87-11.44-18.63-20.15-7.89-38.92-33.72-40.29-63.52-30.93-16.23,5.12-29.3,5-36.6-11.55-16.66-37.94-38.17-29.08-62.17-8-6.72,5.91-14.49,10.73-22.19,15.36-26,15.64-41,11.11-54-16.91a99.13,99.13,0,0,1-7.6-25.84c-1.93-12.07-7.78-17.37-20.17-17.82-31.08-1.09-34.83-13.88-17.34-38.53,6.74-9.5,9.94-25.36-1.52-33.47-9.56-6.75-22.12-1.74-29.56,8.65-14,19.58-36.3,18.81-44.91,3.43-10.4-18.55-40.7-35.41-17.74-65.29,28.27-36.8,71.47-43.95,111.19-56,24.93-7.58,37.85,19.05,55.08,32.18,1.4,1.06,4.3.14,6.48.14,1-2,2.83-4,2.63-5.67-.38-3.25-2.73-6.32-2.87-9.53-1.51-33.9.49-65.13,43-74.69,18.78-4.22,24.59-22.06,27.33-38.85,3.65-22.26,15.75-35.62,37.12-40.52,23.56-5.4,38-14.38,46.94-41.74,4.51-13.74,47.92,2.14,64.27-23.62a26.52,26.52,0,0,1,2.25-2.52c7.84-9.21,22.15-18.29,14.88-31.09-8.07-14.19-21.57-2.45-32.37.73-9.51,2.79-21.15,8.86-25.42-3.74-3.38-10,7-18.94,14.77-24.41,5.82-4.08,15.12-3.87,23-4.27,21.32-1.07,42.71-.85,64-2.34,11.35-.79,24.47-4.16,27.32-16.34,3.09-13.13-9.69-17-19.49-21.68-10.13-4.79-21.37-9.17-21.95-23-.9-21.62-16.14-31.25-33.33-37.26-11.79-4.12-17.83-9.88-19.92-22.24-2-11.8-9.73-21.48-22-22.69-11.94-1.18-17.61,10.31-21.43,18.95-15.88,36-40.8,66.51-60,100.43-3.41,6-5.68,13.23-13.79,12-3.07-.46-7.67-5.93-7.7-9.14-.28-35.43-28.76-39.66-52.93-47-13.4-4.07-18.11-12.34-19.22-24a19.2,19.2,0,0,1,0-3.22c-136.17,135.6-222.46,321.2-229,526.95a122.87,122.87,0,0,0,41,22.63c46.12,15.23,82.17,44.33,113.83,79.5,9.33,10.39,19.2,14.67,32.38,14,14.64-.69,31-3.38,37.69,14.34,6,15.83,1.86,31-8.45,44.46-35,45.81-37.39,97.06-25.66,151,10.25,47.08,43.69,75.46,81.64,98.23,29,17.42,41.26,41.12,42.57,70a130.62,130.62,0,0,1-.49,18.11c-4.2,45.6-.45,91.48-2.75,137.12q12.3,9.23,25,18V1476.54a40.24,40.24,0,0,1,40.23-40.23h0a40.24,40.24,0,0,1,40.23,40.23v345.51a40.57,40.57,0,0,1-1.37,10.35l1.37.72V1863a40.23,40.23,0,1,0,80.46,0V1757.52c7.66-20.79,24.18-43.88,19.85-61.9-12.06-50.11,22.63-52.5,52.67-65.6q4.17-1.82,7.94-3.57c38.88-18.14,46.29-32.19,35.23-65.07-13.3-39.55-5.61-71.76,17-105.43C1873.88,1417.71,1866.75,1395.22,1827.54,1372.42Z"/><path class="cls-9" d="M2359.2,1647v69.25c-2.37-17-7.43-33.54-14.07-49.81a19.74,19.74,0,0,1-5.38-1.76c-10.37-19.07-17.92-38.35-22.26-57.88.49,0,1,0,1.48,0A40.22,40.22,0,0,1,2359.2,1647Z"/><path class="cls-7" d="M2388.48,514.29c-22.83,11.26-20.89,34.71-18,52.21,3.43,20.86,22.48-6.86,33.83,3.58-7.19,15.74-27.84,21.87-31,41.53-4.77,29.32-32.62,34.62-53.09,40.77-12.25,3.67-32.63-8.65-38.19-28.57-2.82-10.1-12-10.37-19.45-7.59-8.55,3.21-5.9,11.63-2.84,17.28,9.75,18-.91,21.41-15.2,22.84-7.54,8.19-3.22,25.93-20.92,25.91l.28,0c-2.31,2.34-4.63,4.68-6.92,7l0-.27c-7.87,1-14.37-.07-10.43-10.22,18-46.29.27-78.87-49.93-87.67,5,20,18.31,36.91,16.11,57.87-2,19-18,42.11,14.17,51.85l-5.36,8.36c-7.31.72-15.68-2-22.54,8.85,16.38,7.26,30,18.2,23.27,38.3-7.76,23.08-28.29,11.87-43.62,14.45a20.39,20.39,0,0,1-6.75,0c-21.36-3.8-33.51,8.15-35.08,26.61-1.45,17.16-11.55,41.82,15.28,48.67,20.22,5.18,43.49,33.83,62.29,4.7,16.46-25.5,38.81-44,58.32-65.85,13.85-15.48,33.62-20.74,48.07-10.25,15.2,11,43.18,16.16,37.46,45.55-1.3,6.63-11.33,14.45,2.56,17.91,9,2.24,15.93-3.7,18-11.63,3.27-12.75,16.36-24.78,3.37-39.57-4.88-5.56-10.23-14.11-.07-20s13.82,4.09,18.36,9.69c8.89,11,12.36,23.83,11.13,38-1,11.79,1.93,22.17,10.87,30.57,4.27,4,8.45,7.55,14.73,6.38,12.94-2.38,3.12-10.33,2.93-15-.6-13.84,4.78-25.5,16.32-30.38,13-5.51,20.28,6,25.85,16.09,13.11,23.74,34.71,33.11,59.79,39.4,12.52,3.14,35.69,1.19,32.24,21.28-2.94,17.11-12.93,34.71-36.42,38.76-25.85,4.46-49.2-1.65-72.57-9.81-19.68-6.87-40.41-12.31-56.73,2.84-13.53,12.56-20.27,9.6-28-3.45-14.74-25-35.55-34.3-64.67-43.17-54.57-16.66-99,3.33-139.89,26.55C2051,942.9,2042,1038.23,2019.49,1120.12c-8.54,31.06,31.31,67.09,49.69,100.54,6.46,11.77,15.73,21.95,23.43,33.07,15.59,22.53,41.33,27.46,62.76,11.16,26.3-20,60.63.84,87.33-17.43,1.19-.81,6.07,2.59,8.45,4.84,17.14,16.21,37.71,27.09,59.49,36.59-26.88,30.64-31.3,33.21-10.82,68.32,13.67,23.42,12.51,49.78,15.51,75,123.25-80.71,214-206.87,248.47-354.72-4.59-17.23-12.27-32.67-33.57-40.84-.7-.27-.77-2-1.27-3-9.22-18.33-20.85-37.12-13.33-57.89,2.37-6.57,15.48-15.43,25.9-11.5,16.43,6.19,28.36,16.66,35.21,31.52C2578.19,979,2579,962.07,2579,945,2579,774.27,2505.51,620.75,2388.48,514.29Z"/><path class="cls-7" d="M1848.19,1456c-10.28,15.31-17.44,30.33-21,45.86q-15.82-4.82-31.26-10.51a582.83,582.83,0,0,1-328.49-304.37c2.28-1.65,4.49-3.36,6.6-5.21,24-21.06,45.51-29.92,62.17,8,7.3,16.6,20.37,16.67,36.6,11.55,29.8-9.36,55.63-8,63.52,30.93,1.76,8.71,4.82,21.39,18.63,20.15,20.25-1.82,31.17,9.43,38.38,25.91,16.43,37.51,49.09,54.07,84.58,68.16,17.25,6.86,33.47,16.59,49.6,26C1866.75,1395.22,1873.88,1417.71,1848.19,1456Z"/><path class="cls-7" d="M1474.56,897.72c18.78-4.22,24.59-22.07,27.33-38.86,3.65-22.25,15.75-35.61,37.12-40.51,23.56-5.4,38-14.39,46.94-41.75,4.51-13.74,47.92,2.15,64.27-23.61a25.35,25.35,0,0,1,2.25-2.52c7.84-9.21,22.15-18.29,14.88-31.09-8.07-14.19-21.57-2.46-32.37.72-9.51,2.8-21.15,8.87-25.42-3.74-3.38-10,7-18.93,14.77-24.4,5.82-4.08,15.12-3.87,23-4.27,21.32-1.07,42.71-.85,64-2.34,11.35-.79,24.47-4.16,27.32-16.34,3.09-13.14-9.69-17-19.49-21.68-10.13-4.8-21.37-9.17-21.95-23-.9-21.62-16.14-31.25-33.33-37.26-11.79-4.12-17.83-9.89-19.92-22.24-2-11.8-9.73-21.49-22-22.69-11.94-1.18-17.61,10.31-21.43,18.95-15.88,36-40.8,66.5-60,100.43-3.41,6-5.68,13.23-13.79,12-3.07-.46-7.67-5.93-7.7-9.14-.12-15.34-5.54-24.82-13.59-31.24A579.28,579.28,0,0,0,1414.9,945c0,11.41.37,22.73,1,34a86.43,86.43,0,0,0,9.39,8.55c1.4,1.06,4.3.15,6.48.15,1-2,2.83-4,2.63-5.67-.38-3.25-2.73-6.32-2.87-9.53C1430,938.51,1432,907.28,1474.56,897.72Z"/><path class="cls-71" d="M2804.82,2610.13c0,7.86-20.2,15.36-56.85,22.21q-7.45,1.38-15.8,2.74c-28,4.56-63.5,8.79-105.19,12.61-5.27.48-10.65.95-16.11,1.42-33.06,2.84-69.69,5.42-109.32,7.72l-16.15.92c-48.1,2.63-100.38,4.85-155.92,6.58l-2.82.09-13.3.4c-42.82,1.25-87.48,2.21-133.6,2.86l-16.08.2c-39.36.48-79.74.73-120.88.73h-3.44l-16.09,0c-43.93-.08-87-.45-128.74-1.08l-16.1-.26c-41.17-.69-81.1-1.65-119.48-2.83l-14-.44-16.11-.54c-55.84-2-108.08-4.39-155.76-7.26-5.44-.32-10.83-.66-16.14-1-40.06-2.55-76.67-5.41-109.2-8.52q-8.22-.8-16.08-1.61c-43.67-4.48-79.13-9.48-104.67-14.83q-8.55-1.8-15.61-3.64c-19.91-5.23-30.58-10.74-30.58-16.46,0-109,152.28-172.7,182-184.1,2.91-1.12,4.65-1.73,5-1.83-2.78,1.76-4.21,3.56-4.21,5.38,0,2.22,2.11,4.41,6.21,6.53,4.69,2.44,12,4.82,21.63,7.12,12,2.86,27.65,5.6,46.55,8.16,6.54.9,13.46,1.76,20.74,2.62,27,3.14,59.1,6,95.38,8.53q10,.71,20.43,1.35c33,2.1,69,3.91,107.47,5.4l17.47.65c32,1.14,65.63,2,100.52,2.74,5.42.1,10.88.21,16.37.29,34.57.6,70.31.94,106.92,1.05l16.09,0h3.44c33.8,0,66.93-.23,99.14-.66q8.23-.11,16.38-.23c34.86-.54,68.58-1.32,100.85-2.32q8.84-.27,17.49-.57c38.53-1.3,74.86-2.92,108.43-4.81q10.42-.59,20.49-1.2c36-2.24,68.53-4.78,96.74-7.6,7.27-.73,14.27-1.47,20.95-2.23,19.87-2.27,37.11-4.67,51.37-7.2,9.41-1.67,17.53-3.4,24.26-5.17,15-4,23.12-8.14,23.12-12.47,0-1.77-1.36-3.52-4-5.25.69.25,2.22.8,4.47,1.67,29.41,11.25,180.94,74.49,182.13,182.85A4.72,4.72,0,0,1,2804.82,2610.13Z"/><path class="cls-19" d="M2800.77,2578c0,7.73-20.08,15.1-56.51,21.83q-7.41,1.36-15.71,2.7c-27.86,4.48-63.12,8.64-104.57,12.39q-7.86.7-16,1.4c-32.87,2.79-69.28,5.33-108.68,7.59l-16.05.9c-47.82,2.59-99.79,4.77-155,6.47l-2.8.09-13.22.39c-42.57,1.23-87,2.17-132.81,2.81l-16,.2c-39.13.47-79.27.72-120.16.72h-3.42l-16,0c-43.67-.08-86.44-.45-128-1.07q-8-.11-16-.25c-40.93-.68-80.62-1.62-118.78-2.78l-13.93-.44-16-.53c-55.51-1.91-107.44-4.31-154.84-7.13q-8.11-.48-16-1c-39.83-2.5-76.22-5.31-108.56-8.37q-8.16-.78-16-1.58c-43.41-4.41-78.66-9.32-104-14.58q-8.51-1.77-15.52-3.58c-19.79-5.14-30.4-10.56-30.4-16.18,0-107.17,151.38-169.76,181-181,2.9-1.1,4.63-1.7,4.93-1.8-2.76,1.73-4.18,3.5-4.18,5.29,0,2.18,2.1,4.33,6.17,6.42,4.66,2.4,11.9,4.74,21.5,7,11.92,2.81,27.49,5.5,46.28,8q9.75,1.32,20.62,2.57c26.85,3.09,58.75,5.91,94.81,8.39q9.95.69,20.31,1.33c32.77,2.06,68.58,3.84,106.84,5.3q8.6.33,17.36.64c31.84,1.12,65.25,2,99.93,2.7q8.09.15,16.27.28c34.37.59,69.9.93,106.29,1l16,0h3.42c33.6,0,66.53-.22,98.55-.64q8.19-.11,16.28-.23c34.66-.53,68.18-1.3,100.26-2.28q8.78-.27,17.38-.56c38.31-1.28,74.42-2.87,107.79-4.73q10.36-.57,20.37-1.18c35.83-2.2,68.13-4.7,96.17-7.47q10.84-1.08,20.83-2.19c19.75-2.23,36.89-4.59,51.06-7.08,9.36-1.64,17.43-3.34,24.12-5.08,15-3.89,23-8,23-12.26,0-1.74-1.35-3.46-4-5.16.69.24,2.21.79,4.45,1.64,29.23,11.06,179.87,73.22,181,179.74A4.58,4.58,0,0,1,2800.77,2578Z"/><path class="cls-22" d="M2039.84,2444.2v191.27l-16,0V2444.18Z"/><path class="cls-22" d="M1495.13,2413.92a384.2,384.2,0,0,0-78,50.69c-46.42,39.28-75,83.91-85.43,133.13q-8.51-1.77-15.52-3.58a225.12,225.12,0,0,1,25.23-65.15c15.9-27.65,38-53.54,65.76-76.93a397.43,397.43,0,0,1,66.5-45.16C1478.29,2409.32,1485.53,2411.66,1495.13,2413.92Z"/><path class="cls-22" d="M1562,2424.51a410.22,410.22,0,0,0-46.82,50.81c-24.92,32.17-53.74,80.15-63.52,138.58q-8.16-.78-16-1.58a289.48,289.48,0,0,1,18.69-65.07c11.71-28.15,28-55.78,48.46-82.12a425.41,425.41,0,0,1,38.55-43.19Q1551.16,2423.26,1562,2424.51Z"/><path class="cls-22" d="M1656.84,2432.9a513,513,0,0,0-32.8,41.86c-25.17,35.84-54.33,88.09-63.79,147.51q7.92.49,16,1c9.23-55.69,36.8-105,60.62-139a498,498,0,0,1,40.24-50Q1666.79,2433.59,1656.84,2432.9Z"/><path class="cls-22" d="M1801.35,2440.17c-17,36.9-45.91,109.27-54.2,190.74l-16-.53c5.81-58.33,21.75-111.26,35.15-147.53,6.25-16.9,12.39-31.53,17.71-43.32Q1792.59,2439.86,1801.35,2440.17Z"/><path class="cls-22" d="M1917.55,2443.15c-8.31,39.91-21.13,113.69-21.69,191.23q-8-.11-16-.25c.58-76.89,13-150,21.42-191.26Q1909.37,2443,1917.55,2443.15Z"/><path class="cls-22" d="M2744.26,2599.81q-7.41,1.36-15.71,2.7c-9.51-51.11-38.44-97.36-86.37-137.9a383.88,383.88,0,0,0-70.23-46.77c9.36-1.64,17.43-3.34,24.12-5.08a395.37,395.37,0,0,1,56.08,39.32c27.73,23.39,49.85,49.28,65.76,76.93A224.2,224.2,0,0,1,2744.26,2599.81Z"/><path class="cls-22" d="M2624,2614.9q-7.86.7-16,1.4c-9.37-59.52-38.64-108.37-63.9-141a409.56,409.56,0,0,0-44-48.21q10.84-1.08,20.83-2.19a429.71,429.71,0,0,1,35.52,40.21c20.45,26.34,36.76,54,48.47,82.12A289.38,289.38,0,0,1,2624,2614.9Z"/><path class="cls-22" d="M2499.29,2623.89l-16.05.9c-9-56.32-36.83-106.22-60.87-140.52a495.75,495.75,0,0,0-38.85-48.51q10.36-.57,20.37-1.18a508.83,508.83,0,0,1,31.35,40.18C2460.64,2510.92,2490.1,2563.8,2499.29,2623.89Z"/><path class="cls-22" d="M2328.24,2631.26l-2.8.09-13.22.39c-8.12-81.23-36.74-153.42-53.87-190.69q8.78-.27,17.38-.56c5.21,11.63,11.19,25.91,17.26,42.36C2306.46,2519.3,2322.5,2572.58,2328.24,2631.26Z"/><path class="cls-22" d="M2179.41,2634.55l-16,.2c-.51-77.41-13.28-151.11-21.61-191.19q8.19-.11,16.28-.23C2166.56,2484.73,2178.88,2557.79,2179.41,2634.55Z"/><path class="cls-72" d="M2776.52,2592.46c-10.58,2.71-21.29,4.91-32,7.08-10.75,2-21.48,4.08-32.27,5.75s-21.57,3.58-32.4,5l-16.23,2.27-8.12,1.14c-2.7.39-5.41.77-8.12,1.08l-32.56,3.85-8.14,1-4.07.48-4.07.41-16.31,1.63-32.63,3.19c-2.72.28-5.44.51-8.16.72l-8.17.64-16.34,1.3-32.68,2.6c-5.44.48-10.9.71-16.35,1.06l-16.36,1-32.72,1.94c-5.45.32-10.91.68-16.36.95l-16.37.72-65.5,2.69-65.52,1.69-32.76.71-32.77.25L2124,2642l-8.19,0-8.19-.08-16.38-.16-32.77-.32c-21.84-.22-43.68-.37-65.52-.85-43.66-1.15-87.33-2.29-131-3.86-43.64-2-87.27-4-130.87-6.39,43.68.2,87.34.86,131,1.49l130.94,1c5.46.07,10.92,0,16.37,0l16.37-.08,32.73,0,32.73,0,16.36,0h8.19l8.18-.11,65.44-.76,32.73-.36,32.71-.82,65.43-1.46,65.39-2.36,16.35-.54c5.45-.22,10.89-.52,16.34-.78l32.68-1.59c10.89-.56,21.79-1,32.67-1.65l32.66-2,16.32-1,8.17-.5q4.08-.23,8.16-.57l32.61-2.52c21.77-1.45,43.46-3.75,65.19-5.69,21.69-2.25,43.39-4.51,65-7.37,10.85-1.25,21.61-3,32.42-4.5S2765.83,2594.68,2776.52,2592.46Z"/><path class="cls-12" d="M1662.48,838.65h-43.06l28.4-98.2H1630.1l-17,31.66s2-.13,4.69-.41l-64.47,66.95H1191.78A38.45,38.45,0,0,0,1153.44,877v163.75a38.45,38.45,0,0,0,38.34,38.33h470.7a38.44,38.44,0,0,0,38.33-38.33V877A38.44,38.44,0,0,0,1662.48,838.65Z"/><path class="cls-11" d="M1174.05,1079.06h470.7a38.45,38.45,0,0,0,38.34-38.33V877a38.45,38.45,0,0,0-38.34-38.33h-43l28.4-98.2-94.55,98.2h-361.5A38.44,38.44,0,0,0,1135.72,877v163.75A38.44,38.44,0,0,0,1174.05,1079.06Z"/><path class="cls-14" d="M1200.75,1009q-10.24,0-10.25-10.38V922q0-10.37,10.25-10.37,10.1,0,10.1,10.37v28.7a22.51,22.51,0,0,1,9-7.74,28.06,28.06,0,0,1,12.26-2.63q23.31,0,23.31,27.76v30.58q0,10.38-10.24,10.38-4.85,0-7.48-2.7t-2.62-7.68V969q0-6.87-2.56-9.9t-7.55-3q-6.46,0-10.31,4t-3.84,10.78v27.75Q1210.85,1009,1200.75,1009Z"/><path class="cls-14" d="M1303.15,1009.31q-27.89,0-27.89-27.09V956.89h-5.66q-7.95,0-7.95-7.54t7.95-7.68h5.66V931.42q0-10.36,10.24-10.37t10.11,10.37v10.25h12.8q7.81,0,7.81,7.68t-7.81,7.54h-12.8v24.53c0,3.77.87,6.6,2.63,8.49s4.55,2.83,8.42,2.83a16.76,16.76,0,0,0,3.77-.41,24.15,24.15,0,0,1,3.23-.54,3.63,3.63,0,0,1,3.1,1.21c.81.9,1.22,2.75,1.22,5.53a13.69,13.69,0,0,1-1.08,5.73,6.66,6.66,0,0,1-3.78,3.43,24.29,24.29,0,0,1-4.78,1.15A35.08,35.08,0,0,1,1303.15,1009.31Z"/><path class="cls-14" d="M1352.74,1009.31q-27.88,0-27.89-27.09V956.89h-5.66q-7.95,0-8-7.54t8-7.68h5.66V931.42q0-10.36,10.24-10.37t10.11,10.37v10.25H1358q7.8,0,7.81,7.68t-7.81,7.54h-12.8v24.53q0,5.66,2.62,8.49c1.76,1.88,4.56,2.83,8.43,2.83a16.76,16.76,0,0,0,3.77-.41,23.89,23.89,0,0,1,3.23-.54,3.63,3.63,0,0,1,3.1,1.21c.81.9,1.21,2.75,1.21,5.53a13.86,13.86,0,0,1-1.07,5.73,6.66,6.66,0,0,1-3.78,3.43,24.47,24.47,0,0,1-4.78,1.15A35.08,35.08,0,0,1,1352.74,1009.31Z"/><path class="cls-14" d="M1385,1033.29q-10.25,0-10.25-10.37V950.83q0-10.25,10-10.24t10.1,10.24v.4a20.46,20.46,0,0,1,8.36-8,25.84,25.84,0,0,1,12.39-3,26.83,26.83,0,0,1,25.34,16q3.63,7.68,3.63,18.33a43,43,0,0,1-3.63,18.39,28.16,28.16,0,0,1-10.18,12,27.22,27.22,0,0,1-15.16,4.25,25.77,25.77,0,0,1-12.06-2.83,21.2,21.2,0,0,1-8.42-7.55v24Q1395.05,1033.3,1385,1033.29Zm24.52-39.21a13.19,13.19,0,0,0,10.51-4.71q4-4.73,4-14.69t-4-14.49a13.27,13.27,0,0,0-10.51-4.65,13.44,13.44,0,0,0-10.65,4.65q-4,4.65-4,14.49t4,14.69A13.36,13.36,0,0,0,1409.47,994.08Z"/><path class="cls-14" d="M1482.23,1009.31a71.65,71.65,0,0,1-12.19-1.08,40.67,40.67,0,0,1-11.39-3.64,8.56,8.56,0,0,1-4.38-4.44,7.4,7.4,0,0,1-.07-5.26,7,7,0,0,1,3.37-3.84,6.42,6.42,0,0,1,5.66.07,55.66,55.66,0,0,0,10.18,3.23,44.94,44.94,0,0,0,9,.95q5.66,0,8.35-1.82a5.55,5.55,0,0,0,2.7-4.79q0-4.71-6.88-5.93l-14.14-2.56q-8.49-1.47-12.94-6.06t-4.45-12a18.29,18.29,0,0,1,3.78-11.59,24.48,24.48,0,0,1,10.37-7.55,40.19,40.19,0,0,1,15.23-2.69,46.46,46.46,0,0,1,21,4.58,6.63,6.63,0,0,1,3.84,4.18,7.83,7.83,0,0,1-.34,5.25,7.46,7.46,0,0,1-3.5,3.84q-2.43,1.29-5.79-.2a46.07,46.07,0,0,0-8.09-2.9,29.65,29.65,0,0,0-6.87-.87q-6.06,0-8.76,1.95a5.86,5.86,0,0,0-2.7,4.92q0,4.71,6.34,5.93l14.15,2.56q8.74,1.49,13.34,5.86t4.58,11.93q0,10.36-8.09,16.17T1482.23,1009.31Z"/><path class="cls-14" d="M1533,963.9a11.54,11.54,0,0,1-8.55-3.17,12.41,12.41,0,0,1,0-16.57A11.54,11.54,0,0,1,1533,941q5.38,0,8.42,3.17a12.81,12.81,0,0,1,0,16.57Q1538.42,963.9,1533,963.9Zm0,44.6a11,11,0,0,1-11.72-11.59,11,11,0,0,1,3.17-8.15,11.54,11.54,0,0,1,8.55-3.17q5.38,0,8.42,3.17a11.27,11.27,0,0,1,3,8.15,11.7,11.7,0,0,1-3,8.36Q1538.42,1008.49,1533,1008.5Z"/><path class="cls-14" d="M1572.11,1011.33a7.49,7.49,0,0,1-4.11,5,8.52,8.52,0,0,1-5.86.33,8.15,8.15,0,0,1-4.65-3.43c-1.12-1.71-1.24-3.91-.34-6.61l30.45-95a7.47,7.47,0,0,1,4.11-5,8.8,8.8,0,0,1,5.87-.4,7.75,7.75,0,0,1,4.64,3.43q1.69,2.63.34,6.54Z"/><path class="cls-14" d="M1610.38,1011.33a7.49,7.49,0,0,1-4.11,5,8.55,8.55,0,0,1-5.87.33,8.16,8.16,0,0,1-4.64-3.43q-1.69-2.57-.34-6.61l30.45-95a7.47,7.47,0,0,1,4.11-5,8.77,8.77,0,0,1,5.86-.4,7.74,7.74,0,0,1,4.65,3.43q1.69,2.63.34,6.54Z"/><path class="cls-17" d="M2503.53,1180.88H2183.09l-52.91-55-12-32.1h-18.86l25.17,87.05h-38.16a34.08,34.08,0,0,0-34,34V1360a34.08,34.08,0,0,0,34,34h417.24a34.08,34.08,0,0,0,34-34V1214.86A34.08,34.08,0,0,0,2503.53,1180.88Z"/><path class="cls-16" d="M2522.39,1394H2105.15a34.08,34.08,0,0,1-34-34V1214.86a34.08,34.08,0,0,1,34-34h38.17l-25.18-87.05,83.81,87.05h320.44a34.08,34.08,0,0,1,34,34V1360A34.08,34.08,0,0,1,2522.39,1394Z"/><path class="cls-19" d="M2164.21,1326.69q-8.22,0-11.46-8.22l-19-47q-2.14-5.52.07-9.37t8.42-3.84a9.24,9.24,0,0,1,5.73,1.69c1.48,1.12,2.81,3.26,4,6.4l13.2,35.44,13.88-37.19q2.29-6.33,8.62-6.34t8.76,6.34l13.75,37.73,13.47-36.52q1.62-4.3,4.11-5.93a10,10,0,0,1,5.59-1.62c3.87,0,6.38,1.35,7.55,4s1,5.75-.4,9.16l-18.87,47q-3.22,8.22-11.45,8.22t-11.46-8.22L2187,1287.88l-11.45,30.45Q2172.43,1326.69,2164.21,1326.69Z"/><path class="cls-19" d="M2286,1326.69q-8.22,0-11.45-8.22l-19-47q-2.16-5.52.06-9.37c1.49-2.56,4.29-3.84,8.43-3.84a9.23,9.23,0,0,1,5.72,1.69c1.49,1.12,2.81,3.26,4,6.4l13.2,35.44,13.88-37.19q2.29-6.33,8.63-6.34t8.76,6.34L2332,1302.3l13.48-36.52q1.61-4.3,4.1-5.93a10.08,10.08,0,0,1,5.6-1.62q5.79,0,7.54,4t-.4,9.16l-18.87,47q-3.23,8.22-11.45,8.22t-11.45-8.22l-11.73-30.59-11.45,30.45Q2294.23,1326.69,2286,1326.69Z"/><path class="cls-19" d="M2407.83,1326.69q-8.22,0-11.45-8.22l-19-47q-2.16-5.52.07-9.37t8.42-3.84a9.28,9.28,0,0,1,5.73,1.69c1.48,1.12,2.8,3.26,4,6.4l13.21,35.44,13.88-37.19q2.28-6.33,8.62-6.34t8.76,6.34l13.74,37.73,13.48-36.52q1.6-4.3,4.11-5.93a10,10,0,0,1,5.59-1.62c3.86,0,6.38,1.35,7.54,4s1,5.75-.4,9.16l-18.86,47q-3.24,8.22-11.46,8.22t-11.45-8.22l-11.72-30.59-11.46,30.45Q2416,1326.69,2407.83,1326.69Z"/><path class="cls-19" d="M2500.14,1326.15a11,11,0,0,1-11.73-11.59,11,11,0,0,1,3.17-8.15,11.56,11.56,0,0,1,8.56-3.17q5.39,0,8.42,3.17a11.31,11.31,0,0,1,3,8.15,11.71,11.71,0,0,1-3,8.35Q2505.53,1326.15,2500.14,1326.15Z"/><path class="cls-22" d="M2790.93,325.78H2373.69a34.09,34.09,0,0,0-34,34V619.43a34.09,34.09,0,0,0,34,34h36.76l-23.77,87H2417l39.07-72.05,14.43-15h320.44a34.08,34.08,0,0,0,34-34V359.76A34.08,34.08,0,0,0,2790.93,325.78Z"/><path class="cls-19" d="M2821.24,325.78H2404a34.08,34.08,0,0,0-34,34V619.43a34.08,34.08,0,0,0,34,34h38.17l-25.18,87,83.81-87h320.44a34.08,34.08,0,0,0,34-34V359.76A34.08,34.08,0,0,0,2821.24,325.78Z"/><path class="cls-16" d="M2507.36,532.77q-13.91,0-24.21-5.54a39.09,39.09,0,0,1-15.93-15.67q-5.64-10.12-5.63-24,0-13.72,5.63-23.85a38.51,38.51,0,0,1,15.93-15.58q10.3-5.46,24.21-5.46t24.2,5.46a39,39,0,0,1,16,15.58q5.73,10.13,5.72,23.85,0,13.91-5.72,24a39.56,39.56,0,0,1-16,15.67Q2521.27,532.76,2507.36,532.77Zm0-19.89a17.49,17.49,0,0,0,13.82-6.16q5.37-6.17,5.37-19.19,0-12.86-5.37-18.92a17.61,17.61,0,0,0-13.82-6.08,17.33,17.33,0,0,0-13.73,6.08q-5.28,6.08-5.28,18.92,0,13,5.28,19.19A17.21,17.21,0,0,0,2507.36,512.88Z"/><path class="cls-16" d="M2583.23,532.42q-13.72,0-13.73-13.55v-62.5q0-13.38,13-13.38t13,13.38v3.17q6.35-15.66,26.23-16.9c2.93-.23,5.2.5,6.78,2.2s2.43,4.49,2.55,8.36c.24,3.64-.5,6.52-2.2,8.63s-4.55,3.4-8.54,3.87l-4,.35q-19.73,1.95-19.72,20.07v32.75Q2596.61,532.42,2583.23,532.42Z"/><path class="cls-16" d="M2682,564.46a100.7,100.7,0,0,1-18.13-1.58,64.62,64.62,0,0,1-15.5-4.76q-5.1-2.11-6.51-6a10.2,10.2,0,0,1,.09-7.57,10.76,10.76,0,0,1,4.75-5.55,7.84,7.84,0,0,1,7.31-.09,56.39,56.39,0,0,0,14.34,4.58,72.91,72.91,0,0,0,11.36,1.06q22.53,0,22.53-20.78v-9.85a25.84,25.84,0,0,1-11.09,10.74,34.52,34.52,0,0,1-16.55,4,37.42,37.42,0,0,1-20.24-5.37A35.84,35.84,0,0,1,2641,508.3q-4.75-9.68-4.75-22.71,0-12.84,4.75-22.53A36,36,0,0,1,2654.35,448a37.51,37.51,0,0,1,20.24-5.37,34.78,34.78,0,0,1,16.38,3.87,25.72,25.72,0,0,1,10.91,10.21v-.35q0-6.51,3.43-9.94t9.77-3.44q13,0,13,13.38V520.8q0,21.83-11.79,32.75T2682,564.46Zm.53-55.63a17.88,17.88,0,0,0,14.17-6.16q5.37-6.17,5.37-17.08t-5.37-17a18,18,0,0,0-14.17-6.08q-9,0-14.26,6.08t-5.28,17q0,10.92,5.28,17.08T2682.52,508.83Z"/><path class="cls-16" d="M2761.56,531.72q-7,0-11.18-4.23a14.91,14.91,0,0,1-4.14-10.91,14.42,14.42,0,0,1,4.14-10.65q4.13-4.14,11.18-4.14t11,4.14a14.77,14.77,0,0,1,4,10.65,15.3,15.3,0,0,1-4,10.91Q2768.6,531.72,2761.56,531.72Z"/></g></svg>