<?xml version="1.0" encoding="UTF-8"?>
<svg id="thunder_check" data-name="Capa 1" xmlns="http://www.w3.org/2000/svg" viewBox="0 0 119.93 170">
  <defs>
    <style>
      .cls-1 {
      }
    </style>
  </defs>
  <path fill="#44cc17" class="cls-1" d="M103.69,80.27c-9.02-3.32-25.3-9.34-35.79-13.23-5.31-1.97-7.78-8.06-5.35-13.18l15.75-33.16,6.66-13.46c2.33-4.7-3.24-9.35-7.45-6.22l-17.5,13L6.14,54.06c-.22,.16-.43,.34-.62,.53C-5.06,65.18,.02,78.93,16.91,85.11c9.84,3.6,26.93,9.72,37.01,13.4,4.62,1.69,7.23,6.58,6.05,11.36l-9.31,37.85-4.16,16.01c-1.27,4.89,4.69,8.35,8.31,4.83l60.43-58.73-.18-.02c9.65-10.1,4.5-23.72-11.36-29.55Z"/>
</svg>
