<svg enable-background="new 0 0 1600 1000" height="1000" viewBox="0 0 1600 1000" width="1600" xmlns="http://www.w3.org/2000/svg" xmlns:xlink="http://www.w3.org/1999/xlink"><linearGradient id="a"><stop offset=".13523" stop-color="#2254d1"/><stop offset="1" stop-color="#002f94"/></linearGradient><radialGradient id="b" cx="107.44514" cy="305.83023" gradientUnits="userSpaceOnUse" r="645.70343" xlink:href="#a"/><linearGradient id="c" gradientUnits="userSpaceOnUse" x1="348.44409" x2="375.03806" y1="215.382" y2="241.97598"><stop offset="0" stop-color="#4480e6"/><stop offset=".82681" stop-color="#0c3ea3"/><stop offset="1" stop-color="#002f94"/></linearGradient><radialGradient id="d" cx="107.43976" cy="305.82956" gradientUnits="userSpaceOnUse" r="645.70959" xlink:href="#a"/><linearGradient id="e" gradientUnits="userSpaceOnUse" x1="121.96575" x2="376.74814" y1="248.29512" y2="503.07751"><stop offset="0" stop-color="#4480e6"/><stop offset="1" stop-color="#4480e6" stop-opacity="0"/></linearGradient><linearGradient id="f" gradientUnits="userSpaceOnUse" x1="270.453" x2="404.31744" y1="398.7254" y2="532.58984"><stop offset="0" stop-color="#fff"/><stop offset="1" stop-color="#d2f1ff"/></linearGradient><linearGradient id="g"><stop offset="0" stop-color="#d2f1ff"/><stop offset=".65516" stop-color="#a5ddff"/><stop offset="1" stop-color="#8bd2ff"/></linearGradient><linearGradient id="h" gradientUnits="userSpaceOnUse" x1="316.01254" x2="360.84561" xlink:href="#g" y1="442.78284" y2="487.61591"/><linearGradient id="i" gradientUnits="userSpaceOnUse" x1="256.34369" x2="320.02869" xlink:href="#g" y1="445.89645" y2="509.58148"/><linearGradient id="j"><stop offset="0" stop-color="#fb8cff"/><stop offset="1" stop-color="#f04af4"/></linearGradient><linearGradient id="k" gradientUnits="userSpaceOnUse" x1="318.32907" x2="318.32907" xlink:href="#j" y1="464.65216" y2="522.41003"/><linearGradient id="l"><stop offset="0" stop-color="#fff"/><stop offset="1" stop-color="#fff" stop-opacity="0"/></linearGradient><linearGradient id="m" gradientUnits="userSpaceOnUse" x1="301.44479" x2="301.44479" xlink:href="#l" y1="461" y2="482.33914"/><linearGradient id="n" gradientUnits="userSpaceOnUse" x1="255.95752" x2="288.34372" xlink:href="#j" y1="318.82507" y2="351.21127"/><linearGradient id="o" gradientUnits="userSpaceOnUse" x1="254.07959" x2="276.63574" xlink:href="#l" y1="316.92041" y2="339.47659"/><radialGradient id="p" cx="545.78259" cy="527.26086" gradientUnits="userSpaceOnUse" r="381.13766"><stop offset="0" stop-color="#f04af4"/><stop offset=".29795" stop-color="#ac42d9"/><stop offset=".98768" stop-color="#032f95"/><stop offset="1" stop-color="#002f94"/></radialGradient><clipPath id="q"><path d="m405.99905 632.13898h415.90341v196.71457h-415.90341z"/></clipPath><linearGradient id="r" gradientUnits="userSpaceOnUse" x1="551.98621" x2="551.98621" xlink:href="#j" y1="437.70108" y2="498.35242"/><linearGradient id="s"><stop offset="0" stop-color="#d2f1ff"/><stop offset=".09675" stop-color="#caeeff"/><stop offset=".69763" stop-color="#9ddaff"/><stop offset="1" stop-color="#8bd2ff"/></linearGradient><linearGradient id="t" gradientUnits="userSpaceOnUse" x1="650.1272" x2="650.1272" xlink:href="#s" y1="437.70108" y2="498.35242"/><linearGradient id="u" gradientUnits="userSpaceOnUse" x1="748.26819" x2="748.26819" xlink:href="#j" y1="437.70108" y2="498.35242"/><linearGradient id="v" gradientUnits="userSpaceOnUse" x1="846.40918" x2="846.40918" xlink:href="#s" y1="437.70108" y2="498.35242"/><linearGradient id="w" gradientUnits="userSpaceOnUse" x1="944.55017" x2="944.55017" xlink:href="#j" y1="437.70108" y2="498.35242"/><linearGradient id="x" gradientUnits="userSpaceOnUse" x1="1042.69116" x2="1042.69116" xlink:href="#s" y1="437.70108" y2="498.35242"/><linearGradient id="y" gradientUnits="userSpaceOnUse" x1="977.16809" x2="1143.64502" xlink:href="#j" y1="204.39711" y2="370.87399"/><linearGradient id="z" gradientUnits="userSpaceOnUse" x1="982.38568" x2="1046.98022" xlink:href="#l" y1="209.6143" y2="274.20877"/><clipPath id="A"><path d="m1026.61682 530.77167h407.43701v298.08185h-407.43701z"/></clipPath><linearGradient id="B" gradientUnits="userSpaceOnUse" x1="1049.56519" x2="1248.25464" y1="707.40546" y2="707.40546"><stop offset="0" stop-color="#4480e6"/><stop offset=".54481" stop-color="#3066d9"/><stop offset="1" stop-color="#2254d1"/></linearGradient><linearGradient id="C" gradientUnits="userSpaceOnUse" x1="1113.73914" x2="1169.06567" xlink:href="#j" y1="747.67023" y2="747.67023"/><linearGradient id="D" gradientUnits="userSpaceOnUse" x1="1162.35754" x2="1177.61841" xlink:href="#s" y1="774.48834" y2="795.22748"/><linearGradient id="E" gradientUnits="userSpaceOnUse" x1="1218.21716" x2="1233.47803" xlink:href="#s" y1="733.38416" y2="754.12323"/><linearGradient id="F" gradientUnits="userSpaceOnUse" x1="1274.07666" x2="1289.33752" xlink:href="#s" y1="692.27991" y2="713.01904"/><linearGradient id="G" gradientUnits="userSpaceOnUse" x1="1329.93628" x2="1345.19714" xlink:href="#s" y1="651.17572" y2="671.91486"/><linearGradient id="H" gradientUnits="userSpaceOnUse" x1="641.36542" x2="641.36542" xlink:href="#j" y1="565.22827" y2="577.6618"/><linearGradient id="I" gradientUnits="userSpaceOnUse" x1="757.77863" x2="757.77863" xlink:href="#j" y1="543.21741" y2="573.49231"/><linearGradient id="J" gradientUnits="userSpaceOnUse" x1="860.90393" x2="910.54962" xlink:href="#j" y1="585.06635" y2="585.06635"/><linearGradient id="K" gradientUnits="userSpaceOnUse" x1="481.47507" x2="481.47507" xlink:href="#j" y1="670.78259" y2="756.23853"/><linearGradient id="L" gradientUnits="userSpaceOnUse" x1="890.9292" x2="920.78436" xlink:href="#j" y1="666.36304" y2="696.21826"/><path d="m1056.8678 428.87656h202.69745v208.6001h-202.69745z" fill="#64a8f8"/><path d="m1136.17627 601.74066 26.17248-139.75735 24.48987-6.13199-30.19336 141.24609z" fill="#002f94"/><path d="m1139.0437 497.396c4.11035 14.67896-4.98438 30.05829-20.3136 34.35083-15.32922 4.29248-31.08826-4.12744-35.19861-18.80634-4.11035-14.67896 4.98425-30.05835 20.3136-34.35083 15.32923-4.29251 31.08826 4.12738 35.19861 18.80634zm-33.71948.09149c-6.6167 1.85281-10.47864 8.71869-8.62585 15.33539s8.71875 10.47858 15.33545 8.62579c6.61658-1.85278 10.47852-8.71869 8.62573-15.33539s-8.71863-10.47861-15.33533-8.62579z" fill="#002f94"/><path d="m1206.79517 523.03119c15.09106-2.15112 29.14587 8.88074 31.39233 24.64038 2.24646 15.75958-8.16614 30.27911-23.2572 32.4303-15.09106 2.15112-29.14587-8.88074-31.39221-24.64038-2.24646-15.75959 8.16613-30.27912 23.25708-32.4303zm-4.3285 33.44067c.96973 6.80249 7.27026 11.53088 14.07263 10.56122 6.80249-.9696 11.53088-7.27014 10.56128-14.07263-.96973-6.80243-7.27026-11.53082-14.07263-10.56122-6.80249.96967-11.53088 7.2702-10.56128 14.07263z" fill="#002f94"/><path d="m515.51556 828.85364-302.51462-.04059c-9.94113-.00134-17.99892-8.06128-17.99759-18.00238l.07899-588.80292c.00133-9.94112 8.06129-17.99892 18.00241-17.99757l302.51459.04057c9.9411.00134 17.9989 8.06129 17.99762 18.00243l-.07904 588.80286c-.00126 9.94114-8.06125 17.99894-18.00236 17.9976z" fill="#002f94"/><path d="m533.59393 223.89647-.07123 530.9754c-.0025 18.65564-15.12787 33.77698-33.78351 33.77448l-270.95404-.03638c-18.65562-.0025-33.77698-15.12787-33.77448-33.78351l.07123-530.9754c.00206-15.27725 12.3792-27.63571 27.64108-27.63367l283.2373.03799c15.26189.00205 27.63573 12.36384 27.63365 27.64109z" fill="url(#b)"/><path d="m416.39975 196.24338c-11.86871-.0016-21.49704 9.6088-21.49863 21.49284l-.00125 9.41188c-.00116 8.44475-3.42612 16.09061-8.95447 21.61749-5.52838 5.5265-13.15939 8.9494-21.60416 8.94827-16.8895-.00226-30.56839-13.68446-30.56613-30.57396l.00125-9.41188c.00162-11.88406-9.62415-21.49702-21.49283-21.49863z" fill="#002f94"/><circle cx="364.33841" cy="231.27634" fill="url(#c)" r="13.22047"/><circle cx="364.33841" cy="231.27634" fill="#002f94" r="5.1582"/><path d="m533.59698 223.89653-.07001 530.97992c-.01001 18.65015-15.13 33.77002-33.79001 33.77002l-270.95001-.04004c-18.65997 0-33.77997-15.11987-33.77997-33.77991l.06995-530.97998c.01001-15.27002 12.38-27.63 27.65002-27.63l89.55998.00995h.09998c11.82001.05005 21.39001 9.65002 21.39001 21.5v9.41003c0 16.89001 13.66998 30.58 30.56 30.58 8.45001 0 16.08002-3.42003 21.60999-8.95 5.53003-5.53003 8.95001-13.16998 8.95001-21.62v-9.41003c.01001-11.88 9.63-21.48999 21.5-21.48999l89.56.01001c15.27007.00001 27.64006 12.35999 27.64006 27.64002z" fill="url(#d)"/><path d="m228.78911 773.60693c-10.35742 0-18.78223-8.4248-18.78223-18.78027l.07031-530.97852c.00439-6.96191 5.6792-12.63184 12.6499-12.63184l89.65965.00977c3.49463.01562 6.39014 2.93066 6.39014 6.5v9.41016c0 25.13281 20.43799 45.58006 45.56006 45.58006 12.17139 0 23.61279-4.73926 32.2168-13.34375 8.604-8.60252 13.34326-20.04784 13.34326-32.22557v-9.41016c.00293-3.57324 2.91895-6.49023 6.5-6.49023l89.55859.00977c6.97122 0 12.64114 5.6709 12.64114 12.64062l-.06982 530.97754c-.00537 10.34766-8.43509 18.77051-18.78958 18.77148h.00195z" fill="url(#e)"/><path d="m461.55453 609.82672h-196.74285c-11.0457 0-20-8.95428-20-20v-196.74283c0-11.04568 8.9543-20 20-20h196.74286c11.04568 0 20 8.95432 20 20v196.74283c-.00001 11.04572-8.95432 20-20.00001 20z" fill="#d2f1ff"/><path d="m255.17218 589.46619v-196.02161c0-5.52283 4.47714-10 10-10h196.02161c5.52286 0 10 4.47717 10 10v196.02161c0 5.52289-4.47714 10-10 10h-196.02161c-5.52286 0-10-4.47712-10-10z" fill="url(#f)"/><path d="m287.78357 551.54102c1.49121.21301 7.13654-3.40851 7.13654-3.40851v-65.4006l-7.13654-.6391-4.45593 50.70145z" fill="#002f94"/><path d="m272.88913 473.99762c4.70599 7.56729 6.60397 21.72919 6.60397 29.1853v43.2453l8.29047 5.11279v-69.44821z" fill="#8bd2ff"/><path d="m459.58521 551.02869c-3.09332 6.43445-31.32971 10.77698-55.17395 9.00226-17.21146-1.28894-32.14261-5.76038-33.65955-14.96088-2.6868-16.28949-37.1395-55.63986-49.49292-73.53549-3.69806-5.35376-4.89774-11.53052-4.54083-17.81625v-.00992c.83286-14.74277 10.21188-30.08038 16.03171-36.80243.45602-.51556.88235-.94186 1.2988-1.2988 4.24335-3.5791 6.84091 1.23932 10.40024 6.55344 24.22098 36.12827 50.69257 76.14297 76.92618 91.88712 31.64696 18.9862 43.74251 25.48021 38.21032 36.98095z" fill="#8bd2ff"/><path d="m415.54187 553.1582c-3.64441 0-7.20804-.12787-10.59058-.37909-18.85144-1.41229-26.58145-6.20312-27.02438-8.89197-2.06479-12.5191-17.04144-32.59863-36.40552-57.54803-5.6102-7.22845-10.90881-14.05569-14.27759-18.93622-2.46466-3.56763-3.5632-8.03268-3.26538-13.27274l.01154-.20593c.70749-11.30383 7.46326-23.55042 12.68378-30.32526.30447.45093.59964.89835.85706 1.28891.28629.4332.57788.87439.8757 1.31912l1.57431 2.34882c24.87219 37.11166 50.59167 75.48648 77.65201 91.72678l4.43979 2.6604c13.52527 8.09839 23.29697 13.94916 28.31421 18.54382 3.47751 3.18414 3.50458 4.4198 2.92139 5.79218-3.11802 2.21924-17.61934 5.87921-37.76634 5.87921z" fill="url(#h)"/><path d="m404.41125 560.03094c-17.21146-1.28894-32.14261-5.76038-33.65955-14.96088-2.6868-16.28949-37.1395-55.63986-49.49292-73.53549-3.69806-5.35376-4.89774-11.53052-4.54083-17.81625 24.84561 31.32965 55.80847 61.1424 81.93301 83.27142 12.62107 10.68781 7.882 20.01728 5.76029 23.0412z" fill="#64a8f8"/><path d="m398.14951 564.10809c-5.3284 11.07739-85.21014 15.97711-88.83188-5.96136-2.68665-16.28333-24.07397-66.25647-36.42938-84.14856-12.35547-17.89621 4.52814-37.16031 7.44757-49.95673 1.71494-7.50882 7.62726-11.50211 15.74847.58386 24.26181 36.09052 56.32635 75.00247 78.15872 95.87115 26.67896 25.50715 29.4473 32.10951 23.9065 43.61164z" fill="#8bd2ff"/><path d="m354.11505 566.2392c-24.62051 0-37.00467-5.53564-37.6225-9.27637-2.9072-17.62244-25.05771-68.90427-37.6203-87.09659-6.1113-8.85205-2.64709-17.94376 3.33594-30.80371 2.17883-4.68436 4.2374-9.10861 5.21741-13.40411.01907-.08435.0386-.16602.05856-.24503.66489.68884 1.52682 1.72391 2.56412 3.26761 23.69464 35.2475 56.25021 75.16425 79.16992 97.07242 26.05417 24.90948 25.47937 28.67773 22.67029 34.59241-3.08652 2.21917-17.60022 5.89337-37.77344 5.89337z" fill="url(#i)"/><path d="m374.24161 520.49213c-10.2218 5.14557-18.99606 7.93158-26.51123 8.92297-19.40259 2.55792-30.34811-6.77148-35.64246-17.97488-4.45157-9.42859-15.3674-33.79831-23.16013-55.00534-5.0564-13.7811-8.79413-26.22372-8.59589-32.39047 1.71524-7.51517 7.63416-11.50079 15.75409.5849 24.26069 36.08862 56.32398 75.00283 78.15562 95.86282z" fill="#002f94"/><path d="m421.37155 514.04785c-8.52142 4.04633-23.64523 6.39008-38.55667-12.78421-14.91559-19.17014-50.91629-73.7081-48.76855-85.65524 4.24643-3.58493 6.83917 1.24127 10.40372 6.55338 24.21682 36.12316 50.68758 76.14572 76.9215 91.88607z" fill="#002f94"/><path d="m347.73038 529.4151c-19.40259 2.55792-30.34811-6.77148-35.64246-17.97488-4.45157-9.42859-15.3674-33.79831-23.16013-55.00534 7.70349.14874 14.35611 3.96579 20.17587 12.87888 8.02082 12.26415 14.91139 42.0769 38.62672 60.10134z" fill="url(#k)"/><path d="m312.59357 482.82715-11.72879 3.30151c-3.01398-7.14835-6.12714-14.88159-10.56879-26.02542 5.08612.92203 12.41284 4.85803 16.31915 10.83649 1.9234 2.93469 3.83689 7.07892 5.97843 11.88742z" fill="url(#m)"/><path d="m269.49634 328.77557c-6.24374-10.88989-20.10181-12.47537-24.06126-2.13199-4.33766 11.33142 15.07637 25.73642 23.7567 31.06644 7.25824-4.10992 28.17444-18.38846 23.11536-30.15274-4.84098-11.25708-19.15593-10.81232-22.8108 1.21829z" fill="url(#n)"/><path d="m269.25003 354.20261c-10.57129-6.81543-23.96483-18.77637-21.01317-26.48633 1.67529-4.37695 5.19385-5.03027 7.14209-5.03027 4.35448 0 8.87401 2.97656 11.51463 7.58203l3.4541 6.02539 2.01904-6.64551c1.354-4.45703 4.64453-7.22559 8.58789-7.22559 3.68115 0 6.89453 2.3623 8.59668 6.32031 3.35304 7.79786-10.10351 19.32715-20.30126 25.45997z" fill="url(#o)"/><path d="m477.20209 333.40427-.05963 6.147-3.25214 14.98233c-.25064 1.15295-1.27203 1.97375-2.45007 1.97375h-27.61478c-1.17801 0-2.1994-.8208-2.45004-1.97375l-3.74713-17.27573-.01254-.05011-.82715-3.8035h40.41348z" fill="#8bd2ff"/><path d="m438.92499 334.65442c-.05997 0-.12085-.0043-.18234-.01285-.68475-.10037-1.159-.73618-1.05923-1.4209l1.82751-12.53958c.00458-.03183.01038-.06244.01712-.09363.70923-3.16367 3.46899-5.37332 6.71161-5.37332h22.78568c3.24258 0 6.00269 2.20966 6.71191 5.37332.00671.03119.01254.0618.01712.09363l1.82721 12.53958c.09973.68472-.37451 1.32114-1.05923 1.4209-.68994.09299-1.32117-.37573-1.4209-1.05988l-1.81985-12.48941c-.46631-1.98752-2.20999-3.3717-4.25626-3.3717h-22.78568c-2.04599 0-3.78967 1.38419-4.25595 3.3717l-1.82016 12.48941c-.09089.62357-.62632 1.07273-1.23856 1.07273z" fill="#64a8f8"/><path d="m443.86069 335.7627 4.08661 17.85382v-17.85382z" fill="#64a8f8"/><path d="m467.44037 335.7627v17.85382l3.84143-17.85382z" fill="#64a8f8"/><path d="m455.70163 335.90573 1.87982 17.85385 2.10462-17.85385z" fill="#64a8f8"/><path d="m478.47714 333.40427-1.33469 6.147c-8.19611-.84589-23.80499-1.89236-39.51416-2.2934h-.10657l.09402-.05011 5.5643-3.12061 21.5304-.68289h13.7667z" fill="#002f94"/><path d="m478.13458 330.15106c-13.89502-.79196-27.57336-.82336-41.01221-.01367-1.87527.11301-3.33234 1.67926-3.33234 3.55795 0 2.03418 1.69904 3.64783 3.73135 3.56055 13.55551-.58224 26.96686-.59048 40.22925-.00552 2.02783.08942 3.72443-1.51907 3.72443-3.54886.00001-1.87955-1.46401-3.44348-3.34048-3.55045z" fill="#d2f1ff"/><path d="m419.87439 692.75171h-116.02444c-14.3652 0-26.0105-11.64526-26.0105-26.0105v-.00006c0-14.36517 11.64529-26.0105 26.0105-26.0105h116.02444c14.3652 0 26.0105 11.64532 26.0105 26.0105v.00006c0 14.36524-11.6453 26.0105-26.0105 26.0105z" fill="#64a8f8"/><path d="m532.91571 428.87656h528.84589v208.6001h-528.84589z" fill="#8bd2ff" transform="matrix(-1 -0 0 -1 1594.67737 1066.35315)"/><path d="m559.91571 610.47705v-181.60049h474.84576v181.60049z" fill="url(#p)"/><path d="m1026.61682 632.13898h303.38318v196.71457h-303.38318z" fill="#002f94"/><path d="m817.46234 632.13898h212.81813v196.71457h-212.81813z" fill="#2254d1" transform="matrix(-1 -0 0 -1 1847.7428 1460.99255)"/><path d="m423.73914 632.13898h398.16333v196.71457h-398.16333z" fill="#d2f1ff"/><g clip-path="url(#q)" fill="#8bd2ff"><path d="m498.94144 744.26416c21.71976 6.77734 32.65042-3.84863 50.10159-23.21094 15.5835-17.29004 34.97705-38.80762 69.82666-38.80762 29.07812 0 47.20068 23.67578 64.72656 46.57227 18.6416 24.35352 36.24902 47.35645 66.22998 47.35645 35.8374 0 47.84619-29.7373 60.56055-61.22168 11.91602-29.50781 25.42188-62.95215 62.30908-62.95215v18c-23.54834 0-32.67627 19.64258-45.61865 51.69238-6.80127 16.8418-13.8335 34.25586-25.04541 47.95996-13.49951 16.5-30.57617 24.52148-52.20557 24.52148-38.87061 0-60.99951-28.90918-80.52295-54.41602-16.22949-21.20215-30.24561-39.5127-50.43359-39.5127-26.84082 0-41.22607 15.96094-56.45557 32.8584-16.42725 18.22754-35.04736 38.88379-68.83401 28.34375z"/><path d="m611.76965 624.01379h10v64.4301h-10z"/><path d="m697.54358 627.34784h10v133.04451h-10z"/><path d="m642.36969 703.54016h10v133.04451h-10z"/><path d="m568.3241 715.23663h5v133.04451h-5z"/><path d="m784.91028 569.00348h5v170.57069h-5z" transform="matrix(-0 1 -1 -0 1441.6991 -133.12151)"/><path d="m740.13354 718.47601h5v188.12424h-5z" transform="matrix(-0 1 -1 -0 1555.17163 69.90459)"/><path d="m588.68854 697.28662c-10.15332 0-23.46045-3.70312-35.76465-10.44727-24.59863-13.48535-38.70654-35.16895-38.70654-59.49121h10c0 28.14746 20.99756 43.86035 33.51367 50.72168 16.77686 9.19824 33.34668 10.84473 37.84033 7.97949l5.37891 8.42969c-2.9751 1.89844-7.23243 2.80762-12.26172 2.80762z"/></g><path d="m532.91571 428.87656h528.84589v-45.1456c0-23.67206-18.33582-43.34888-41.95709-44.89874-144.03534-9.45071-292.47943-8.75421-444.56274.3183-23.77057 1.41803-42.32605 21.11612-42.32605 44.92896v44.79708z" fill="#8bd2ff"/><path d="m532.91571 384.07947h528.84589l30 44.79709h-588.84589z" fill="#d2f1ff"/><path d="m551.98627 488.82608h-.00012c-27.10083 0-49.07043-21.96957-49.07043-49.07043v-10.87909h98.14099v10.87909c-.00001 27.10086-21.96961 49.07043-49.07044 49.07043z" fill="url(#r)"/><path d="m650.12726 488.82608h-.00012c-27.10083 0-49.07043-21.96957-49.07043-49.07043v-10.87909h98.14099v10.87909c-.00001 27.10086-21.96961 49.07043-49.07044 49.07043z" fill="url(#t)"/><path d="m748.26825 488.82608h-.00012c-27.10083 0-49.07043-21.96957-49.07043-49.07043v-10.87909h98.14099v10.87909c-.00001 27.10086-21.96961 49.07043-49.07044 49.07043z" fill="url(#u)"/><path d="m846.40918 488.82608h-.00006c-27.10089 0-49.07043-21.96957-49.07043-49.07043v-10.87909h98.14099v10.87909c0 27.10086-21.96961 49.07043-49.0705 49.07043z" fill="url(#v)"/><path d="m944.55017 488.82608h-.00006c-27.10089 0-49.07043-21.96957-49.07043-49.07043v-10.87909h98.14093v10.87909c0 27.10086-21.96955 49.07043-49.07044 49.07043z" fill="url(#w)"/><path d="m1042.69116 488.82608h-.00012c-27.10083 0-49.07043-21.96957-49.07043-49.07043v-10.87909h98.14099v10.87909c-0 27.10086-21.96961 49.07043-49.07044 49.07043z" fill="url(#x)"/><circle cx="571.72095" cy="361.78577" fill="#f04af4" r="9.67203"/><circle cx="602.34314" cy="361.78577" fill="#4480e6" r="9.67203"/><circle cx="632.96527" cy="361.78577" fill="#d2f1ff" r="9.67203"/><path d="m478.94861 791.93396h71.98146v22.84295h-71.98146z" fill="#8bd2ff"/><path d="m587.92688 725.7804h38.1166v29.88643h-38.1166z" fill="#64a8f8"/><path d="m723.05402 702.72742h52.20166v48.71991h-52.20166z" fill="#64a8f8"/><path d="m723.05402 669.17145h22.0151v20.54674h-22.0151z" fill="#64a8f8"/><path d="m631.89435 647.98523h22.0151v20.54674h-22.0151z" fill="#8bd2ff"/><path d="m573.40094 650.61487h22.0151v20.54674h-22.0151z" fill="#64a8f8"/><path d="m520.73987 695.74237h18.86529v18.86529h-18.86529z" fill="#8bd2ff"/><path d="m759.72083 669.17145h39.23571v20.54674h-39.23571z" fill="#8bd2ff"/><path d="m653.94995 661.25873h44.76647v18.21955h-44.76647z" fill="#64a8f8" transform="matrix(-0 1 -1 -0 1346.70166 -5.96468)"/><path d="m600.05731 768.66644h25.98617v29.88643h-25.98617z" fill="#8bd2ff"/><path d="m943.3609 803.13672c22.13165-5.84454 50.52545-24.25024 58.039-39.69708 5.36884-27.34216 4.58008-57.56073-1.72961-85.33112-29.70831 6.19653-46.27142 18.58789-56.7876 31.05853-7.09845 16.41419-11.92596 71.35804.47821 93.96967z" fill="#64a8f8"/><path d="m999.66205 678.1123c-7.87549 11.245-38.11249 24.62445-56.77844 31.05725-37.07501 3.27069-63.09271 6.73907-91.49182 2.25299 16.61066-13.71552 47.58881-27.91492 65.46423-33.95258 7.164-.9585 16.41296-1.67981 26.30426-2.06519.21741-.00989.43481-.01978.65216-.02966 1.24506-.04932 2.5-.08893 3.76483-.11859 0 0 .00989.00989.00989 0 1.25494-.03955 2.51971-.06909 3.79437-.08887 17.93475-.3557 36.66992.43483 48.28052 2.94465z" fill="#8bd2ff"/><path d="m947.57727 675.25653c-12.59882 6.18579-32.62842 17.69763-55.37531 29.88135 19.89124-13.60669 38.43854-24.02161 50.95831-29.73309.21741-.00989.43481-.01978.65216-.02966 1.24507-.04932 2.50001-.08894 3.76484-.1186z" fill="#002f94"/><path d="m851.39154 711.41455c-4.12769 27.42969-2.89197 65.85413 6.83551 87.51733 20.36969 6.43488 63.62317 9.58618 85.13385 4.20483 9.24927-26.55176 5.5686-78.22235-.47821-93.96967-13.13721-4.43004-72.29907-7.21709-91.49115 2.24751z" fill="#8bd2ff"/><path d="m851.39154 711.41455c8.54291-2.00616 40.81305-6.27509 40.81305-6.27509 13.45276.56934 50.6781 4.02759 50.6781 4.02759-62.47473-2.41186-91.49115 2.2475-91.49115 2.2475z" fill="#002f94"/><path d="m909.11896 798.52045c-16.93457.00049-34.58301-1.83789-44.55762-5.85352-.5127-.20654-.76074-.78906-.55469-1.30127.20703-.51221.79395-.75928 1.30078-.5542 15.1416 6.09619 48.46875 7.05371 69.31152 4.1333 5.77246-17.69336 3.03027-63.82471-1.94922-77.40479-.19043-.51855.0752-1.09277.59375-1.2832.52246-.18799 1.09277.07666 1.2832.59473 5.11914 13.95703 7.90137 61.7666 1.76758 79.32568-.12305.35205-.43164.60645-.80078.66016-7.57519 1.10205-16.87401 1.68311-26.39452 1.68311zm26.25097-2.67285h.00977z" fill="#64a8f8"/><path d="m641.36542 565.86151-6.03247-6.42126 2.6087-3.71741 6.97827-.10046 2.90448 3.81787z" fill="#d2f1ff"/><path d="m641.36542 565.86151-2.57593-6.60773-3.45654.18647z" fill="#8bd2ff"/><path d="m647.8244 559.44025h-4.2088l-2.25018 6.42126z" fill="#8bd2ff"/><path d="m638.78949 559.25378 2.4776-3.57885 2.34851 3.76532z" fill="#8bd2ff"/><circle cx="1056.37561" cy="283.60455" fill="url(#y)" r="113.49289"/><path d="m1120.47083 202.40547c-17.63916-13.95312-39.91064-22.29419-64.0957-22.29419-57.06537 0-103.49213 46.42676-103.49213 103.49315 0 24.18457 8.34082 46.4563 22.29395 64.09509z" fill="url(#z)"/><g fill="#002f94"><ellipse cx="1037.22241" cy="269.13922" rx="15.59976" ry="22.92225"/><path d="m1126.79578 257.22214c-.32324 0-.64062-.15674-.83398-.44629-6.80762-10.23146-17.5459-17.22853-27.35645-17.82521-5.83398-.35645-10.79395 1.65527-14.35645 5.81201-.3584.41992-.99023.46777-1.40918.1084-.41992-.35938-.46875-.99072-.1084-1.41016 3.98535-4.65137 9.53027-6.90039 15.99512-6.50684 10.41406.63379 21.75879 7.97949 28.90137 18.71436.30566.45949.18066 1.08009-.2793 1.38625-.16992.11328-.3623.16748-.55273.16748z"/><path d="m1003.8299 255.48872c-.07031 0-.14258-.00732-.21387-.02295-.54004-.11768-.88184-.65088-.76367-1.19043 4.80469-22.00293 17.66992-33.32861 27.5899-34.54053 6.41992-.78369 11.91406 2.43408 15.06836 8.83008.24512.49561.04102 1.09521-.4541 1.33936-.49609.24365-1.09473.04053-1.33887-.45459-2.79688-5.66992-7.42578-8.41406-13.0332-7.72998-9.24127 1.12939-21.28131 11.93213-25.87897 32.98242-.10156.46778-.51562.78662-.97558.78662z"/><path d="m1092.80261 340.79782c-4.34082 0-9.5791-2.12402-15.01074-6.22656-.44043-.33252-.52832-.95996-.19531-1.40039.33203-.44092.95801-.52881 1.40039-.19531 7.60938 5.74707 14.61328 7.37109 18.7373 4.34326 2.26367-1.66162 3.14355-4.57666 2.18848-7.25391-1.41113-3.95557-6.02734-6.12109-12.3457-5.7915-.46582.02832-.92285-.30566-1.02832-.78271s.14941-.96045.60254-1.14307c7.48926-3.02197 11.93262-6.97266 11.88672-10.56836-.02441-1.86816-1.375-3.48291-3.61328-4.31982-4.24902-1.5874-11.17188-.23486-17.06641 6.37109-.36719.4126-1 .44727-1.41211.08008-.41211-.36768-.44824-1-.08008-1.41211 6.52246-7.31104 14.37305-8.73926 19.25879-6.9126 3.04102 1.13721 4.87695 3.44287 4.91211 6.16797.04883 3.77148-3.2793 7.55615-9.27051 10.67725 5.04395.67822 8.67676 3.14111 10.04004 6.96191 1.25391 3.51611.09277 7.34912-2.88867 9.53809-1.70508 1.25146-3.78028 1.8662-6.11524 1.86669z"/><path d="m1122.68542 286.3945c-.27637 0-.55176-.11426-.74902-.33789-4.83594-5.47461-11.72852-8.83789-18.90918-9.22803-5.84863-.31543-11.20215 1.32275-14.68945 4.5-.40918.37256-1.04102.34326-1.41309-.06592-.37207-.4082-.34277-1.04053.06543-1.4126 3.87988-3.53564 9.7627-5.36816 16.14551-5.01855 7.71191.41895 15.11133 4.02734 20.29883 9.90088.36621.41406.32715 1.0459-.08691 1.41162-.19044.16797-.42676.25049-.66212.25049z"/></g><path d="m1174.96277 310.84299c-7.17236-12.50946-23.09131-14.33072-27.63965-2.44907-4.98279 13.0166 17.31848 29.5639 27.28979 35.68658 8.33765-4.72116 32.3645-21.12317 26.55298-34.63699-5.56091-12.93124-22.00476-12.42035-26.20312 1.39948z" fill="#d2f1ff"/><path d="m1140.53992 332.88181c-4.76465 0-9.38965-3.40625-13.89648-6.72607-6.00391-4.42236-12.21289-8.99414-18.87402-6.00098-.50781.22607-1.0957.00146-1.32227-.50244-.22656-.50342-.00195-1.0957.50195-1.32178 7.72852-3.47314 14.71484 1.67432 20.88086 6.21484 5.61816 4.13965 10.92969 8.05078 16.13867 5.53516.49707-.23975 1.09668-.03076 1.33496.46631.24023.49756.03125 1.09521-.46582 1.33545-1.44531.69726-2.87793.99951-4.29785.99951z" fill="#002f94"/><g clip-path="url(#A)"><path d="m1419.71936 707.95319-222.02539 165.91461c-11.06006 8.26501-26.7262 5.99908-34.99121-5.06104l-94.87219-126.95703c-8.26501-11.06012-5.99902-26.72626 5.06104-34.99127l222.02539-165.91461c11.06006-8.26495 26.7262-5.99908 34.99121 5.06104l94.87219 126.95709c8.26501 11.06011 5.99902 26.72619-5.06104 34.99121z" fill="#2254d1"/><path d="m1182.74756 868.84296c-4.78809 0-9.17432-2.19434-12.03418-6.02246l-94.87256-126.95703c-2.39844-3.20898-3.40332-7.16113-2.82959-11.12598.57373-3.96582 2.65674-7.46973 5.86621-9.86816l222.02539-165.91504c2.61426-1.95312 5.7124-2.98633 8.95996-2.98633 4.78809 0 9.1748 2.19531 12.03516 6.02344l94.87207 126.95703c2.39844 3.20898 3.40332 7.16016 2.82959 11.12598s-2.65674 7.46973-5.86621 9.86816l-222.02539 165.91406c-2.61475 1.9541-5.71289 2.98633-8.96045 2.98633z" fill="url(#B)"/><g fill="#d2f1ff"><path d="m1286.74011 598.36475c-.53137 1.20233-.04016 2.58661 1.104 3.23376 2.4541 1.38824 4.66919 3.2959 6.45837 5.69006 1.78906 2.3941 2.99084 5.05896 3.62683 7.80585.29639 1.28058 1.48486 2.14386 2.78845 1.97498 1.46777-.19012 2.4856-1.59955 2.15967-3.04321-.77747-3.44269-2.2771-6.76355-4.52136-9.76672-2.24426-3.00336-5.00415-5.38251-8.08545-7.10352-1.29223-.72175-2.93224-.14496-3.53051 1.2088z"/><path d="m1291.54126 587.53796-.00024.00067c-.71265 1.61249-.04761 3.47247 1.49524 4.32526 3.84912 2.12756 7.31177 5.08582 10.10315 8.82111 2.79895 3.74548 4.64966 7.89691 5.59729 12.18726.38025 1.72186 1.97583 2.88721 3.72461 2.66071 1.93591-.25079 3.29443-2.09576 2.88062-4.00348-1.13696-5.24103-3.38416-10.31537-6.79773-14.88336s-7.64319-8.16107-12.34729-10.73639c-1.71229-.93739-3.86659-.1573-4.65565 1.62822z"/><path d="m1296.65466 576.03241-.00098.00214c-.71912 1.62195-.05847 3.51923 1.51465 4.33966 5.73035 2.98871 10.89856 7.27814 15.0238 12.79852 4.12646 5.52191 6.77832 11.67798 8.01904 18.03223.34009 1.74194 1.97302 2.91431 3.73291 2.68414 1.92358-.25165 3.26245-2.07288 2.88843-3.97644-1.4353-7.30548-4.48401-14.42029-9.2356-20.77875-4.75159-6.35864-10.71094-11.29834-17.31042-14.74481-1.7196-.89807-3.84557-.13019-4.63183 1.64331z"/><path d="m1301.98877 563.99164c-.90979 2.04376-.05261 4.41779 1.93042 5.45325 7.31067 3.8175 13.90381 9.29797 19.1637 16.33673 5.25989 7.03864 8.64758 14.91449 10.23718 23.00739.43115 2.19513 2.46509 3.68988 4.68286 3.39642 2.39844-.31738 4.06409-2.58844 3.60168-4.96332-1.81409-9.31732-5.70728-18.38171-11.76575-26.48907-6.05847-8.10748-13.64832-14.40955-22.0697-18.78925-2.14648-1.11634-4.79638-.16242-5.78039 2.04785z"/></g><path d="m1163.04858 752.79095-27.01306 20.18628c-3.53918 2.64478-8.55237 1.91968-11.19714-1.61951l-13.1604-17.61102c-2.64478-3.53925-1.91968-8.55243 1.61951-11.1972l27.01318-20.18628c3.53918-2.64484 8.55237-1.91974 11.19714 1.61951l13.16028 17.61102c2.6449 3.53925 1.9198 8.55243-1.61951 11.1972z" fill="url(#C)"/><path d="m1199.84656 777.96844-44.96094 33.59827-11.25647-15.06341 44.96082-33.59827z" fill="url(#D)"/><path d="m1255.40295 736.45233-44.96081 33.59827-11.25659-15.06342 44.96093-33.59826z" fill="url(#E)"/><path d="m1310.95947 694.93622-44.96093 33.59826-11.25647-15.06341 44.96081-33.59827z" fill="url(#F)"/><path d="m1366.51587 653.4201-44.96082 33.59827-11.25659-15.06341 44.96094-33.59827z" fill="url(#G)"/><path d="m1304.4176 768.20776-115.81079 86.54285c-1.56128 1.16675-3.77271.84692-4.93958-.71442-1.16675-1.56134-.8468-3.77283.71448-4.93958l115.81079-86.54285c1.5614-1.16675 3.77283-.84692 4.93958.71448 1.16675 1.56135.84692 3.77278-.71448 4.93952z" fill="#8bd2ff"/><path d="m1288.43604 746.82129-40.56104 30.3103c-1.56128 1.16675-3.77271.84692-4.93945-.71442s-.84692-3.77277.71436-4.93951l40.56104-30.31036c1.56128-1.16675 3.77271-.84686 4.93945.71448 1.16686 1.56134.84691 3.77276-.71436 4.93951z" fill="#8bd2ff"/></g><path d="m641.36542 587.61688c-6.22705 0-11.29346-5.06641-11.29346-11.29297 0-6.22754 5.06641-11.29395 11.29346-11.29395s11.29346 5.06641 11.29346 11.29395c-.00001 6.22657-5.06641 11.29297-11.29346 11.29297zm0-18.58691c-4.02148 0-7.29346 3.27246-7.29346 7.29395s3.27197 7.29297 7.29346 7.29297 7.29346-3.27148 7.29346-7.29297-3.27198-7.29395-7.29346-7.29395z" fill="url(#H)"/><ellipse cx="641.65906" cy="587.43475" fill="#d2f1ff" rx="24.26087" ry="11.73913"/><path d="m665.68079 582.03589c-16.40112 2.1203-32.60901 2.09564-48.63043 0-1.10455 0-2 .89539-2 2v19.48584c0 3.86603 3.13403 7 7 7h38.63043c3.86603 0 7-3.13397 7-7v-19.48584c0-1.10462-.89539-2-2-2z" fill="#64a8f8"/><path d="m755.90222 544.95844-1.85974-1.11847c-1.21838-.73279-2.7702.14478-2.7702 1.56659v41.06451h13.0127v-26.68909c-.00001-6.06964-3.18128-11.69525-8.38276-14.82354z" fill="url(#I)"/><path d="m767.04688 572.35504h-18.5365v32.16669c0 3.31372 2.68634 6 6 6h6.5365c3.31366 0 6-2.68628 6-6z" fill="#64a8f8"/><path d="m748.51038 572.35504h18.53646v4.51455h-18.53646z" fill="#8bd2ff"/><path d="m751.43024 593.92139-9.11829-16.13867-28.0058 15.82318c-2.88507 1.63-3.90247 5.29028-2.2724 8.17529l3.21533 5.69098c1.63007 2.88507 5.29028 3.90247 8.17535 2.2724z" fill="#64a8f8"/><path d="m735.63757 584.70514h18.53646v4.51455h-18.53646z" fill="#8bd2ff" transform="matrix(.49191 .87065 -.87065 .49191 889.51422 -350.31979)"/><path d="m685.97577 537.63885-20.12463 44.27094c-.45715 1.00555-.01251 2.19128.99304 2.64838l12.646 5.7486c3.51941 1.59985 6.70422-.58319 9.26929-3.47565 8.66046-9.76587 13.16046-21.30939 15.98639-35.16742.7724-3.78802.0437-7.66943-3.47571-9.26929l-12.646-5.74866c-1.00556-.45709-2.19129-.01245-2.64838.9931z" fill="#64a8f8"/><path d="m953.47119 602.21655c-22.07996 3.21997-86.11993 2.94-101.44995-1.03003.92999-4.71997 2.23999-10.46997 3.75-16.54999 3.10999-12.59003 7.08997-26.60999 10.27002-35.94 15.64996-8.60999 49.29999-10.81 68.86993-4.22998 4.25 8.01996 9.34003 24.31995 13.12 37.56 3.19 11.19 5.44 20.19 5.44 20.19z" fill="#2254d1"/><path d="m953.47119 602.21655c-22.07996 3.21997-86.11993 2.94-101.44995-1.03003.92999-4.71997 2.23999-10.46997 3.75-16.54999 22.17999 2.56 67.66998 2.06 92.25995-2.60999 3.19 11.19001 5.44 20.19001 5.44 20.19001z" fill="#d2f1ff"/><path d="m848.82166 610.13043c-16.74683 0-35.29956-10.57513-46.2561-17.22729 37.20428 7.04352 67.6853 6.68427 105.07379 6.68427 32.49042 0 89.87793-5.9184 107.87793-11.57898-11.34845 13.47559-36.578 22.51331-62.60864 22.51331-26.03071-.00001-70.04353-.39131-104.08698-.39131z" fill="#2254d1"/><path d="m881.18622 582.93475s-8.2663-7.77716-19.32825-8.12036c-3.80762 8.90302 5.09454 13.89215 3.85925 22.22949 9.94183-2.02759 15.74207-9.10791 15.74207-9.10791 1.97693 4.39014 8.53131 3.80316 9.88361-.30872 0 0 9.11505 6.41077 18.21588 6.17487 3.61658-10.52496-3.91602-14.68518-2.77869-20.68579-7.93622-.58984-16.20905 8.49042-16.20905 8.49042-1.80328-4.10132-8.55511-3.39233-9.38482 1.328z" fill="url(#J)"/><path d="m445.88489 736.36395h71.18032v35.53298h-71.18032z" fill="#2254d1"/><path d="m506.94357 693.8916c0-14.06586-11.40265-25.46851-25.46851-25.46851-14.06589 0-25.46851 11.40265-25.46851 25.46851 0 18.63013 12.21082 42.33484 25.46851 55.28229 15.04667-13.16644 25.46851-36 25.46851-55.28229z" fill="url(#K)"/><circle cx="481.47507" cy="693.71021" fill="#d2f1ff" r="13.69565"/><path d="m898.39142 672.56537c-.27539 0-.55078-.11377-.74805-.33691-1.4248-1.60693-2.76367-3.00732-4.0918-4.28125-.39844-.38232-.41211-1.01514-.0293-1.41357.38281-.39941 1.01465-.41211 1.41406-.02979 1.36719 1.31152 2.74219 2.75 4.20312 4.39844.36621.41309.32812 1.04492-.08496 1.41162-.19042.16845-.42674.25146-.66307.25146z" fill="#d2f1ff"/><path d="m754.62872 789.18011c-.52539 0-.96582-.40967-.99707-.94092-.0332-.55127.3877-1.0249.93945-1.05713 4.0127-.2373 7.85352-.83105 11.41699-1.76514.53516-.13965 1.08105.17969 1.22168.71387.13965.53418-.17969 1.08057-.71387 1.2207-3.69043.96729-7.66309 1.58203-11.80762 1.82666-.01952.00148-.04003.00196-.05956.00196zm-11.77734-.3291c-.04102 0-.08203-.00244-.12305-.00732-3.99414-.49316-7.92188-1.39941-11.67285-2.69336-.52246-.18018-.79883-.74951-.61914-1.27148s.74805-.79932 1.27148-.61914c3.61914 1.24854 7.40918 2.12305 11.26465 2.59863.54883.06787.93848.56689.87012 1.11523-.0625.50635-.49316.87744-.99121.87744zm34.32715-5.75244c-.35547 0-.7002-.18994-.88086-.5249-.2627-.48584-.08105-1.09277.40527-1.35498 3.32324-1.79443 6.48535-4.03711 9.39648-6.6665.40918-.36963 1.04102-.33838 1.41211.07178.37012.41016.33789 1.04248-.07227 1.4126-3.0293 2.73633-6.32227 5.07178-9.78711 6.94189-.15038.08154-.31347.12011-.47362.12011zm-56.48145-1.85498c-.17285 0-.34766-.04443-.50684-.13867-3.28027-1.93506-6.55957-4.27197-9.74902-6.94629-.42285-.35449-.47852-.98535-.12402-1.40869.35547-.42188.98535-.47852 1.40918-.12354 3.10449 2.60352 6.29492 4.87646 9.47949 6.75586.47559.28076.63379.89404.35352 1.36963-.18653.31592-.51953.4917-.86231.4917zm73.97071-13.7041c-.20801 0-.41797-.06494-.59766-.19873-.44238-.33057-.5332-.95752-.20215-1.3999 2.19531-2.93848 4.25391-6.15918 6.29297-9.84473.26758-.48438.87598-.65869 1.35938-.39111.48242.26709.6582.87549.39062 1.35889-2.08301 3.7666-4.19043 7.06201-6.44141 10.07422-.19629.26269-.49707.40136-.80175.40136zm-92.14356-1.30566c-.2666 0-.5332-.10596-.72949-.31592-2.52734-2.69678-5.07031-5.65137-7.77246-9.03271-.34473-.43164-.27441-1.06104.15723-1.40576.43066-.34521 1.06152-.27441 1.40527.15723 2.66895 3.33984 5.17773 6.25537 7.66895 8.91309.37793.40332.35742 1.03613-.0459 1.41357-.19239.18114-.43848.2705-.6836.2705zm-14.87793-18.40821c-.30957 0-.61426-.14258-.80957-.41162-2.37598-3.26465-4.77148-6.66162-6.88574-9.65918-.31836-.45117-.20996-1.0752.24121-1.39355s1.07422-.21094 1.39355.24121c2.10938 2.99121 4.50098 6.38232 6.86816 9.63477.3252.44629.22656 1.07178-.21973 1.39697-.17772.12939-.38378.1914-.58788.1914zm-156.09375-.02881c-.30957 0-.61426-.14307-.81055-.4126-.32422-.44727-.22461-1.07227.22266-1.39697 2.67285-1.93945 5.54785-4.4502 8.79004-7.67529.3916-.38965 1.02441-.38867 1.41406.00391.38965.39111.3877 1.02441-.00391 1.41406-3.36133 3.34473-6.22949 5.84766-9.02637 7.87646-.17675.12842-.3828.19043-.58593.19043zm274.71973-.833c-.13574 0-.27344-.02734-.40527-.08643-.50488-.22412-.73145-.81543-.50781-1.31982 1.42285-3.2002 2.89551-6.76807 4.50195-10.90625.20117-.51514.7793-.77148 1.29492-.57031.51465.19971.76953.7793.57031 1.29395-1.61816 4.16846-3.10352 7.76514-4.53906 10.99512-.16602.37254-.53125.59374-.91504.59374zm-257.67188-15.54248c-.24121 0-.4834-.08643-.6748-.26221-.40723-.37256-.43555-1.00537-.06348-1.4126l1.73828-1.90381c2.03125-2.22607 4.13184-4.52783 6.29102-6.82227.37988-.40234 1.01172-.4209 1.41406-.04248s.4209 1.01123.04297 1.41357c-2.14941 2.2832-4.24414 4.5791-6.27051 6.79932l-1.73926 1.90527c-.19726.21583-.46777.32521-.73828.32521zm125.29785-2.89454c-.30957 0-.61426-.14307-.81055-.4126-2.67188-3.67969-4.93555-6.66748-7.125-9.40381-.34473-.43115-.27441-1.06055.15625-1.40527.43262-.34619 1.06055-.2749 1.40625.15625 2.20801 2.76074 4.49023 5.77246 7.18164 9.47803.32422.44678.22461 1.07227-.22168 1.39648-.17773.12891-.38378.19092-.58691.19092zm141.06153-3.60791c-.11523 0-.23145-.02002-.3457-.06201-.51855-.19092-.7832-.76611-.59277-1.28418l.37207-1.00928c1.24414-3.37939 2.48926-6.76025 3.76562-10.1084.19629-.51562.77441-.77441 1.29102-.57812.51562.19678.77441.7749.57812 1.29102-1.27441 3.34082-2.5166 6.71436-3.75781 10.08643l-.37207 1.00977c-.14942.40429-.53126.65477-.93848.65477zm-249.99903-10.61669c-.26562 0-.53125-.10547-.72754-.31396-.37891-.40234-.36035-1.03516.04199-1.41357 3.11426-2.93506 6.07617-5.47607 9.05664-7.76807.4375-.33789 1.06543-.25537 1.40234.18262.33594.43799.25488 1.06592-.18359 1.40234-2.92578 2.25098-5.83887 4.74951-8.9043 7.63818-.19237.18212-.43944.27246-.68554.27246zm94.02832-4.15918c-.26367 0-.52734-.10352-.72363-.30957-2.91699-3.05762-5.72852-5.64453-8.59473-7.9082-.43262-.34229-.50684-.97119-.16504-1.4043.34277-.43262.97168-.50732 1.40527-.16504 2.94043 2.32227 5.81934 4.9707 8.80176 8.09668.38086.3999.36621 1.03271-.0332 1.41406-.19335.18457-.44238.27637-.69043.27637zm164.52051-7.32569c-.13086 0-.26465-.02637-.39355-.08154-.50684-.21729-.74219-.80518-.52441-1.31299 1.71875-4.00977 3.37891-7.53662 5.0752-10.78271.25586-.48926.8623-.67773 1.34961-.42285.49023.25586.67871.85986.42383 1.34961-1.67285 3.2002-3.31152 6.68164-5.01074 10.64404-.16212.3789-.53127.60644-.91994.60644zm-239.74511-2.7959c-.34766 0-.68457-.18115-.86914-.50439-.27441-.47949-.10742-1.09033.37207-1.36426 3.53027-2.01514 7.17871-3.7251 10.84277-5.08252.52148-.18896 1.09277.07324 1.28516.59082s-.07227 1.09326-.58984 1.28516c-3.5625 1.31885-7.11035 2.98242-10.5459 4.94385-.15626.08886-.32716.13134-.49512.13134zm56.60937-4.2622c-.15039 0-.30371-.03418-.44727-.10596-3.49609-1.75342-7.14551-3.0542-10.84473-3.86475-.54004-.11865-.88086-.65186-.7627-1.19092.11816-.54053.64941-.87988 1.19043-.76318 3.8623.84668 7.66895 2.20312 11.31348 4.03076.49414.24756.69336.84863.44531 1.34229-.17479.3501-.52831.55176-.89452.55176zm-34.5332-3.87354c-.47363 0-.89453-.3374-.98242-.81982-.09961-.54346.25977-1.06445.80371-1.16406 3.84473-.70312 7.85156-1.09717 11.90918-1.1709h.01855c.54395 0 .99023.43604 1 .98193.00977.55225-.42969 1.00781-.98145 1.01807-3.9502.07129-7.84863.45459-11.58691 1.13867-.06055.01074-.12109.01611-.18066.01611zm228.77343-9.93652c-.19531 0-.39355-.05713-.56641-.17676-.45508-.31299-.56934-.93604-.25586-1.39062 2.38281-3.4585 4.9375-6.57471 7.59375-9.26123.3877-.39258 1.02051-.39648 1.41406-.00781.39258.38818.39648 1.021.00781 1.41406-2.57324 2.60303-5.05273 5.62744-7.36914 8.98975-.19335.28173-.50585.43261-.82421.43261zm16.62208-16.54151c-.33105 0-.6543-.16357-.84473-.46338-.29688-.46582-.15918-1.08398.30664-1.38037 3.35059-2.13037 6.9873-3.87207 10.80957-5.17578.52344-.17822 1.0918.1001 1.26953.62354.17871.52246-.10059 1.09082-.62305 1.26904-3.67285 1.25293-7.16602 2.92529-10.38184 4.9707-.16698.10596-.35253.15625-.53612.15625zm33.51757-4.18896c-.15332 0-.30957-.03564-.45605-.11084-3.56348-1.83203-7.13574-2.76465-10.91797-2.85156-.55273-.01221-.99023-.47021-.97754-1.02246.0127-.55273.46973-1.02344 1.02246-.97656 4.09277.09375 7.94824 1.09863 11.78711 3.07227.49121.25244.68457.85498.43262 1.34619-.17774.34521-.52735.54296-.89063.54296z" fill="#d2f1ff"/><path d="m514.8963 753.95941c-.13086 0-.26074-.00098-.3916-.00293-.55273-.00928-.99219-.46436-.9834-1.0166.00879-.54639.45508-.9834 1-.9834h.0166c1.90625.03223 3.8125-.18848 5.6875-.65527.5332-.13232 1.07812.19287 1.21191.72949.13281.53613-.19336 1.07861-.72949 1.21191-1.91601.47608-3.86914.7168-5.81152.7168z" fill="#d2f1ff"/><path d="m828.34723 543.33521c2.94714 6.2807.32275 13.75055-5.89093 16.83649-8.79285 4.367-18.72333 8.76129-29.43762 13.17438-1.19281.55975-2.54498.68066-3.81836.34155l-13.18341-3.51129c-1.67944-.44733-2.54938-2.30121-1.82007-3.87885l5.72485-12.38373c.55292-1.19611 1.51019-2.15869 2.703-2.71844 9.91553-5.20209 19.5722-9.89001 28.97559-14.07465 6.35083-2.82618 13.79407-.07837 16.74695 6.21454zm-43.82221 20.48236c-.63739-1.3584-2.25531-1.94287-3.61371-1.30548-1.3584.63745-1.94287 2.25531-1.30542 3.61371.63739 1.3584 2.25531 1.94287 3.61371 1.30548s1.94288-2.25532 1.30542-3.61371z" fill="#d2f1ff"/><path d="m770.23517 576.34027c-1.9375 0-3.85059-.42871-5.56152-1.28418-.49414-.24707-.69434-.84766-.44727-1.3418.24805-.49414.84863-.69434 1.3418-.44727 2.82324 1.41162 6.3125 1.43359 9.33594.0625 2.7666-1.25586 4.68164-3.44482 5.39062-6.16455.13965-.53516.69336-.85205 1.21973-.71533.53516.13965.85547.68555.71582 1.22021-.85254 3.2666-3.22168 5.99316-6.5 7.48096-1.74805.79346-3.63282 1.18946-5.49512 1.18946z" fill="#8bd2ff"/><path d="m1003.29346 566.92505c-1.651 6.75238-8.40442 10.91693-15.18854 9.40149-10.04486-2.24377-20.43756-4.93091-31.18555-8.07092-1.27997-.31293-2.40851-1.06738-3.18695-2.13062l-8.0592-11.00818c-1.02673-1.4024-.54028-3.39166 1.01764-4.16205l12.22955-6.0473c1.18115-.58411 2.53058-.73279 3.81055-.4198 11.37506 2.20874 21.97809 4.55389 31.46057 7.09711 6.70099 1.79718 10.74975 8.60101 9.10193 15.34027zm-48.99945-14.70276c-1.45758-.35638-2.9281.53632-3.28448 1.9939s.53625 2.92804 1.99384 3.28442c1.45758.35645 2.9281-.53625 3.28448-1.99384s-.53632-2.92803-1.99384-3.28448z" fill="#d2f1ff"/><path d="m952.3797 553.62299c-.37012 0-.72656-.20605-.89941-.56152-1.2334-2.52588-3.54297-4.29395-6.50391-4.97754-3.2373-.74707-6.65234-.03369-9.13867 1.90576-.43652.33984-1.06445.26025-1.40332-.17334-.33984-.43555-.2627-1.06396.17285-1.40381 2.95801-2.30713 7.00391-3.15771 10.81934-2.27734 3.50781.81055 6.37012 3.01514 7.85059 6.04932.24219.49609.03613 1.09473-.45996 1.33691-.14064.06933-.29005.10156-.43751.10156z" fill="#8bd2ff"/><path d="m621.15796 517.53186c2.24792-6.56354 9.32733-10.10846 15.93921-8.00699 9.35638 2.97379 19.5495 6.71884 30.31903 10.99515 1.24658.42694 2.30261 1.28009 2.98212 2.40906l7.0354 11.68909c.89624 1.48914.23273 3.42651-1.38824 4.05353l-12.72437 4.92163c-1.22894.4754-2.58624.50189-3.83276.07495-10.74396-3.15393-20.9444-6.49756-30.61279-10.02679-6.52986-2.38362-9.96992-9.53334-7.7176-16.10963zm45.73938 15.74225c-.48621 1.41956.27045 2.96442 1.69 3.45062s2.96448-.27051 3.45068-1.69006c.48615-1.41956-.27051-2.96442-1.69006-3.45062-1.41955-.48615-2.96448.2705-3.45062 1.69006z" fill="#d2f1ff"/><path d="m688.03595 540.32855c-.41211 0-.79883-.25732-.94336-.66846-1.04688-2.97607-3.53906-5.41895-6.66602-6.53467-2.8623-1.021-5.75977-.77783-8.16113.68311-.47363.28955-1.08789.13818-1.375-.33398-.28711-.47168-.1377-1.08691.33398-1.37396 2.88379-1.75592 6.48145-2.06891 9.87402-.85895 3.68945 1.31641 6.63574 4.21533 7.88086 7.75439.18359.521-.09082 1.0918-.61133 1.27539-.11034.03858-.22167.05713-.33202.05713z" fill="#8bd2ff"/><circle cx="900.19208" cy="675.62598" fill="url(#L)" r="13.25639"/></svg>