<?xml version="1.0" encoding="utf-8"?>
<!-- Generator: Adobe Illustrator 24.3.0, SVG Export Plug-In . SVG Version: 6.00 Build 0)  -->
<svg version="1.1" id="Layer_1" xmlns:serif="http://www.serif.com/"
	 xmlns="http://www.w3.org/2000/svg" xmlns:xlink="http://www.w3.org/1999/xlink" x="0px" y="0px" viewBox="0 0 2500 2500"
	 style="enable-background:new 0 0 2500 2500;" xml:space="preserve">
<style type="text/css">
	.st0{fill-rule:evenodd;clip-rule:evenodd;fill:#FEFEFE;}
	.st1{clip-path:url(#SVGID_2_);}
	.st2{fill-rule:evenodd;clip-rule:evenodd;fill:#F9E8ED;}
	.st3{fill-rule:evenodd;clip-rule:evenodd;fill:#FFB964;}
	.st4{clip-path:url(#SVGID_4_);}
	.st5{fill-rule:evenodd;clip-rule:evenodd;fill:#F37F3E;}
	.st6{fill-rule:evenodd;clip-rule:evenodd;}
	.st7{clip-path:url(#SVGID_6_);}
	.st8{fill-rule:evenodd;clip-rule:evenodd;fill:#8AB8EA;}
	.st9{clip-path:url(#SVGID_8_);}
	.st10{fill-rule:evenodd;clip-rule:evenodd;fill:#5198E1;}
	.st11{fill-rule:evenodd;clip-rule:evenodd;fill:#FFCFCF;}
	.st12{clip-path:url(#SVGID_10_);}
	.st13{fill-rule:evenodd;clip-rule:evenodd;fill:#FFAAB0;}
	.st14{fill-rule:evenodd;clip-rule:evenodd;fill:#A1A2FF;}
	.st15{clip-path:url(#SVGID_12_);}
	.st16{fill-rule:evenodd;clip-rule:evenodd;fill:#7F80E6;}
	.st17{fill-rule:evenodd;clip-rule:evenodd;fill:#F45FA8;}
	.st18{fill-rule:evenodd;clip-rule:evenodd;fill:#FBCF3B;}
	.st19{fill-rule:evenodd;clip-rule:evenodd;fill:#A6BF49;}
	.st20{clip-path:url(#SVGID_14_);}
	.st21{fill-rule:evenodd;clip-rule:evenodd;fill:#68A462;}
	.st22{clip-path:url(#SVGID_16_);}
	.st23{fill:none;}
	.st24{fill:#FFFFFF;}
	.st25{clip-path:url(#SVGID_18_);}
	.st26{fill-rule:evenodd;clip-rule:evenodd;fill:#FA973C;}
	.st27{fill-rule:evenodd;clip-rule:evenodd;fill:#FFFFFF;}
	.st28{clip-path:url(#SVGID_20_);}
	.st29{clip-path:url(#SVGID_22_);}
	.st30{fill-rule:evenodd;clip-rule:evenodd;fill:#F23492;}
	.st31{clip-path:url(#SVGID_24_);}
	.st32{clip-path:url(#SVGID_26_);}
	.st33{clip-path:url(#SVGID_28_);}
	.st34{clip-path:url(#SVGID_30_);}
	.st35{clip-path:url(#SVGID_32_);}
	.st36{clip-path:url(#SVGID_34_);}
	.st37{fill-rule:evenodd;clip-rule:evenodd;fill:#F2CFDA;}
	.st38{clip-path:url(#SVGID_36_);}
	.st39{clip-path:url(#SVGID_38_);}
</style>
<g>
	<g transform="matrix(0.783226,0,0,0.74269,1078.59,849.919)">
		<path class="st0" d="M1054.3,570.1c0-33.7-25.9-61.1-57.9-61.1c-186.6,0-771,0-957.6,0c-32,0-57.9,27.3-57.9,61.1
			c0,139.2,0,478.9,0,618.1c0,33.7,25.9,61.1,57.9,61.1c186.6,0,771,0,957.6,0c32,0,57.9-27.3,57.9-61.1V570.1z"/>
		<g>
			<defs>
				<path id="SVGID_1_" d="M1054.3,570.1c0-33.7-25.9-61.1-57.9-61.1c-186.6,0-771,0-957.6,0c-32,0-57.9,27.3-57.9,61.1
					c0,139.2,0,478.9,0,618.1c0,33.7,25.9,61.1,57.9,61.1c186.6,0,771,0,957.6,0c32,0,57.9-27.3,57.9-61.1V570.1z"/>
			</defs>
			<clipPath id="SVGID_2_">
				<use xlink:href="#SVGID_1_"  style="overflow:visible;"/>
			</clipPath>
			<g class="st1">
				<g transform="matrix(1.21075,0,0,1.27684,-1933.16,-10953.8)">
					<path class="st2" d="M2286.6,8941.3c-51.1,43.2-106.8,132.6-49.2,192.8c24.9,26,59.3,34.6,89.9,51.7
						c54.4,30.3,91.6,79.5,98.9,142.4c2.4,21,1.6,42.3-2,63.1c-4.6,26.1-13.4,51-30.1,71.9c-41.9,52.4-124,40.3-182.9,39.5
						c-107.5-1.5-216.2,8.8-319,41.8c-44.9,14.4-158.1,63.8-131,131.5c30.6,76.5,139.3,87.1,209.2,89.4
						c184.2,6.1,392.5-8.8,534.5-140.4c136.9-126.8,173.9-396.6,88.2-560c-63.1-120.1-169-199.9-309.2-186.7
						c-42.5,4-83.8,17.2-118.7,42.2L2286.6,8941.3z"/>
				</g>
			</g>
		</g>
	</g>
	<g transform="matrix(-0.980233,-0.606545,-0.606545,0.980233,3871.99,1163.09)">
		<path class="st3" d="M1761.4,2057.8l-47,66.1l-187.4,48.4l152.2,93.8l78.1-25l-32.8,53.4l52.9,32.7l114.1-188.7l4.1-28l-83.3-54.9
			L1761.4,2057.8z"/>
		<g>
			<defs>
				<polygon id="SVGID_3_" points="1761.4,2057.8 1714.4,2123.9 1527,2172.3 1679.2,2266.1 1757.2,2241.1 1724.4,2294.5 
					1777.3,2327.2 1891.4,2138.5 1895.4,2110.5 1812.2,2055.7 				"/>
			</defs>
			<clipPath id="SVGID_4_">
				<use xlink:href="#SVGID_3_"  style="overflow:visible;"/>
			</clipPath>
			<g class="st4">
				<path class="st5" d="M1870.4,2110.3c-11.6,18.5-23,37.3-34.5,55.8c-16.1,26-24.2,43.9-55.9,49.8c-20.9,3.9-42.5,2.5-63.6,3.8
					c-26.8,1.6-53.4,5.5-79.8,9.8c-16.3,2.6-40.6-4.6-48.4,12.5c-12.5,27.7,4.4,62.9,19.3,85.6c31.4,48,81.9,83,139.7,86.3
					c78.4,4.6,154-53.1,181.2-125.1c21.2-56,27.8-129.5,15.6-189.3L1870.4,2110.3z"/>
			</g>
		</g>
	</g>
	<g transform="matrix(-0.980233,-0.606545,-0.606545,0.980233,3871.99,1163.09)">
		<path class="st6" d="M1760.1,2056.9c0.3-0.4,0.7-0.6,1.2-0.6l50.8-2.1c0.3,0,0.6,0.1,0.9,0.3l83.3,54.9c0.5,0.3,0.8,0.9,0.7,1.5
			l-4.1,27.9c0,0.2-0.1,0.4-0.2,0.6L1778.6,2328c-0.2,0.4-0.6,0.6-1,0.7c-0.4,0.1-0.8,0-1.2-0.2l-52.9-32.7
			c-0.7-0.5-0.9-1.4-0.5-2.1l30.6-49.9l-74.1,23.8c-0.4,0.1-0.9,0.1-1.3-0.2l-152.2-93.8c-0.5-0.3-0.8-0.9-0.7-1.5
			c0.1-0.6,0.5-1.1,1.1-1.3l186.9-48.3L1760.1,2056.9z M1762.2,2059.3l-46.6,65.5c-0.2,0.3-0.5,0.5-0.9,0.6l-183.9,47.5l148.5,91.5
			l77.4-24.8c0.6-0.2,1.3,0,1.7,0.5c0.4,0.5,0.4,1.2,0.1,1.8l-32,52.1l50.2,31.1l113.1-187.1l3.9-26.7l-82-54.1L1762.2,2059.3z"/>
	</g>
	<g transform="matrix(-0.605613,-0.980809,-0.980809,0.605613,3845.9,2507.81)">
		<path class="st3" d="M1806.8,2198.3l-47,66.1l-187.4,48.4l152.2,93.8l78.1-25l-32.8,53.4l52.9,32.7l114.1-188.7l4.1-28l-83.3-54.9
			L1806.8,2198.3z"/>
		<g>
			<defs>
				<polygon id="SVGID_5_" points="1806.8,2198.3 1759.8,2264.4 1572.4,2312.9 1724.6,2406.6 1802.6,2381.6 1769.8,2435 
					1822.7,2467.8 1936.8,2279 1940.8,2251.1 1857.6,2196.2 				"/>
			</defs>
			<clipPath id="SVGID_6_">
				<use xlink:href="#SVGID_5_"  style="overflow:visible;"/>
			</clipPath>
			<g class="st7">
				<path class="st5" d="M1915.8,2250.8c-11.6,18.5-23,37.3-34.5,55.8c-16.1,26-24.2,43.9-55.9,49.8c-20.9,3.9-42.5,2.5-63.6,3.8
					c-26.8,1.6-53.4,5.5-79.8,9.8c-16.3,2.6-40.6-4.6-48.4,12.5c-12.5,27.7,4.4,62.9,19.3,85.6c31.4,48,81.9,83,139.7,86.3
					c78.4,4.6,154-53.1,181.2-125.1c21.2-56,27.8-129.5,15.6-189.3L1915.8,2250.8z"/>
			</g>
		</g>
	</g>
	<g transform="matrix(-0.605613,-0.980809,-0.980809,0.605613,3845.9,2507.81)">
		<path class="st6" d="M1805.6,2197.4c0.3-0.4,0.7-0.6,1.2-0.6l50.8-2.1c0.3,0,0.6,0.1,0.9,0.3l83.3,54.9c0.5,0.3,0.8,0.9,0.7,1.5
			l-4.1,27.9c0,0.2-0.1,0.4-0.2,0.6L1824,2468.5c-0.2,0.4-0.6,0.6-1,0.7c-0.4,0.1-0.8,0-1.2-0.2l-52.9-32.7
			c-0.7-0.5-0.9-1.4-0.5-2.1l30.6-49.9c-15.9,5.1-74.1,23.8-74.1,23.8c-0.4,0.1-0.9,0.1-1.3-0.2l-152.2-93.8
			c-0.5-0.3-0.8-0.9-0.7-1.5s0.5-1.1,1.1-1.3c0,0,175.8-45.4,186.9-48.3L1805.6,2197.4z M1807.6,2199.8l-46.6,65.5
			c-0.2,0.3-0.5,0.5-0.9,0.6c0,0-158.2,40.9-183.9,47.5l148.5,91.5l77.4-24.8c0.6-0.2,1.3,0,1.7,0.5c0.4,0.5,0.4,1.2,0.1,1.8
			l-32,52.1l50.2,31.1l113.1-187.1l3.9-26.7l-82-54.1L1807.6,2199.8z"/>
	</g>
	<g transform="matrix(1,0,0,1,-17054.6,-12050.6)">
		<path class="st8" d="M17544.4,13227.4c0,0-18.8,268.3,43.3,434.7c0,0-115.2,285.7-121,314.9c-5.9,29.2,1.7,41,1.7,41l-19.9,58.8
			c55.6,43.2,124.4,68,191.7,91.3l23.9-54c0,0,26.2,3.5,48.6-37.4c22.3-40.9,28.6-64.4,28.6-64.4s0.1,85.4,4.5,104
			c4.4,18.5,20.5,29,23.3,36c2.7,7,1.5,55.4,1.5,55.4c64.5,17.2,129.2,18.6,193.8,5l2.4-58.4c0,0,24.4-6.9,32.9-52.6
			c8.5-45.6,34.2-351.3,28.6-427.8c-5.6-76.4-23.3-376.6-82.1-489.9L17544.4,13227.4z"/>
		<g>
			<defs>
				<path id="SVGID_7_" d="M17544.4,13227.4c0,0-18.8,268.3,43.3,434.7c0,0-115.2,285.7-121,314.9c-5.9,29.2,1.7,41,1.7,41
					l-19.9,58.8c55.6,43.2,124.4,68,191.7,91.3l23.9-54c0,0,26.2,3.5,48.6-37.4c22.3-40.9,28.6-64.4,28.6-64.4s0.1,85.4,4.5,104
					c4.4,18.5,20.5,29,23.3,36c2.7,7,1.5,55.4,1.5,55.4c64.5,17.2,129.2,18.6,193.8,5l2.4-58.4c0,0,24.4-6.9,32.9-52.6
					c8.5-45.6,34.2-351.3,28.6-427.8c-5.6-76.4-23.3-376.6-82.1-489.9L17544.4,13227.4z"/>
			</defs>
			<clipPath id="SVGID_8_">
				<use xlink:href="#SVGID_7_"  style="overflow:visible;"/>
			</clipPath>
			<g class="st9">
				<path class="st10" d="M17902.2,13223.6c-42.3,23.2-85,36.8-132.8,41.9c-39,4.1-91-1-111.6,39.7c-31.3,61.6-11,137-6,202
					c5,62.8,9.1,136.8-8.5,198.1c-17,59-58.8,122.1-80.6,184.2c-9.8,27.9-18.9,56.3-24,85.5c-3.2,18-0.9,41-8.7,57.8
					c-8.1,17.4-27.6,25.3-37.4,41.7c-13.7,23-8.4,53.6-32.2,71.1c-16.4,12-45.1,12.7-63.6,5.4c-118.9-46.6-150.6-206.4-153.4-319.2
					c-6.2-240.4,57-674.7,357.8-717.3L17902.2,13223.6z"/>
				<path class="st10" d="M17740.8,14015.9c0,0,86.7-205.1,110.5-277.2c0,0,25.1-81.7,16.8-158.2c-8.5-76.5-31.1-197.5-31.1-197.5
					s90.8,150.6,74.3,280.1c-16.5,129.6-143.6,413.8-168.9,439.5l-10.5-31.6L17740.8,14015.9z"/>
			</g>
		</g>
	</g>
	<g transform="matrix(1,0,0,1,-17054.6,-12050.6)">
		<path class="st6" d="M17544.2,13225.6c-0.9,0.1-1.5,0.8-1.6,1.6c0,0-18.7,268.1,43.2,434.8c-6,15-115.1,286.2-120.9,314.7
			c-5.2,25.8-0.1,38.5,1.5,41.5l-19.7,58.1c-0.3,0.7,0,1.5,0.6,2c55.7,43.3,124.7,68.1,192.2,91.6c0.9,0.3,1.9-0.2,2.2-1l23.3-52.9
			c5.8,0.2,29.1-1.6,49.1-38.3c13.8-25,21.4-43.6,25.3-54.3c0.2,23.7,1,78.9,4.5,93.4c2.7,11.4,9.7,19.8,15.6,26.3
			c3.6,4,6.8,7.2,7.8,9.9c0.9,2,1.2,7.6,1.5,14.4c0.6,16.5,0,40.2,0,40.2c0,0.9,0.5,1.5,1.3,1.8c64.9,17.3,129.8,18.7,194.7,5
			c0.8-0.2,1.4-0.9,1.4-1.7l2.3-57.2c5.2-2.1,25.4-12.7,33-53.5c8.5-45.6,34.2-351.7,28.6-428.3c-5.6-76.5-23.3-377.1-82.2-490.6
			c-0.3-0.7-1-1-1.8-0.9L17544.2,13225.6z M17546.1,13229c25.6-2.8,375.8-40.6,399-43.1c58.2,114,75.7,412,81.3,488.2
			c5.6,76.3-20,381.7-28.6,427.3c-8.3,44.2-31.7,51.1-31.7,51.1c-0.7,0.2-1.2,0.9-1.3,1.6l-2.3,57c-63.4,13.2-126.9,11.8-190.3-4.9
			c0.1-5.4,0.5-24.8,0-39.1c-0.3-7.4-0.9-13.4-1.7-15.6c-1.2-2.9-4.5-6.5-8.5-10.9c-5.5-6.2-12.1-14.1-14.8-24.9
			c-4.4-18.5-4.4-103.5-4.4-103.5c0-0.9-0.7-1.6-1.6-1.7c-0.9-0.2-1.7,0.4-1.9,1.3c0,0-6.2,23.3-28.4,63.9
			c-21.7,39.6-46.8,36.4-46.8,36.4c-0.8-0.1-1.5,0.3-1.9,1l-23.2,52.6c-66.3-23-133.9-47.4-188.7-89.7l19.6-57.6
			c0.2-0.5,0.1-1.1-0.2-1.5c0,0-7.2-11.4-1.5-39.8c5.8-29.2,121-314.7,121-314.7c0.2-0.3,0.2-0.9,0-1.3
			C17530.1,13502.6,17544.6,13250.6,17546.1,13229L17546.1,13229z"/>
	</g>
	<g transform="matrix(1,0,0,1,-17054.6,-12050.6)">
		<path class="st6" d="M17683.5,13227.6c0,0,42.1,334,35.4,408.4c-12.2,135.8-154.4,434.2-154.4,434.2c-0.4,0.9,0,2,0.9,2.4
			c0.9,0.4,2,0,2.4-0.9c0,0,142.4-299.3,154.7-435.4c6.8-74.6-35.5-409.2-35.5-409.2c-0.1-0.9-1-1.6-2-1.5
			C17684.1,13225.8,17683.3,13226.6,17683.5,13227.6z"/>
	</g>
	<g transform="matrix(1.36524,0,0,1.36524,-10851.7,-11806.5)">
		<path class="st11" d="M8920.4,9301.7c0,0,43.3-5.7,64.2-31.9l7-61.2l-35.9-15.1l-56.9,56.6L8920.4,9301.7z"/>
		<g>
			<defs>
				<path id="SVGID_9_" d="M8920.4,9301.7c0,0,43.3-5.7,64.2-31.9l7-61.2l-35.9-15.1l-56.9,56.6L8920.4,9301.7z"/>
			</defs>
			<clipPath id="SVGID_10_">
				<use xlink:href="#SVGID_9_"  style="overflow:visible;"/>
			</clipPath>
			<g class="st12">
				<path class="st13" d="M8920.5,9278.7c6.6-5,13-9.8,17.4-16.9c4.9-7.8,6.1-16.9,10.7-24.6c2.6-4.4,6.5-8.2,10.7-11.1
					c3.1-2.2,6.6-4,10.1-5.4c3.8-1.5,7.8-2.6,11.9-2.9c3.2-0.2,6.4,0.1,9.5,0.8c23.1,5.4,27.9,34.2,24.7,54.1
					c-0.6,4-1.7,7.8-3.1,11.6c-5.4,14.9-15.6,30.1-29.3,38.6c-17.2,10.7-39,13.2-58.7,9.7L8920.5,9278.7z"/>
			</g>
		</g>
	</g>
	<g transform="matrix(1.36524,0,0,1.36524,-10851.7,-11806.5)">
		<path class="st6" d="M8919.2,9302.3c0.2,0.5,0.8,0.9,1.4,0.8c0,0,43.9-5.8,65.1-32.4c0.2-0.2,0.2-0.4,0.3-0.7l7-61.2
			c0.1-0.6-0.3-1.1-0.8-1.4l-35.9-15.1c-0.5-0.2-1.1-0.1-1.4,0.3l-56.9,56.6c-0.4,0.4-0.5,0.9-0.3,1.4L8919.2,9302.3z
			 M8921.2,9300.3l-20.8-49.9l55.7-55.4l34.2,14.4l-6.8,59.9C8964.5,9292.7,8927.7,9299.3,8921.2,9300.3L8921.2,9300.3z"/>
	</g>
	<g transform="matrix(1,0,0,1,-17054.6,-12050.6)">
		<path class="st11" d="M18409.5,12840.1c-2.9-4.9-5.6-10.6-4.4-13.6c2.5-6,5.8-33.4,5.8-33.4s98.2-43.9,122.9-55.6
			c6.8-3.2,15.1-0.9,19.1,5.6l0,0c2.2,3.6,2.8,8,1.8,12c-1.1,4.1-3.8,7.5-7.6,9.5l-64.1,33.9l0,0l-75.7,37L18409.5,12840.1z"/>
	</g>
	<g transform="matrix(1,0,0,1,-17054.6,-12050.6)">
		<path class="st6" d="M18483.1,12800.2l0.9-0.2l64.1-33.9c4.1-2.2,7.2-6.1,8.5-10.6c1.2-4.5,0.5-9.4-2.1-13.4l0,0
			c-4.4-7.3-13.7-9.9-21.4-6.3c-24.6,11.6-122.9,55.6-122.9,55.6c-0.5,0.3-0.9,0.8-1,1.4c0,0-3.2,27.1-5.6,33
			c-0.6,1.5-0.6,3.6,0.1,5.8c0.8,2.9,2.5,6.2,4.4,9.3c0.4,0.9,1.5,1.1,2.3,0.7c0.9-0.4,1.2-1.5,0.9-2.3l-1.4-3l74.1-36.2
			L18483.1,12800.2L18483.1,12800.2z M18482.3,12796.9l-74.3,36.3c-0.4-0.9-0.7-1.7-0.9-2.6c-0.4-1.4-0.6-2.6-0.3-3.5
			c2.2-5.4,5.2-27.9,5.8-32.9c10-4.4,98.8-44.2,122.1-55.1c6.1-2.9,13.2-0.8,16.8,5l0,0c2,3.2,2.6,7,1.5,10.6
			c-0.9,3.6-3.3,6.7-6.7,8.4L18482.3,12796.9z"/>
	</g>
	<g transform="matrix(1,0,0,1,-17054.6,-12050.6)">
		<path class="st11" d="M18483.1,12798.4c2.8,1.9,16.2,11.6,13.3,29.2c0,0,11.5,12.9,5,30.1c0,0,7.9,16.9,2.7,25.2
			c-5.3,8.3-43.1,23.6-49.2,24.4c-6,0.9-14.8-11.5-14.4-20.1c0,0-20.5-13.2-15.2-25.1c0,0-17-10-15.9-22.1l-2.1-4.6L18483.1,12798.4
			z"/>
	</g>
	<g transform="matrix(1,0,0,1,-17054.6,-12050.6)">
		<path class="st6" d="M18484,12797c-0.5-0.3-1.2-0.4-1.7-0.1l-75.7,36.9c-0.9,0.4-1.2,1.5-0.9,2.3l1.9,4.2
			c-0.3,5.1,2.2,10,5.6,13.8c3.5,4.2,7.9,7.3,10,8.7c-1.5,4.9,0.5,9.9,3.8,14.3c4,5.3,9.7,9.6,11.8,11c0.2,5.4,3.2,11.9,7.1,16.2
			c3,3.3,6.5,5.2,9.4,4.8c4.2-0.6,24.4-8.4,37.9-15.9c6.1-3.3,10.8-6.8,12.4-9.4c2.3-3.7,2.5-8.8,1.6-13.7
			c-0.9-5.6-3.1-10.8-3.8-12.6c5.5-15.5-2.7-27.6-5-30.5C18500.8,12809,18487,12798.9,18484,12797z M18482.9,12800.5
			c3.8,2.7,14.2,11.6,11.8,26.8c-0.1,0.5,0.1,1,0.4,1.5c0,0,10.7,12.1,4.6,28.2c-0.2,0.5-0.2,1,0.1,1.5c0,0,2.7,5.8,3.8,12.3
			c0.7,3.9,0.8,8.2-1.1,11.2c-1.5,2.3-5.8,5.2-11.1,8.2c-13.2,7.3-32.6,14.9-36.8,15.5c-0.9,0.1-1.7-0.2-2.6-0.7
			c-1.2-0.7-2.4-1.7-3.5-3c-3.5-3.8-6.4-9.8-6.2-14.6c0.1-0.7-0.3-1.3-0.8-1.6c0,0-7.2-4.5-11.7-10.7c-2.8-3.7-4.8-8-2.9-12.2
			c0.4-0.8,0.1-1.8-0.7-2.2c0,0-5.9-3.4-10.3-8.7c-2.8-3.2-5.1-7.3-4.8-11.6c0.1-0.3,0-0.6-0.1-0.9l-1.4-3L18482.9,12800.5
			L18482.9,12800.5z"/>
	</g>
	<g transform="matrix(1.36524,0,0,1.36524,-10857.4,-11803.3)">
		<path class="st6" d="M8968.6,9259.6l31.1-15.7c0.6-0.3,0.9-1.1,0.6-1.8c-0.3-0.6-1.1-0.9-1.8-0.6l-31.1,15.7
			c-0.6,0.3-0.9,1.1-0.6,1.8C8967.2,9259.7,8968,9259.9,8968.6,9259.6z"/>
	</g>
	<g transform="matrix(1.36524,0,0,1.36524,-10874.2,-11833.5)">
		<path class="st6" d="M8970.4,9262.8l31.1-15.7c0.7-0.3,0.9-1.1,0.6-1.8c-0.3-0.6-1.1-0.9-1.8-0.6l-31.1,15.7
			c-0.6,0.3-0.9,1.1-0.6,1.8C8969,9262.9,8969.8,9263.1,8970.4,9262.8z"/>
	</g>
	<g transform="matrix(1.36524,0,0,1.36524,-10851.7,-11806.5)">
		<path class="st11" d="M8919,9291.7l-20.1-68.8c0,0,34.1-36.3,43.4-40.1c9.4-3.7,37.8,18.9,37.8,18.9s-1.5,10.3-8.4,12.6
			c-6.8,2.2-21-2.1-21-2.1s2.8,16-6.8,33.2L8919,9291.7z"/>
	</g>
	<g transform="matrix(1.36524,0,0,1.36524,-10851.7,-11806.5)">
		<path class="st6" d="M8920.3,9291.4l-19.9-68c2.9-3.1,17.5-18.4,29.3-29.1c5.5-5,10.4-9,13.1-10.1c0.9-0.4,2.1-0.4,3.5-0.2
			c2.3,0.3,5,1.3,7.8,2.6c10,4.7,21.8,13.6,24.7,15.8c-0.3,1.2-0.9,3.7-2.2,6c-1.1,2-2.8,4-5.2,4.8c-2.6,0.8-6.3,0.7-9.8,0.2
			c-5.5-0.8-10.5-2.3-10.5-2.3c-0.4-0.1-0.9,0-1.2,0.3c-0.3,0.3-0.5,0.8-0.4,1.2c0,0,2.7,15.6-6.7,32.3c-0.4,0.6-0.1,1.4,0.5,1.8
			c0.6,0.4,1.4,0.1,1.8-0.5c7.8-14,7.6-27.2,7.2-32.1c2,0.5,5.4,1.4,9,1.8c3.9,0.5,8,0.7,10.9-0.3c3.1-1,5.2-3.4,6.6-6
			c2-3.7,2.6-7.6,2.6-7.6c0.1-0.5-0.1-0.9-0.5-1.2c0,0-14.1-11.2-25.8-16.6c-3.1-1.4-6.1-2.5-8.6-2.8c-1.9-0.3-3.5-0.2-4.8,0.4
			c-2.9,1.1-8.1,5.3-13.9,10.5c-13.3,12-30,29.8-30,29.8c-0.3,0.3-0.4,0.8-0.3,1.3l20.1,68.8c0.2,0.7,0.9,1.1,1.6,0.9
			C8920.1,9292.8,8920.5,9292.1,8920.3,9291.4z"/>
	</g>
	<g transform="matrix(0.783226,0,0,0.74269,1078.59,849.919)">
		<path class="st6" d="M1056.6,570.1c0-35.1-26.9-63.5-60.2-63.5c-186.6,0-771,0-957.6,0c-33.2,0-60.2,28.4-60.2,63.5
			c0,139.2,0,478.9,0,618.1c0,35.1,26.9,63.5,60.2,63.5c186.6,0,771,0,957.6,0c33.2,0,60.2-28.4,60.2-63.5V570.1z M1052,570.1v618.1
			c0,32.4-24.9,58.7-55.6,58.7c-186.6,0-771,0-957.6,0c-30.7,0-55.6-26.3-55.6-58.7c0-139.2,0-478.9,0-618.1
			c0-32.4,24.9-58.7,55.6-58.7c186.6,0,771,0,957.6,0C1027.1,511.4,1052,537.7,1052,570.1z"/>
	</g>
	<g transform="matrix(0.783226,0,0,0.106758,1078.59,1423.88)">
		<path class="st14" d="M1054.3-1410.4c0-112.7-6.1-220.8-17-300.4c-10.9-79.7-25.6-124.4-40.9-124.4c-186.6,0-771,0-957.6,0
			c-15.4,0-30.1,44.8-41,124.4c-10.9,79.7-17,187.8-17,300.4c0,165.1,0,315.4,0,315.4h1073.4
			C1054.3-1095,1054.3-1245.2,1054.3-1410.4z"/>
		<g>
			<defs>
				<path id="SVGID_11_" d="M1054.3-1410.4c0-112.7-6.1-220.8-17-300.4c-10.9-79.7-25.6-124.4-40.9-124.4c-186.6,0-771,0-957.6,0
					c-15.4,0-30.1,44.8-41,124.4c-10.9,79.7-17,187.8-17,300.4c0,165.1,0,315.4,0,315.4h1073.4
					C1054.3-1095,1054.3-1245.2,1054.3-1410.4z"/>
			</defs>
			<clipPath id="SVGID_12_">
				<use xlink:href="#SVGID_11_"  style="overflow:visible;"/>
			</clipPath>
			<g class="st15">
				<g transform="matrix(1.21075,0,0,8.88266,-1933.16,-81579.2)">
					<path class="st16" d="M2286.6,8941.3c-51.1,43.2-106.8,132.6-49.2,192.8c24.9,26,59.3,34.6,89.9,51.7
						c54.4,30.3,91.6,79.5,98.9,142.4c2.4,21,1.6,42.3-2,63.1c-4.6,26.1-13.4,51-30.1,71.9c-41.9,52.4-124,40.3-182.9,39.5
						c-107.5-1.5-216.2,8.8-319,41.8c-44.9,14.4-158.1,63.8-131,131.5c30.6,76.5,139.3,87.1,209.2,89.4
						c184.2,6.1,392.5-8.8,534.5-140.4c136.9-126.8,173.9-396.6,88.2-560c-63.1-120.1-169-199.9-309.2-186.7
						c-42.5,4-83.8,17.2-118.7,42.2L2286.6,8941.3z"/>
				</g>
			</g>
		</g>
	</g>
	<g transform="matrix(0.783226,0,0,0.106758,1078.59,1423.88)">
		<path class="st6" d="M1056.6-1410.4c0-117.1-6.3-229.4-17.6-312.2c-11.3-82.8-26.6-129.3-42.6-129.3c-186.6,0-771,0-957.6,0
			c-16,0-31.3,46.5-42.6,129.3c-11.3,82.8-17.6,195.1-17.6,312.2c0,165.1,0,315.4,0,315.4c0,9.2,1,16.7,2.3,16.7h1073.4
			c1.3,0,2.3-7.5,2.3-16.7C1056.6-1095,1056.6-1245.2,1056.6-1410.4z M1052-1410.4v298.7c0,0-1014.4,0-1068.9,0v-298.7
			c0-108.3,5.9-212.1,16.3-288.6c10.4-76.5,24.6-119.6,39.3-119.6c186.6,0,771,0,957.6,0c14.8,0,28.9,43,39.3,119.6
			C1046.2-1622.4,1052-1518.6,1052-1410.4z"/>
	</g>
	<g transform="matrix(0.80543,0,0,0.80543,1043.96,798.937)">
		<circle class="st17" cx="92.2" cy="583.2" r="19.4"/>
	</g>
	<g transform="matrix(0.80543,0,0,0.80543,1043.96,798.937)">
		<path class="st6" d="M92.2,561.6c-11.9,0-21.7,9.7-21.7,21.7c0,11.9,9.7,21.6,21.7,21.6c11.9,0,21.6-9.7,21.6-21.6
			C113.9,571.3,104.2,561.6,92.2,561.6z M92.2,566c9.5,0,17.2,7.7,17.2,17.2c0,9.5-7.7,17.2-17.2,17.2c-9.5,0-17.2-7.7-17.2-17.2
			C75,573.7,82.7,566,92.2,566z"/>
	</g>
	<g transform="matrix(0.80543,0,0,0.80543,1100.77,798.937)">
		<circle class="st18" cx="82" cy="583.2" r="19.4"/>
	</g>
	<g transform="matrix(0.80543,0,0,0.80543,1100.77,798.937)">
		<path class="st6" d="M82,561.6c-11.9,0-21.7,9.7-21.7,21.7c0,11.9,9.7,21.6,21.7,21.6c11.9,0,21.6-9.7,21.6-21.6
			C103.6,571.3,93.9,561.6,82,561.6z M82,566c9.5,0,17.2,7.7,17.2,17.2c0,9.5-7.7,17.2-17.2,17.2c-9.5,0-17.2-7.7-17.2-17.2
			C64.8,573.7,72.5,566,82,566z"/>
	</g>
	<g transform="matrix(0.80543,0,0,0.80543,1157.58,798.937)">
		<circle class="st19" cx="71.8" cy="583.2" r="19.4"/>
	</g>
	<g transform="matrix(0.80543,0,0,0.80543,1157.58,798.937)">
		<path class="st6" d="M71.8,561.6c-11.9,0-21.7,9.7-21.7,21.7c0,11.9,9.7,21.6,21.7,21.6c11.9,0,21.6-9.7,21.6-21.6
			C93.4,571.3,83.7,561.6,71.8,561.6z M71.8,566c9.5,0,17.2,7.7,17.2,17.2c0,9.5-7.7,17.2-17.2,17.2c-9.5,0-17.2-7.7-17.2-17.2
			C54.5,573.7,62.3,566,71.8,566z"/>
	</g>
	<g transform="matrix(0.958244,0,0,1.0847,-12765.9,-5224.12)">
		<path class="st6" d="M13581,6999.4h2164.7c1,0,1.9-0.7,1.9-1.6s-0.9-1.6-1.9-1.6H13581c-1,0-1.8,0.7-1.8,1.6
			S13580,6999.4,13581,6999.4z"/>
	</g>
	<g transform="matrix(0.98056,0,0,1.0847,-13118.6,-5243.42)">
		<path class="st19" d="M15121.7,7015.5c0,0-53.3-49.6-17.1-92.6c32-38,75.8-0.8,75.8-0.8s0-113.2,84.7-106.2
			c75.7,6.2,48.3,83.1,48.3,83.1s58.3-54.7,95.9-21.3c33.8,30-1,72.3-1,72.3s63.5-12.7,81.6,16.1c14,22.3-4.7,49.5-4.7,49.5H15121.7
			z"/>
		<g>
			<defs>
				<path id="SVGID_13_" d="M15121.7,7015.5c0,0-53.3-49.6-17.1-92.6c32-38,75.8-0.8,75.8-0.8s0-113.2,84.7-106.2
					c75.7,6.2,48.3,83.1,48.3,83.1s58.3-54.7,95.9-21.3c33.8,30-1,72.3-1,72.3s63.5-12.7,81.6,16.1c14,22.3-4.7,49.5-4.7,49.5
					H15121.7z"/>
			</defs>
			<clipPath id="SVGID_14_">
				<use xlink:href="#SVGID_13_"  style="overflow:visible;"/>
			</clipPath>
			<g class="st20">
				<g transform="matrix(1.01983,0,0,0.921912,-263.632,541.902)">
					<path class="st21" d="M15148.2,7029.5c-19.1-15.6-28.9-53,0.3-63.9c14.6-5.5,28,2,36.6,14.2c2.7,3.9,4.9,8.1,6.8,12.4
						c0.6,1.3,1.1,2.7,1.7,4c0.3,0.7,0.9,2.9,0.8,2.1c-1.5-6.1-3.2-11.9-4.2-18.2c-2.9-21,6.4-62.6,36.2-55.9
						c17.6,4,27,23.7,26.8,40.4c-0.1,6.6-0.9,12.9-2.7,19.2c-0.5,2.1-1.3,4.1-2.1,6.1c-0.3,0.9-1.5,3.4-1,2.6
						c8.9-17.4,22.4-34.6,39.2-45c6.7-4,18-7.8,25-2.3c12.7,10.2,6.4,26.6-0.6,38.4c-2.3,3.9-5,7.6-7.8,11.3c-0.7,1-1.5,2-2.2,2.9
						c-0.6,0.7-2.5,2.6-1.7,2.1c18.5-15.1,40.9-23.9,65-24.5c11.5-0.3,25.6,1.9,34.1,10.5c13.9,14.2-0.5,38.2-10.4,49.7
						c-2.6,2.9-5.4,6.3-8.4,8.8c-3.4,2.8-6.8,5.7-10.3,8.2c-4.7,3.1-9.5,6.2-14.4,9c-16.1,9.2-33.9,18-52.2,21
						c-18.9,3.1-38,3.6-57,3.5c-28.5-0.1-57.3-4-79.2-23.6L15148.2,7029.5z"/>
				</g>
			</g>
		</g>
	</g>
	<g transform="matrix(0.98056,0,0,1.0847,-13118.6,-5243.42)">
		<path class="st6" d="M15120.4,7016.7c0.3,0.3,0.9,0.5,1.3,0.5h363.5c0.7,0,1.2-0.3,1.5-0.8c0,0,6.9-10,9.3-23
			c1.7-8.8,1.3-18.9-4.5-28.1c-7.5-12-22.5-17.2-37.9-18.9c-16.6-1.9-33.6,0.1-41.4,1.3c3-4.3,8-12.3,11-22.1
			c4.6-14.8,4.8-33.5-12.7-49c-15.6-13.9-34.7-13.2-51.9-7.3c-18.1,6.2-34.2,18.2-41.9,24.5c1.4-5.1,3-13.1,3.2-22.2
			c0.3-14-2.7-30.4-15.1-42.2c-8.4-7.8-20.9-13.6-39.7-15.1c-34.8-2.9-55.7,14-68.1,35.3c-15.3,26-18,58.6-18.5,69.1
			c-10.6-7.6-47.5-30.1-75.6,3.3c-18.6,22.1-14.3,45.8-5.2,64.1C15106.9,7004.1,15120.4,7016.7,15120.4,7016.7z M15122.6,7013.9
			c-2.6-2.5-13.7-13.8-21.3-29.2c-8.6-17.3-12.8-39.8,4.7-60.7c30.9-36.6,73.3-0.6,73.3-0.6c0.5,0.4,1.3,0.6,2,0.3
			c0.6-0.3,1-0.8,1-1.5c0,0,0-40.3,18.1-71.1c11.9-20.2,31.6-36.2,64.7-33.5c17.5,1.4,29.4,6.8,37.3,14.1
			c11.8,11.1,14.4,26.6,14.1,39.8c-0.4,14.9-4.7,27-4.7,27c-0.3,0.7,0.1,1.5,0.9,1.9c0.7,0.4,1.6,0.3,2.2-0.3
			c0,0,20.7-19.4,45.2-27.8c15.9-5.5,33.6-6.3,48,6.6c16.3,14.5,16,32,11.7,45.8c-4.4,14-12.9,24.3-12.9,24.3
			c-0.4,0.5-0.4,1.3,0,1.9c0.4,0.6,1.1,0.9,1.9,0.7c0,0,22.6-4.5,44.5-2c14.2,1.6,28.2,6.2,35.1,17.3c5.3,8.6,5.6,17.9,4.2,26
			c-2,10.2-6.8,18.6-8.4,21.1C15463.5,7013.9,15140.5,7013.9,15122.6,7013.9L15122.6,7013.9z"/>
	</g>
	<g transform="matrix(1.26085,0,0,1.26085,-7704.03,-5419.4)">
		<circle class="st19" cx="7574.4" cy="5093.5" r="121"/>
		<g>
			<defs>
				<circle id="SVGID_15_" cx="7574.4" cy="5093.5" r="152.5"/>
			</defs>
			<clipPath id="SVGID_16_">
				<use xlink:href="#SVGID_15_"  style="overflow:visible;"/>
			</clipPath>
			<g class="st22">
				<path class="st21" d="M7642.2,4987.3c35.9,63.3,37.5,159.6-36.6,197.9c-30.7,15.8-66.2,20.8-100.4,18.1
					c-11.5-0.9-22.9-2.6-34.2-4.7c-3.7-0.7-7.4-1.4-11.1-2.2c-1.9-0.4-6.8-2.9-5.7-1.3c45.6,64,147.2,69.7,212.9,37.3
					c110.4-54.4,172.2-200.7,80.8-300.1L7642.2,4987.3z"/>
			</g>
		</g>
	</g>
	<g transform="matrix(1.26085,0,0,1.26085,-7704.03,-5419.4)">
		<path class="st6" d="M7574.4,4971.1c-67.6,0-122.4,54.8-122.4,122.4c0,67.6,54.8,122.4,122.4,122.4c67.6,0,122.4-54.8,122.4-122.4
			C7696.8,5025.9,7642,4971.1,7574.4,4971.1z M7574.4,4973.9c66,0,119.6,53.6,119.6,119.6c0,66-53.6,119.6-119.6,119.6
			c-66,0-119.6-53.6-119.6-119.6C7454.8,5027.5,7508.4,4973.9,7574.4,4973.9z"/>
	</g>
	<g transform="matrix(1.03934,0,0,1.03934,2040.14,1140.43)">
		<rect x="-306.1" y="-228.2" class="st23" width="218.8" height="218.8"/>
	</g>
	<g transform="matrix(1.03934,0,0,1.03934,2048.36,1127.74)">
		<path class="st24" d="M-117.5-91l-40.1-17.1c-4.2-1.9-9.1-1.5-12.9,1.1l-21.5,14.3c-13.1-6.3-23.7-16.9-30.1-29.9l14.2-21.7
			c2.6-3.8,3-8.7,1.2-12.9l-17.2-40.1c-2.5-5.5-8.3-8.9-14.3-8.2c-23.8,3.1-41.7,23.6-41.8,47.5c0,67.9,55.2,123.1,123.1,123.1
			c24-0.1,44.4-18,47.5-41.8C-108.6-82.7-111.9-88.5-117.5-91z"/>
	</g>
	<g transform="matrix(1.03934,0,0,1.03934,2048.36,1127.74)">
		<path class="st24" d="M-172.7-185.6c21.2,5.8,37.7,22.4,43.5,43.5c0.8,3,3.5,5.1,6.6,5.1c0.6,0,1.2-0.1,1.8-0.3c3-0.8,5-3.5,5-6.5
			c0-0.6-0.1-1.2-0.3-1.8c-6.9-25.9-27.3-46.2-53.2-53.2c-0.8-0.3-1.5-0.4-2.3-0.4c-3.8,0-6.8,3.1-6.8,6.8
			C-178.4-189.1-175.9-186.2-172.7-185.6z"/>
	</g>
	<g transform="matrix(1.03934,0,0,1.03934,2048.36,1127.74)">
		<path class="st24" d="M-179.8-159.2c11.8,3.2,21,12.4,24.2,24.2c0.7,3,3.5,5.1,6.6,5.1c0.6,0,1.2-0.1,1.7-0.3
			c3-0.7,5.1-3.5,5.1-6.6c0-0.6-0.1-1.2-0.3-1.8c-4.4-16.5-17.3-29.5-33.9-33.9c-0.8-0.3-1.5-0.4-2.3-0.4c-3.8,0-6.8,3.1-6.8,6.8
			C-185.4-162.6-183-159.8-179.8-159.2z"/>
	</g>
	<g transform="matrix(-1.07385,0,0,1.07385,11699.6,-13668.1)">
		<circle class="st18" cx="9231.4" cy="13266.4" r="139.6"/>
		<g>
			<defs>
				<circle id="SVGID_17_" cx="9231.4" cy="13266.4" r="149.9"/>
			</defs>
			<clipPath id="SVGID_18_">
				<use xlink:href="#SVGID_17_"  style="overflow:visible;"/>
			</clipPath>
			<g class="st25">
				<g transform="matrix(0.990052,0,0,0.990052,7836.04,625.695)">
					<path class="st26" d="M1409.3,12622.6c-87,42.8-117.9,133.7-56.5,213.5c11.5,14.9,26.2,27.7,42.6,36.8
						c23.1,12.8,51.4,15.5,77.3,13.8c9.7-0.7,19.3-1.8,29-3.1c0.3-0.1,0.7-0.3,0.9-0.2c2.1,2.7-4.5,13.5-6.8,17.6
						c-8.1,14.2-22.5,24.7-36.5,32.3c-44,23.8-118.3,26-166.2,11.1c-66.1-20.4-126.6-68.3-136-141.4
						c-13.3-104.5,47.1-198.6,140.7-241.7c18.1-8.4,39.7-18.3,60.1-17.9L1409.3,12622.6z"/>
				</g>
			</g>
		</g>
	</g>
	<g transform="matrix(-1.07385,0,0,1.07385,11699.6,-13668.1)">
		<path class="st6" d="M9231.4,13125.1c78,0,141.3,63.3,141.3,141.3s-63.3,141.3-141.3,141.3c-78,0-141.3-63.3-141.3-141.3
			S9153.4,13125.1,9231.4,13125.1z M9231.4,13128.4c-76.2,0-138,61.8-138,138s61.8,138,138,138c76.2,0,138-61.8,138-138
			S9307.5,13128.4,9231.4,13128.4z"/>
	</g>
	<g transform="matrix(1.01488,0,0,1.01488,989.123,-12371.9)">
		<path class="st27" d="M863.2,12716.6c0-0.3-0.2-0.6-0.4-0.8c-0.3-0.1-0.6-0.1-0.8,0.1c-10.1,7.6-81.2,61-81.2,61
			c-2.2,1.6-5.3,1.6-7.5,0c0,0-71.1-53.3-81.2-61c-0.2-0.2-0.6-0.2-0.8-0.1c-0.3,0.2-0.4,0.4-0.4,0.8l0,0v86c0,4.7,1.8,9.1,5.1,12.5
			c3.3,3.2,7.8,5.1,12.4,5.1h137.2c4.7,0,9.1-1.9,12.4-5.1c3.3-3.3,5.2-7.8,5.2-12.5V12716.6L863.2,12716.6z M696.6,12703.7
			l80.5,60.4l80.5-60.4c-3.2-3-7.5-4.7-11.9-4.7H708.5C704,12699,699.8,12700.7,696.6,12703.7z"/>
	</g>
	<g transform="matrix(1,0,0,1,-17043,-12048.2)">
		<circle class="st8" cx="18453.1" cy="12410.4" r="140"/>
		<g>
			<defs>
				<circle id="SVGID_19_" cx="18453.1" cy="12410.4" r="140"/>
			</defs>
			<clipPath id="SVGID_20_">
				<use xlink:href="#SVGID_19_"  style="overflow:visible;"/>
			</clipPath>
			<g class="st28">
				<g transform="matrix(1,0,0,1,-30.1814,-3.83445)">
					<path class="st10" d="M18436.2,12277.6c98.4-6.1,164,105.8,121,191.4c-20.5,40.8-59.9,66.8-103.6,76.9
						c-14.9,3.4-30.1,5.5-45.3,6.5c-5.5,0.3-10.9,0.5-16.4,0.6c-1.6,0-3.2,0-4.9,0c-0.9,0-3.2-0.9-2.8,0
						c8.5,16.6,33.1,26.3,50.2,30.2c48.2,10.8,104-1.1,146.9-24.1c92.2-49.4,180.5-192.3,124.4-295.2
						c-51-93.3-212.7-138.6-283.7-43.8L18436.2,12277.6z"/>
				</g>
			</g>
		</g>
	</g>
	<g transform="matrix(1,0,0,1,-17043,-12048.2)">
		<path class="st6" d="M18453.1,12268.7c-78.2,0-141.7,63.4-141.7,141.7c0,78.2,63.5,141.7,141.7,141.7s141.7-63.5,141.7-141.7
			C18594.9,12332.1,18531.3,12268.7,18453.1,12268.7z M18453.1,12272.2c76.3,0,138.2,61.9,138.2,138.2c0,76.3-62,138.1-138.2,138.1
			c-76.3,0-138.1-61.9-138.1-138.1C18315,12334.1,18376.9,12272.2,18453.1,12272.2z"/>
	</g>
	<g transform="matrix(0.851745,0,0,0.851745,-14708,-10302.8)">
		<circle class="st17" cx="18482" cy="12404.9" r="140"/>
		<g>
			<defs>
				<circle id="SVGID_21_" cx="18482" cy="12404.9" r="119.2"/>
			</defs>
			<clipPath id="SVGID_22_">
				<use xlink:href="#SVGID_21_"  style="overflow:visible;"/>
			</clipPath>
			<g class="st29">
				<g transform="matrix(1.17406,0,0,1.17406,-2743.65,-2038.66)">
					<path class="st30" d="M18055,12181c79.1,10.4,122.8,100.5,94.1,172.5c-15.2,38.5-44.6,69.2-79.8,90.4
						c-12.2,7.4-25,13.6-37.7,20.1c-4.5,2.3-9,4.5-13.5,6.8c-2,1-3.9,2-5.9,2.9c-0.3,0.1-1.1,0.2-0.9,0.3c8.2,4.3,20,4.9,29.1,5.6
						c43,2.8,85.8-12.1,124.3-29.9c40.1-18.6,73.5-44.8,99.3-81c15.8-22.2,27.7-47.5,34.6-73.9c5.5-21,7.4-42.5,6.2-64.1
						c-5-79.8-84.1-118.5-157-104.6c-36.4,6.9-82.2,39.8-107,68L18055,12181z"/>
				</g>
			</g>
		</g>
	</g>
	<g transform="matrix(0.851745,0,0,0.851745,-14708,-10302.8)">
		<path class="st6" d="M18482,12262.8c-78.4,0-142.1,63.6-142.1,142.1c0,78.4,63.7,142,142.1,142s142.1-63.6,142.1-142
			C18624,12326.4,18560.4,12262.8,18482,12262.8z M18482,12267c76.1,0,137.9,61.7,137.9,137.9c0,76.1-61.8,137.8-137.9,137.8
			s-137.9-61.7-137.9-137.8C18344.1,12328.7,18405.9,12267,18482,12267z"/>
	</g>
	<g transform="matrix(-1,0,0,1.20033,11497.5,-14952.5)">
		<path class="st27" d="M11031.9,12911.8l-46.4,16.9l46.4,17v22.2c0,11.6,9.5,21,21.1,21c64.3,0,191.7,0,255.9,0
			c11.6,0,21-9.4,21-21c0-22.1,0-56.4,0-78.4c0-11.6-9.4-21-21-21H11053c-11.6,0-21.1,9.4-21.1,21V12911.8z"/>
		<g>
			<defs>
				<path id="SVGID_23_" d="M11031.9,12911.8l-46.4,16.9l46.4,17v22.2c0,11.6,9.5,21,21.1,21c64.3,0,191.7,0,255.9,0
					c11.6,0,21-9.4,21-21c0-22.1,0-56.4,0-78.4c0-11.6-9.4-21-21-21H11053c-11.6,0-21.1,9.4-21.1,21V12911.8z"/>
			</defs>
			<clipPath id="SVGID_24_">
				<use xlink:href="#SVGID_23_"  style="overflow:visible;"/>
			</clipPath>
			<g class="st31">
				<g transform="matrix(-1,0,0,0.833107,28552.1,2417.61)">
					<path class="st2" d="M17350.4,12515.2c-12.1,29.2-36.9,45-53.8,70.3c-6.6,9.9-13.9,23-7.7,34.8c9.6,18.4,40.9,20,58.5,22.2
						c16.8,2.1,33.6,1.2,50.4,2.1c39.1,2,80.7,5.4,117.8,18.3c28.6,9.9,55.6,36.5,31.3,67.4c-5.6,7.1-12.3,13.3-19.7,18.5
						c-22.8,15.8-51.4,23.7-77.9,31c-76.1,21-156.4,24.4-225.2-19.6c-43.4-27.7-89.6-93.9-81.4-148.7c6.9-46.5,38.7-88.6,77.9-113.8
						c23.3-15,66.3-31.5,94.1-39.2L17350.4,12515.2z"/>
				</g>
			</g>
		</g>
	</g>
	<g transform="matrix(-1,0,0,1.20033,11497.5,-14952.5)">
		<path class="st6" d="M11030.2,12910.8v-21.2c0-12.6,10.3-22.6,22.8-22.6h255.9c12.5,0,22.8,10,22.8,22.6v78.4
			c0,12.5-10.3,22.6-22.8,22.6c-64.3,0-191.7,0-255.9,0c-12.6,0-22.8-10.1-22.8-22.6v-21.3l-45.4-16.6c-0.7-0.3-1.1-0.8-1.1-1.4
			c0-0.6,0.4-1.1,1.1-1.4L11030.2,12910.8z M11033.7,12911.8c0,0.6-0.4,1.1-1,1.4l-42.7,15.6l42.7,15.6c0.6,0.3,1,0.8,1,1.4v22.2
			c0,10.8,8.5,19.6,19.3,19.6c64.3,0,191.7,0,255.9,0c10.8,0,19.2-8.8,19.2-19.6v-78.4c0-10.8-8.5-19.6-19.2-19.6H11053
			c-10.8,0-19.3,8.8-19.3,19.6V12911.8z"/>
	</g>
	<g transform="matrix(-1,0,0,1,11486.9,-12343.2)">
		<path class="st6" d="M11077.8,12886.5h185.4c1,0,1.8,0.8,1.8,1.8c0,0.9-0.8,1.7-1.8,1.7h-185.4c-1,0-1.8-0.8-1.8-1.7
			C11076,12887.2,11076.8,12886.5,11077.8,12886.5z"/>
	</g>
	<g transform="matrix(-0.64778,0,0,1,7523.96,-12293.6)">
		<path class="st6" d="M11108.4,12879.3h161.4c1.5,0,2.7,0.8,2.7,1.8c0,0.9-1.2,1.7-2.7,1.7h-161.4c-1.5,0-2.8-0.8-2.8-1.7
			C11105.5,12880,11106.8,12879.3,11108.4,12879.3z"/>
	</g>
	<g transform="matrix(1.1593,-0.00186226,0.00186226,1.1593,-8989.51,-5831.92)">
		<path class="st17" d="M8403.5,5520.3c0,0,33.6-10.2,23.9-48.1c-9.7-37.9-76.9-66.5-130-35.3c-46.5,27.3-44.6,68.6-51.6,105.9
			c-9.8,52-71,55.1-89.1,97.5c-4.4,10.4-5.3,60.3,63,37.4c35.3-11.8,46.3-43.6,70.3-46.4l66.2-104.5L8403.5,5520.3z"/>
		<g>
			<defs>
				<path id="SVGID_25_" d="M8403.5,5520.3c0,0,33.6-10.2,23.9-48.1c-9.7-37.9-76.9-66.5-130-35.3c-46.5,27.3-44.6,68.6-51.6,105.9
					c-9.8,52-71,55.1-89.1,97.5c-4.4,10.4-5.3,60.3,63,37.4c35.3-11.8,46.3-43.6,70.3-46.4l66.2-104.5L8403.5,5520.3z"/>
			</defs>
			<clipPath id="SVGID_26_">
				<use xlink:href="#SVGID_25_"  style="overflow:visible;"/>
			</clipPath>
			<g class="st32">
				<path class="st30" d="M8287.3,5542.8c-1.5,22.3-3.7,49.9-23.4,64.4c-6.7,4.9-14.8,7-23,7.9c-38.4,4.3-42.8,32.9-42.4,52.2
					c0.2,9.7,20,12.5,25.6,19.8c20.1,26.4,61.7,5.3,91.2-9.8c8.8-4.5,15.2-11.4,21-19.3c29.9-40.6,7.7-93-19.6-128.1L8287.3,5542.8z
					"/>
			</g>
		</g>
	</g>
	<g transform="matrix(1.1593,-0.00186226,0.00186226,1.1593,-8989.51,-5831.92)">
		<path class="st6" d="M8403.7,5521.8c0.1,0,0.2,0,0.2-0.1c0,0,17.2-5.2,24-21.9c2.9-7.1,4-16.3,0.9-28.1
			c-4-15.5-17.3-29.6-35.5-38.8c-27-13.6-64.5-16.5-96.8,2.5c-28.3,16.6-39,38.4-44.5,61.3c-3.6,15.1-5,30.7-7.8,45.6
			c-4.8,25.5-22.3,39-40.8,51.3c-19,12.7-39.1,24.3-48.2,45.8c-1.4,3.3-2.5,10.3-1.4,17.8c1.1,7.6,4.5,15.7,11.9,21.1
			c9.6,7.1,26.3,9.9,54.4,0.5c17.9-6,29.7-17,40-26.9c9.9-9.5,18.3-18,30-19.4c0.5-0.1,0.9-0.3,1.1-0.7c0,0,60.4-95.4,65.8-103.9
			L8403.7,5521.8z M8403.1,5518.8l-47.1,6.4c-0.5,0.1-0.9,0.3-1.1,0.7l-65.8,103.9c-9.6,1.4-17.2,7.1-25.1,14.4
			c-11.6,10.8-23.9,24.9-44.8,31.9c-26.6,8.9-42.4,6.7-51.6,0c-6.7-4.9-9.7-12.3-10.7-19.1c-1-6.8-0.1-13.2,1.2-16.2
			c8.9-20.9,28.6-32.1,47.1-44.5c19.1-12.8,37.1-26.9,42.1-53.3c2.8-14.9,4.2-30.4,7.8-45.4c5.3-22.2,15.6-43.3,43.1-59.4
			c31.3-18.4,67.7-15.6,93.8-2.4c17.3,8.7,30.1,22,33.9,36.8c2.8,11,1.9,19.5-0.8,26.1C8419.1,5513.3,8404.5,5518.4,8403.1,5518.8
			L8403.1,5518.8z"/>
	</g>
	<g transform="matrix(1,0,0,1,-17054.6,-12050.6)">
		<path class="st18" d="M17690.7,12728.5c0,0-141.8,28.7-178.8,94.7s-63.7,251.6-63.4,319.9c0.2,68.4,65.7,138.2,317,84.3
			c0,0,161.4,1.2,188.1-21.4c26.6-22.7,10.7-37.9,1.6-54c-9-16.1-8.9-83-8.9-83s121.8,53.7,188,39.6c66.1-14.1,269-155.8,269-155.8
			c-5.6-47.5-24.4-93.7-56.1-124.7l-230.1,99.4c0,0-148.6-131.7-203.2-157.6c-68.4-32.5-156.2-36-156.2-36L17690.7,12728.5z"/>
		<g>
			<defs>
				<path id="SVGID_27_" d="M17690.7,12728.5c0,0-141.8,28.7-178.8,94.7s-63.7,251.6-63.4,319.9c0.2,68.4,65.7,138.2,317,84.3
					c0,0,161.4,1.2,188.1-21.4c26.6-22.7,10.7-37.9,1.6-54c-9-16.1-8.9-83-8.9-83s121.8,53.7,188,39.6
					c66.1-14.1,269-155.8,269-155.8c-5.6-47.5-24.4-93.7-56.1-124.7l-230.1,99.4c0,0-148.6-131.7-203.2-157.6
					c-68.4-32.5-156.2-36-156.2-36L17690.7,12728.5z"/>
			</defs>
			<clipPath id="SVGID_28_">
				<use xlink:href="#SVGID_27_"  style="overflow:visible;"/>
			</clipPath>
			<g class="st33">
				<path class="st26" d="M17650.6,12742.6c-28.6,28.4-63.9,47.1-87.8,80.4c-41.5,58.2-49.9,164.7-59.1,235.4
					c-7.2,55.1-15.1,129.1,43.8,159c41.9,21.3,110.5,5.7,155.2-0.5c9.7-1.4,51.5-12.7,57-4.7c19.6,28.4-1.7,64.6-23.1,84.6
					c-49.5,46.2-123.4,68.2-190.3,60.4c-51.5-6.1-103.2-16.7-149.3-41.5c-39.8-21.5-72.2-53.8-96.3-91.7
					c-87.1-137.2-49.2-328.6,69.2-436c50.6-45.9,118.6-80.1,183.5-101L17650.6,12742.6z"/>
				<path class="st26" d="M17759.5,13197.1c31-2.6,65.8-9.3,96.6-14.3c19.7-3.1,39.2-7,58.8-11.1c15.4-3.2,36.2-5.4,48-16.9
					c26.6-25.8,5.2-69.6-23.7-82.4c-16.7-7.4-35.4-7.2-53.1-4.5c-33.9,4.9-63.2,19.3-93.2,34.9c-16,8.2-37.9,17.5-44.2,36.2
					c-0.8,2.2,3.3,10,4.1,12.4c3.2,10,4.6,19.8,5.7,30.3L17759.5,13197.1z"/>
				<path class="st26" d="M17969,13015c29.2,10.4,58.6,20.6,87.7,31.4c20.3,7.5,40.1,17.1,62.2,17.3c32.1,0.3,66-13.8,92.2-31.4
					c23.9-16.1,45.7-36,68.7-53.5c45.2-34.5,97.3-65.6,150.5-85.7c25.3-9.6,57-17.4,64.2,19.2c12.5,64.4-63.9,142.6-111.4,174.5
					c-12.8,8.6-26.1,16.8-39.2,25.1c-77.4,49.2-180,115.5-277.1,97c-51.5-9.8-79.3-62.1-106.3-101.9c-10.7-15.7-22.7-30.9-29.5-48.8
					L17969,13015z"/>
			</g>
		</g>
	</g>
	<g transform="matrix(1,0,0,1,-17054.6,-12050.6)">
		<path class="st6" d="M17690.8,12726.7c-0.2,0-0.3,0-0.5,0.1c0,0-51.3,10.3-100.3,33c-32.9,15.1-64.8,35.9-79.8,62.6
			c-37.1,66.2-63.9,252.3-63.7,320.7c0.1,34.9,16.8,70,65.4,89.7c48,19.3,127.5,23.4,253.5-3.6c4.4,0,80.7,0.3,135.8-6.8
			c24.7-3.2,45.1-8.1,53.3-15c8.4-7.1,12.7-13.5,14.4-19.4c2.1-7.1,0.6-13.5-2.3-19.7c-2.7-5.8-6.8-11.4-9.9-17
			c-2.7-4.7-4.4-13.8-5.7-24.4c-2.5-20.8-2.9-46.8-3-55.1c10,4.2,48.5,20,91,30.7c33.2,8.4,68.8,13.6,95.5,7.9
			c20-4.3,52.3-20,87.8-40c82.4-46.5,181.9-116,181.9-116c0.5-0.3,0.8-1,0.7-1.6c-5.6-48-24.6-94.5-56.6-125.7
			c-0.5-0.5-1.3-0.7-2-0.4l-229,99c-12.1-10.7-150.5-132.4-202.8-157.2c-68-32.2-154.9-36.1-156.9-36.2L17690.8,12726.7z
			 M17690.8,12730.3l66.6,5.4h0.1c0,0,87.4,3.5,155.5,35.8c54.5,25.8,202.8,157.4,202.8,157.4c0.5,0.4,1.3,0.5,1.9,0.3
			c0,0,211.8-91.5,229-98.9c30.7,30.5,48.9,75.5,54.6,121.7c-10,6.9-103,71.3-180.8,115.1c-35,19.8-67,35.5-86.8,39.7
			c-26.2,5.6-61.2,0.4-93.9-7.8c-49.2-12.4-92.9-31.6-92.9-31.6c-0.6-0.3-1.2-0.2-1.7,0.2c-0.5,0.3-0.8,0.9-0.8,1.5
			c0,0-0.1,32.9,3,58.2c1.4,11,3.3,20.7,6.1,25.6c3.2,5.6,7.1,11.1,9.8,16.8c2.6,5.4,3.9,11,2.1,17.2c-1.5,5.5-5.6,11.3-13.2,17.8
			c-3.1,2.6-8,4.8-14.3,6.8c-9.7,3.1-22.7,5.6-37.2,7.4c-56.4,7.4-135.4,6.8-135.4,6.8c-0.2,0-0.3,0-0.4,0
			c-125.2,26.9-204,23-251.6,3.8c-46.9-18.9-63.1-52.7-63.2-86.3c-0.3-68.1,26.3-253.2,63.2-319c14.6-26.1,45.9-46.2,78.1-61.1
			C17638.2,12741.5,17686.9,12731.1,17690.8,12730.3L17690.8,12730.3z"/>
	</g>
	<g transform="matrix(1,0,0,1,-17054.6,-12050.6)">
		<path class="st6" d="M17767.1,13227.1c0,0-15.9-103.6-25.7-134.3c-0.3-0.7-0.9-1.2-1.7-1.2h-132.4c3.6-20.1,31.5-177.7,31.5-177.7
			c0.2-0.9-0.4-1.9-1.5-2.1c-0.9-0.2-1.9,0.4-2.1,1.5l-31.9,179.8c-0.1,0.5,0,1,0.3,1.5s0.9,0.7,1.4,0.7c0,0,119.4,0,133.3,0
			c9.8,32,25.2,132.4,25.2,132.4c0.2,0.9,1.1,1.6,2.1,1.5C17766.6,13229,17767.3,13228.1,17767.1,13227.1z"/>
	</g>
	<g transform="matrix(1,0,0,1,-17054.6,-12050.6)">
		<path class="st6" d="M17966.3,14152.5c0,0-86.5,17.9-196.7-0.3c-0.9-0.1-1.9,0.5-2.1,1.5c-0.2,0.9,0.5,1.9,1.5,2.1
			c110.9,18.2,198,0.3,198,0.3c1-0.2,1.6-1.1,1.5-2.1C17968.2,14153,17967.3,14152.4,17966.3,14152.5z"/>
	</g>
	<g transform="matrix(1,0,0,1,-17054.6,-12050.6)">
		<path class="st6" d="M17664.6,14112.4c0,0-132.9-53.9-195.2-95.8c-0.9-0.6-2-0.3-2.5,0.4c-0.6,0.9-0.3,2,0.5,2.5
			c62.5,42.1,195.8,96.3,195.8,96.3c0.9,0.3,2-0.1,2.3-0.9C17666,14113.9,17665.4,14112.9,17664.6,14112.4z"/>
	</g>
	<g transform="matrix(1,0,0,1,-17054.6,-12050.6)">
		<path class="st6" d="M17742.7,14013.2c0,0,118.1-260.6,127.1-354.9c9-94.4-40.1-315.8-40.1-315.8c-0.2-0.9-1.1-1.5-2.1-1.4
			c-1,0.3-1.6,1.2-1.4,2.1c0,0,48.9,220.6,39.9,314.7c-9,94.1-126.8,353.8-126.8,353.8c-0.4,0.9,0,2,0.9,2.3
			C17741.3,14014.5,17742.3,14014,17742.7,14013.2z"/>
	</g>
	<g transform="matrix(1,0,0,1,-17054.6,-12050.6)">
		<path class="st26" d="M17727.8,12750.1c0,0,24.5,29.3,37.6,31c24.8,3.2,44.2-41.3,44.2-41.3l-47.6-7.2L17727.8,12750.1z"/>
	</g>
	<g transform="matrix(1,0,0,1,-17054.6,-12050.6)">
		<path class="st6" d="M17727,12748.6c-0.5,0.3-0.9,0.7-0.9,1.2c-0.2,0.5,0,1.1,0.3,1.5c0,0,12.1,14.5,23.9,23.9
			c5.3,4.1,10.6,7.3,14.8,7.8c10.4,1.4,20.1-5.1,27.9-13.7c11.1-12.4,18.3-28.7,18.3-28.7c0.2-0.5,0.2-1.1-0.1-1.5
			c-0.3-0.5-0.8-0.9-1.3-0.9l-47.7-7.2c-0.3,0-0.8,0-1,0.2L17727,12748.6z M17730.6,12750.7l31.7-16.2l44.7,6.8
			c-2.3,4.7-8.3,16.3-16.7,25.6c-6.9,7.6-15.4,13.8-24.8,12.6c-3.7-0.5-8.3-3.4-13-7.1
			C17743.4,12765.2,17734.1,12754.8,17730.6,12750.7L17730.6,12750.7z"/>
	</g>
	<g transform="matrix(-1,0,0,1,18681,-12053.3)">
		<path class="st26" d="M18007.8,12750.5c0,0,24.5,29.3,37.6,31c24.8,3.2,43.4-38.7,43.4-38.7l-43-11.6L18007.8,12750.5z"/>
	</g>
	<g transform="matrix(-1,0,0,1,18681,-12053.3)">
		<path class="st6" d="M18006.5,12751.7c-0.3-0.4-0.5-1-0.3-1.5c0.1-0.5,0.4-0.9,0.9-1.2l38-19.4c0.3-0.2,0.9-0.2,1.3-0.1l43,11.6
			c0.4,0.2,0.9,0.5,1.1,1c0.3,0.4,0.3,0.9,0,1.5c0,0-6.8,15.4-17.8,27c-7.5,8-17,14.1-27.5,12.7c-4.2-0.5-9.5-3.7-14.8-7.8
			C18018.6,12766.3,18006.5,12751.7,18006.5,12751.7z M18010.7,12751.1c3.5,4,12.8,14.4,22,21.6c4.7,3.7,9.3,6.6,13,7.1
			c9.4,1.2,17.8-4.5,24.5-11.7c8.2-8.7,14.1-19.7,16.2-24.1l-40.3-10.9L18010.7,12751.1z"/>
	</g>
	<g transform="matrix(0.744264,0,0,0.744264,-9074.23,-5251.55)">
		<circle class="st18" cx="13802.7" cy="8974.8" r="100.5"/>
		<g>
			<defs>
				<circle id="SVGID_29_" cx="13802.7" cy="8974.8" r="74.8"/>
			</defs>
			<clipPath id="SVGID_30_">
				<use xlink:href="#SVGID_29_"  style="overflow:visible;"/>
			</clipPath>
			<g class="st34">
				<g transform="matrix(1.0197,0,0,1.0197,-275.806,-187.753)">
					<path class="st27" d="M13790.4,8993.4c-12.1-6-20.4-18.4-20.4-32.8c0-20.2,16.3-36.5,36.5-36.5s36.5,16.4,36.5,36.5
						c0,14.4-8.3,26.9-20.4,32.8v12.2h5.2c25.1,0,45.6,20.4,45.6,45.6c0,19.7,0,38.2,0,38.2h-133.7c0,0,0-18.6,0-38.2
						c0-25.2,20.4-45.6,45.6-45.6h5.2V8993.4z"/>
				</g>
			</g>
		</g>
	</g>
	<g transform="matrix(0.744264,0,0,0.744264,-9074.23,-5251.55)">
		<path class="st6" d="M13802.7,8871.9c-56.8,0-102.8,46.1-102.8,102.9c0,56.8,46.1,102.9,102.8,102.9
			c56.8,0,102.9-46.1,102.9-102.9C13905.6,8918,13859.5,8871.9,13802.7,8871.9z M13802.7,8876.7c54.2,0,98.1,44,98.1,98.1
			s-43.9,98.1-98.1,98.1c-54.1,0-98.1-44-98.1-98.1S13748.6,8876.7,13802.7,8876.7z"/>
	</g>
	<g transform="matrix(0.744264,0,0,0.744264,-9074.23,-5000.76)">
		<circle class="st8" cx="13802.7" cy="8925.9" r="100.5"/>
		<g>
			<defs>
				<circle id="SVGID_31_" cx="13802.7" cy="8925.9" r="74.8"/>
			</defs>
			<clipPath id="SVGID_32_">
				<use xlink:href="#SVGID_31_"  style="overflow:visible;"/>
			</clipPath>
			<g class="st35">
				<g transform="matrix(1.0197,0,0,1.0197,-275.806,-187.753)">
					<path class="st27" d="M13790.4,8945.4c-12.1-6-20.4-18.4-20.4-32.8c0-20.2,16.3-36.5,36.5-36.5s36.5,16.4,36.5,36.5
						c0,14.4-8.3,26.9-20.4,32.8v12.2h5.2c25.1,0,45.6,20.4,45.6,45.6c0,19.7,0,38.2,0,38.2h-133.7c0,0,0-18.6,0-38.2
						c0-25.2,20.4-45.6,45.6-45.6h5.2V8945.4z"/>
				</g>
			</g>
		</g>
	</g>
	<g transform="matrix(0.744264,0,0,0.744264,-9074.23,-5000.76)">
		<path class="st6" d="M13802.7,8823c-56.8,0-102.8,46.1-102.8,102.9c0,56.8,46.1,102.9,102.8,102.9c56.8,0,102.9-46.1,102.9-102.9
			C13905.6,8869.1,13859.5,8823,13802.7,8823z M13802.7,8827.7c54.2,0,98.1,44,98.1,98.1c0,54.1-43.9,98.1-98.1,98.1
			c-54.1,0-98.1-44-98.1-98.1C13704.6,8871.7,13748.6,8827.7,13802.7,8827.7z"/>
	</g>
	<g transform="matrix(0.373661,0,0,0.373661,1590.33,403.829)">
		<path class="st24" d="M-676.7,48.1c0,22.7,18.4,41,41,41h300.9c22.7,0,41-18.4,41-41v-232.5h-383V48.1z M-403.1-119.4
			c0-5.6,4.6-10.3,10.3-10.3h34.2c5.6,0,10.3,4.6,10.3,10.3v34.2c0,5.6-4.6,10.3-10.3,10.3h-34.2c-5.6,0-10.3-4.6-10.3-10.3V-119.4z
			 M-403.1-10c0-5.6,4.6-10.3,10.3-10.3h34.2c5.6,0,10.3,4.6,10.3,10.3v34.2c0,5.6-4.6,10.3-10.3,10.3h-34.2
			c-5.6,0-10.3-4.6-10.3-10.3V-10z M-512.5-119.4c0-5.6,4.6-10.3,10.3-10.3h34.2c5.6,0,10.3,4.6,10.3,10.3v34.2
			c0,5.6-4.6,10.3-10.3,10.3h-34.2c-5.6,0-10.3-4.6-10.3-10.3V-119.4z M-512.5-10c0-5.6,4.6-10.3,10.3-10.3h34.2
			c5.6,0,10.3,4.6,10.3,10.3v34.2c0,5.6-4.6,10.3-10.3,10.3h-34.2c-5.6,0-10.3-4.6-10.3-10.3V-10z M-621.9-119.4
			c0-5.6,4.6-10.3,10.3-10.3h34.2c5.6,0,10.3,4.6,10.3,10.3v34.2c0,5.6-4.6,10.3-10.3,10.3h-34.2c-5.6,0-10.3-4.6-10.3-10.3V-119.4z
			 M-621.9-10c0-5.6,4.6-10.3,10.3-10.3h34.2c5.6,0,10.3,4.6,10.3,10.3v34.2c0,5.6-4.6,10.3-10.3,10.3h-34.2
			c-5.6,0-10.3-4.6-10.3-10.3V-10z M-334.7-293.8h-41v-41c0-7.5-6.2-13.7-13.7-13.7h-27.4c-7.5,0-13.7,6.2-13.7,13.7v41h-109.4v-41
			c0-7.5-6.2-13.7-13.7-13.7h-27.4c-7.5,0-13.7,6.2-13.7,13.7v41h-41c-22.7,0-41,18.4-41,41v41h383v-41
			C-293.7-275.5-312.1-293.8-334.7-293.8z"/>
	</g>
	<g transform="matrix(1.1593,-0.00186226,0.00186226,1.1593,-8989.51,-5831.92)">
		<path class="st11" d="M8402.6,5495.6c0,0,4.7,52.2-7.6,74c-12.3,21.7-29.3,24.7-38.9,24.8l-0.8,46.4c0,0-28.2,15.8-65.6-4.1
			l7.9-142.3c0,0,56.7,5.2,78.9-22.2C8376.4,5472.2,8384,5492,8402.6,5495.6z"/>
		<g>
			<defs>
				<path id="SVGID_33_" d="M8402.6,5495.6c0,0,4.7,52.2-7.6,74c-12.3,21.7-29.3,24.7-38.9,24.8l-0.8,46.4c0,0-28.2,15.8-65.6-4.1
					l7.9-142.3c0,0,56.7,5.2,78.9-22.2C8376.4,5472.2,8384,5492,8402.6,5495.6z"/>
			</defs>
			<clipPath id="SVGID_34_">
				<use xlink:href="#SVGID_33_"  style="overflow:visible;"/>
			</clipPath>
			<g class="st36">
				<g transform="matrix(0.944271,0,0,0.944271,377.435,266.843)">
					<path class="st13" d="M8450.5,5641.6c-6.4,0-12.7-1.5-18.8-3.4c-2.5-0.7-6.9-2.7-9.6-1.6c-2,0.9-2.4,4.2-2.5,6
						c-0.3,5.3,1.3,10.3,3.5,15c6.4,13.6,16.1,26.8,31.1,31.6c9.2,2.9,19.6,0.8,23.3-8.8c0.6-1.6,0.9-3.2,0.8-5L8450.5,5641.6z"/>
				</g>
			</g>
		</g>
	</g>
	<g transform="matrix(1.1593,-0.00186226,0.00186226,1.1593,-8989.51,-5831.92)">
		<path class="st6" d="M8404.1,5495.5c-0.1-0.7-0.6-1.2-1.2-1.4c-17.8-3.5-25-22.4-25-22.4c-0.2-0.5-0.7-0.9-1.2-1
			c-0.5-0.1-1.1,0.1-1.4,0.6c-8.6,10.7-22.7,16.3-36.4,19.1c-20.9,4.4-41.1,2.5-41.1,2.5c-0.4,0-0.8,0.1-1.1,0.4s-0.5,0.7-0.5,1.1
			l-7.9,142.3c0,0.6,0.3,1.2,0.8,1.4c38.2,20.3,67.1,4.1,67.1,4.1c0.5-0.3,0.8-0.8,0.8-1.3l0.8-44.9c10.2-0.4,26.7-4.2,38.7-25.6
			c5-8.9,7.3-22.7,8.2-36.1C8405.8,5514.4,8404.1,5495.5,8404.1,5495.5z M8401.1,5496.9c0.3,4.3,1.4,20.4,0.3,37.2
			c-0.8,12.9-3,26.2-7.8,34.8c-11.9,21-28.3,23.9-37.6,24.1c-0.8,0-1.5,0.7-1.5,1.5l-0.8,45.5c-4.7,2.2-30,12.8-62.5-4l7.8-139.7
			c5.2,0.3,22.6,1,40.4-2.7c13.6-2.9,27.5-8.3,36.6-18.4C8378.7,5480.4,8386.5,5493.4,8401.1,5496.9z"/>
	</g>
	<g transform="matrix(-1.15812,0.0523956,0.0523956,1.15812,2934.38,-251.094)">
		<path class="st8" d="M1997.8,584.8c-14.9-47.2-51.1-75.4-51.1-75.4c5.3-1.4,13.3-1.7,24.4-0.7c30.6,17.1,45.8,62,49.3,74.4
			c12.5,3.9,21.7,15.6,21.7,29.5c0,17-13.8,30.9-30.9,30.9c-17,0-30.9-13.8-30.9-30.9C1980.4,600.4,1987.5,589.8,1997.8,584.8z"/>
	</g>
	<g transform="matrix(-1.15812,0.0523956,0.0523956,1.15812,2934.38,-251.094)">
		<path class="st6" d="M1996,584c-15-46-50.2-73.4-50.2-73.4c-0.5-0.4-0.7-0.9-0.6-1.5c0.1-0.6,0.5-1,1.1-1.2
			c5.5-1.5,13.6-1.8,24.9-0.7c0.2,0,0.4,0.1,0.6,0.2c30.4,17,45.8,61,49.8,74.5c12.8,4.3,22,16.4,22,30.7
			c0,17.9-14.5,32.4-32.4,32.4s-32.4-14.5-32.4-32.4C1978.8,600.2,1985.8,589.5,1996,584L1996,584z M1999.3,584.3
			c0.2,0.7-0.1,1.5-0.8,1.8c-9.8,4.7-16.6,14.8-16.6,26.4c0,16.2,13.1,29.3,29.3,29.3c16.2,0,29.3-13.1,29.3-29.3
			c0-13.1-8.7-24.3-20.6-28c-0.5-0.2-0.9-0.5-1-1c-3.5-12.2-18.3-56.3-48.3-73.3c-8.8-0.8-15.5-0.8-20.5,0
			C1958.6,517.6,1986.6,544.1,1999.3,584.3z"/>
	</g>
	<g transform="matrix(-1.15812,0.0523956,0.0523956,1.15812,2934.38,-251.094)">
		<path class="st6" d="M1992.6,637.1c0,0-12.9,18.3-32.8,23.2c-0.8,0.2-1.6-0.3-1.9-1.1c-0.2-0.8,0.3-1.7,1.1-1.9
			c18.8-4.6,31-21.9,31-21.9c0.5-0.7,1.4-0.9,2.1-0.4C1993,635.5,1993.1,636.4,1992.6,637.1z"/>
	</g>
	<g transform="matrix(-1.35562,0.061331,0.061331,1.35562,3293.79,-433.836)">
		
			<ellipse transform="matrix(0.999 -4.519579e-02 4.519579e-02 0.999 -29.0549 88.3551)" class="st6" cx="1939.4" cy="686.7" rx="8.9" ry="8.9"/>
	</g>
	<g transform="matrix(1.1593,-0.00186226,0.00186226,1.1593,-8989.51,-5831.92)">
		<path class="st11" d="M8375.1,5511.8c0,0,25.8,25.2,42.1,34.1c0,0-34-2.6-44.9-6.7l-3.4,13.7c0,0-13.5,1.1-23.9-5.5L8375.1,5511.8
			z"/>
	</g>
	<g transform="matrix(1.1593,-0.00186226,0.00186226,1.1593,-8989.51,-5831.92)">
		<path class="st6" d="M8374,5512.9c0,0,20.7,20.2,36.8,30.9c-10.3-1-30.2-3.1-38-6.1c-0.4-0.2-0.9-0.1-1.3,0.1
			c-0.4,0.2-0.7,0.6-0.8,1l-3.1,12.6c-3.3,0.1-13.6-0.1-21.9-5.3c-0.7-0.5-1.7-0.2-2.1,0.5c-0.5,0.7-0.2,1.7,0.5,2.1
			c10.9,6.9,24.9,5.7,24.9,5.7c0.7-0.1,1.2-0.5,1.4-1.2l3-12.1c12.4,3.9,43.7,6.3,43.7,6.3c0.7,0.1,1.4-0.4,1.6-1.1
			c0.2-0.7-0.1-1.4-0.7-1.8c-16.2-8.8-41.7-33.9-41.7-33.9c-0.6-0.6-1.6-0.6-2.2,0C8373.4,5511.3,8373.4,5512.3,8374,5512.9z"/>
	</g>
	<g transform="matrix(0.980813,0.0764129,-0.105402,1.35291,-867.513,-540.936)">
		
			<ellipse transform="matrix(7.767215e-02 -0.997 0.997 7.767215e-02 840.3962 2326.1313)" class="st6" cx="1677.4" cy="708.9" rx="8.9" ry="6.5"/>
	</g>
	<g transform="matrix(-0.864309,0,0,0.864309,16788.2,-4286.74)">
		<path class="st37" d="M18742.1,6122.5h-389l0,0c0,24.2,19.6,43.8,43.8,43.8c74.9,0,226.6,0,301.5,0
			C18722.6,6166.3,18742.1,6146.7,18742.1,6122.5L18742.1,6122.5z"/>
	</g>
	<g transform="matrix(-0.864309,0,0,0.864309,16788.2,-4286.74)">
		<path class="st6" d="M18740.2,6122.3c0.1-1,0.9-1.8,2-1.8h-389c1.1,0,2.1,0.9,2.1,2.1l0,0v0.1c0,0.5-0.3,1-0.7,1.4
			c-0.6,0.5-1.4,0.5-1.4,0.5l-0.1-0.2c-0.4-0.7-2-3.6-2-1.9c0,25.3,20.5,45.8,45.8,45.8c74.9,0,226.6,0,301.5,0
			c25.3,0,45.8-20.5,45.8-45.8c0,1.9-2.1,2.1-2.1,2.1l0,0l0,0C18742.1,6124.6,18740.3,6121,18740.2,6122.3z M18740.1,6124.6h-384.8
			c1,22.1,19.3,39.6,41.6,39.6c74.9,0,226.6,0,301.5,0C18720.8,6164.2,18739,6146.7,18740.1,6124.6z M18740.1,6122.5L18740.1,6122.5
			L18740.1,6122.5z M18740.2,6122.3L18740.2,6122.3L18740.2,6122.3z"/>
	</g>
	<g transform="matrix(-0.864309,0,0,0.864309,16786.3,-4286.74)">
		<path class="st37" d="M18516.8,5929.3c-3.8-8.8-12.4-14.6-22-14.6c-39.1,0-140.9,0-195.7,0c-8,0-15.6,4-20,10.7
			c-4.4,6.7-5.2,15.2-2.1,22.6c25,58.7,74.4,174.5,74.4,174.5h247.7C18599.2,6122.5,18537,5976.5,18516.8,5929.3z"/>
		<g>
			<defs>
				<path id="SVGID_35_" d="M18516.8,5929.3c-3.8-8.8-12.4-14.6-22-14.6c-39.1,0-140.9,0-195.7,0c-8,0-15.6,4-20,10.7
					c-4.4,6.7-5.2,15.2-2.1,22.6c25,58.7,74.4,174.5,74.4,174.5h247.7C18599.2,6122.5,18537,5976.5,18516.8,5929.3z"/>
			</defs>
			<clipPath id="SVGID_36_">
				<use xlink:href="#SVGID_35_"  style="overflow:visible;"/>
			</clipPath>
			<g class="st38">
				<g transform="matrix(1,0,0,1,-23.7328,0)">
					<path class="st2" d="M18520.3,5929.3c-3.8-8.8-12.4-14.6-22-14.6c-39.1,0-140.9,0-195.7,0c-8,0-15.6,4-20,10.7
						c-4.4,6.7-5.2,15.2-2.1,22.6c25,58.7,74.4,174.5,74.4,174.5h247.7C18602.7,6122.5,18540.4,5976.5,18520.3,5929.3z"/>
				</g>
				<g transform="matrix(1,0,0,1,-23.7328,0)">
					<path class="st6" d="M18522.1,5928.5l82.5,193.3c0.3,0.6,0.2,1.4-0.2,1.9c-0.4,0.6-1,0.9-1.8,0.9h-247.7
						c-0.8,0-1.5-0.5-1.9-1.2c0,0-49.3-115.7-74.4-174.5c-3.4-8-2.7-17.3,2.2-24.5c4.8-7.3,12.9-11.7,21.7-11.7
						c54.8,0,156.6,0,195.7,0C18508.6,5912.7,18518.1,5918.9,18522.1,5928.5z M18518.4,5930.1c-3.4-8.1-11.4-13.3-20.1-13.3
						c-39.1,0-140.9,0-195.7,0c-7.4,0-14.3,3.7-18.3,9.8c-4,6.1-4.8,13.9-1.9,20.7c23.5,55.2,68.5,160.6,73.9,173.2h243.3
						C18589.3,6096.5,18518.4,5930.1,18518.4,5930.1L18518.4,5930.1z"/>
				</g>
			</g>
		</g>
	</g>
	<g transform="matrix(-0.864309,0,0,0.864309,16786.3,-4286.74)">
		<path class="st6" d="M18518.7,5928.5l82.5,193.3c0.3,0.6,0.2,1.4-0.2,1.9c-0.4,0.6-1,0.9-1.8,0.9h-247.7c-0.8,0-1.5-0.5-1.9-1.2
			c0,0-49.3-115.7-74.4-174.5c-3.4-8-2.7-17.3,2.2-24.5c4.8-7.3,12.9-11.7,21.7-11.7c54.8,0,156.6,0,195.7,0
			C18505.2,5912.7,18514.7,5918.9,18518.7,5928.5z M18514.9,5930.1c-3.4-8.1-11.4-13.3-20.1-13.3c-39.1,0-140.9,0-195.7,0
			c-7.4,0-14.3,3.7-18.3,9.8c-4,6.1-4.8,13.9-1.9,20.7c23.5,55.2,68.5,160.6,73.9,173.2h243.3
			C18585.9,6096.5,18514.9,5930.1,18514.9,5930.1L18514.9,5930.1z"/>
	</g>
	<g transform="matrix(0.727899,0,-0.188708,0.727899,-4137.22,-3343.74)">
		<path class="st17" d="M8430.3,5869.3l-18.9,17.4l-44.5-22.6c0,0,36.5-29.7,44.9-48.6c0,0-3.8,29.3-10.9,41.9L8430.3,5869.3z"/>
	</g>
	<g transform="matrix(0.727899,0,-0.188708,0.727899,-4137.22,-3343.74)">
		<path class="st6" d="M8432.3,5871.2c0.6-0.5,0.7-1.4,0.4-2.2c-0.3-0.9-1-1.6-1.9-2l-26.1-10.7c6.4-13.8,9.8-40,9.8-40
			c0.1-1.2-0.7-2.5-1.9-3c-1.2-0.6-2.5-0.3-3,0.8c-8.3,18.7-44.4,48-44.4,48c-0.6,0.5-0.8,1.3-0.5,2.1c0.2,0.8,0.9,1.6,1.7,2
			l44.5,22.6c1,0.5,2,0.4,2.7-0.2L8432.3,5871.2z M8425.7,5869.8l-15.1,13.9l-39-19.8c6.7-5.7,24.7-21.4,35.6-35.7
			c-1.8,9.2-4.6,20.8-8.4,27.5c-0.3,0.6-0.3,1.4,0,2.1c0.4,0.7,1,1.4,1.8,1.7L8425.7,5869.8z"/>
	</g>
	<g transform="matrix(1,0,0,1,-17054.6,-12050.6)">
		<path class="st11" d="M17739.6,13093.4l185.4,0.2c0,0-7.9,65.7-169.4,74.9L17739.6,13093.4z"/>
		<g>
			<defs>
				<path id="SVGID_37_" d="M17739.6,13093.4l185.4,0.2c0,0-7.9,65.7-169.4,74.9L17739.6,13093.4z"/>
			</defs>
			<clipPath id="SVGID_38_">
				<use xlink:href="#SVGID_37_"  style="overflow:visible;"/>
			</clipPath>
			<g class="st39">
				<path class="st13" d="M17928.2,13095.1c-29.2,13.8-62.3,22.1-94.6,23.4c-18.6,0.8-56.4-2-72.2,7.8
					c-15.1,9.2-12.7,33.6-11.2,48.5c0.5,5.5,4.2,17.8-5.3,17.9c-10.8,0.1-19.4-4.4-27.5-11.1c-6.6-5.5-12.1-12.5-17-19.4
					c-16.2-23-38-75.5-3.1-93.8c26.5-13.8,74.9-6.2,103.7-4.8c31.5,1.6,63.7,2.4,95.1,0.8c18.3-1,36.7-4.2,55-4.6L17928.2,13095.1z"
					/>
			</g>
		</g>
	</g>
	<g transform="matrix(1,0,0,1,-17054.6,-12050.6)">
		<path class="st6" d="M17739.6,13091.7c-0.5,0-1,0.3-1.4,0.7c-0.3,0.3-0.4,0.9-0.3,1.5l15.9,75.1c0.2,0.9,0.9,1.5,1.9,1.5
			c163.4-9.3,171.1-76.4,171.1-76.4c0-0.5-0.2-1-0.5-1.5c-0.3-0.3-0.8-0.6-1.3-0.6L17739.6,13091.7z M17741.9,13095.2l181,0.2
			c-2.9,10.9-24.3,62.8-165.8,71.2L17741.9,13095.2z"/>
	</g>
	<g transform="matrix(1,0,0,1,-17054.6,-12050.6)">
		<path class="st6" d="M17798.3,13135c0,0,19.6-6.3,34.3-13.4c6.5-3.2,12.1-6.5,14.7-9.5c9.4-10.5,4.5-19.5,4.5-19.5
			c-0.4-0.9-1.5-1.2-2.4-0.8c-0.9,0.5-1.2,1.5-0.8,2.4c0,0,3.5,7.1-4,15.6c-2.5,2.7-7.6,5.6-13.6,8.5c-14.5,7-33.9,13.2-33.9,13.2
			c-0.9,0.3-1.5,1.4-1.2,2.3C17796.3,13134.7,17797.3,13135.3,17798.3,13135z"/>
	</g>
	<g transform="matrix(1,0,0,1,-17054.6,-12050.6)">
		<path class="st27" d="M18048.8,12343c-10.7-10.3-17.4-24.9-17.4-40.9c0-31.5,25.6-57,57-57c31.5,0,57,25.6,57,57
			c0,16.1-6.7,30.6-17.4,40.9c0,0-18.6,20.6-30.3,33.5c-2.4,2.7-5.8,4.2-9.3,4.2c-3.6,0-6.9-1.5-9.3-4.2
			C18067.5,12363.6,18048.8,12343,18048.8,12343z M18088.5,12279.1c12.7,0,22.9,10.3,22.9,22.9s-10.3,22.9-22.9,22.9
			c-12.7,0-22.9-10.3-22.9-22.9S18075.9,12279.1,18088.5,12279.1z"/>
	</g>
	<g transform="matrix(1,0,0,1,-17080.7,-12070.3)">
		<path class="st6" d="M18401.4,13467.2h224.8c1,0,1.8-0.8,1.8-1.7c0-1-0.8-1.8-1.8-1.8h-224.8c-1,0-1.8,0.8-1.8,1.8
			C18399.6,13466.5,18400.4,13467.2,18401.4,13467.2z"/>
	</g>
	<g transform="matrix(0.626933,0,0,1,-10122.5,-11993.4)">
		<path class="st6" d="M18252.7,13456.1h224.8c1.6,0,2.8-0.8,2.8-1.7c0-1-1.2-1.8-2.8-1.8h-224.8c-1.6,0-2.9,0.8-2.9,1.8
			C18249.7,13455.3,18251,13456.1,18252.7,13456.1z"/>
	</g>
	<g transform="matrix(1,0,0,1,-17080.7,-11819.5)">
		<path class="st6" d="M18401.4,13430.8h224.8c1,0,1.8-0.8,1.8-1.7c0-1-0.8-1.8-1.8-1.8h-224.8c-1,0-1.8,0.8-1.8,1.8
			C18399.6,13430.1,18400.4,13430.8,18401.4,13430.8z"/>
	</g>
	<g transform="matrix(0.626933,0,0,1,-10122.5,-11742.7)">
		<path class="st6" d="M18252.7,13419.7h224.8c1.6,0,2.8-0.8,2.8-1.7c0-1-1.2-1.8-2.8-1.8h-224.8c-1.6,0-2.9,0.8-2.9,1.8
			C18249.7,13418.9,18251,13419.7,18252.7,13419.7z"/>
	</g>
	<g transform="matrix(1,0,0,1,-16966,-12065.4)">
		<path class="st6" d="M18771.6,13445.2c-26.6,0-48.2,21.6-48.2,48.2c0,26.6,21.6,48.2,48.2,48.2s48.2-21.6,48.2-48.2
			C18819.8,13466.9,18798.2,13445.2,18771.6,13445.2z M18771.6,13448.8c24.6,0,44.6,20,44.6,44.6c0,24.6-20,44.6-44.6,44.6
			c-24.6,0-44.6-20-44.6-44.6C18727,13468.8,18747,13448.8,18771.6,13448.8z"/>
	</g>
	<g transform="matrix(1,0,0,1,-17044.3,-12069.3)">
		<path class="st6" d="M18826,13491.5c3.2,0,5.9,2.6,5.9,5.8s-2.7,5.8-5.9,5.8c-3.2,0-5.8-2.6-5.8-5.8
			S18822.9,13491.5,18826,13491.5z M18849.9,13491.5c3.2,0,5.9,2.6,5.9,5.8s-2.6,5.8-5.9,5.8c-3.2,0-5.8-2.6-5.8-5.8
			S18846.7,13491.5,18849.9,13491.5z M18873.6,13491.5c3.2,0,5.8,2.6,5.8,5.8s-2.6,5.8-5.8,5.8c-3.2,0-5.8-2.6-5.8-5.8
			S18870.5,13491.5,18873.6,13491.5z"/>
	</g>
	<g transform="matrix(1,0,0,1,-16966,-11814.6)">
		<path class="st6" d="M18771.6,13408.8c-26.6,0-48.2,21.6-48.2,48.2s21.6,48.2,48.2,48.2s48.2-21.6,48.2-48.2
			S18798.2,13408.8,18771.6,13408.8z M18771.6,13412.4c24.6,0,44.6,20,44.6,44.6c0,24.6-20,44.6-44.6,44.6
			c-24.6,0-44.6-20-44.6-44.6C18727,13432.4,18747,13412.4,18771.6,13412.4z"/>
	</g>
	<g transform="matrix(1,0,0,1,-17044.3,-11818.5)">
		<path class="st6" d="M18826,13455.1c3.2,0,5.9,2.6,5.9,5.8c0,3.2-2.7,5.8-5.9,5.8c-3.2,0-5.8-2.6-5.8-5.8
			C18820.2,13457.7,18822.9,13455.1,18826,13455.1z M18849.9,13455.1c3.2,0,5.9,2.6,5.9,5.8c0,3.2-2.6,5.8-5.9,5.8
			c-3.2,0-5.8-2.6-5.8-5.8C18844.1,13457.7,18846.7,13455.1,18849.9,13455.1z M18873.6,13455.1c3.2,0,5.8,2.6,5.8,5.8
			c0,3.2-2.6,5.8-5.8,5.8c-3.2,0-5.8-2.6-5.8-5.8C18867.8,13457.7,18870.5,13455.1,18873.6,13455.1z"/>
	</g>
</g>
</svg>
