<?xml version="1.0" encoding="utf-8"?>
<!-- Generator: Adobe Illustrator 25.3.1, SVG Export Plug-In . SVG Version: 6.00 Build 0)  -->
<svg version="1.1" id="Layer_1" xmlns="http://www.w3.org/2000/svg" xmlns:xlink="http://www.w3.org/1999/xlink" x="0px" y="0px"
	 viewBox="0 0 3000 3000" style="enable-background:new 0 0 3000 3000;" xml:space="preserve">
<style type="text/css">
	.st0{fill:#7055BD;}
	.st1{fill:#A684F8;}
	.st2{fill-rule:evenodd;clip-rule:evenodd;fill:#7055BD;}
	.st3{fill:#B69DF2;}
	.st4{fill:#B9ACE5;}
	.st5{fill:#8D7FD3;}
	.st6{fill:#2F4C8B;}
	.st7{fill:#5362A4;}
	.st8{fill:#B5F1FF;}
	.st9{fill:#D9F8FF;}
	.st10{fill:#99ABD4;}
	.st11{fill:#7D9FE2;}
	.st12{fill:#CBE7FB;}
	.st13{fill:#6BB3F3;}
	.st14{fill-rule:evenodd;clip-rule:evenodd;fill:#4698E6;}
	.st15{fill-rule:evenodd;clip-rule:evenodd;fill:#2F4C8B;}
	.st16{fill-rule:evenodd;clip-rule:evenodd;fill:#5362A4;}
	.st17{fill-rule:evenodd;clip-rule:evenodd;fill:#2D7BC6;}
	.st18{fill:#FDA949;}
	.st19{fill-rule:evenodd;clip-rule:evenodd;fill:#EE9436;}
	.st20{fill-rule:evenodd;clip-rule:evenodd;fill:#CA6C0B;}
	.st21{fill:#F1AE29;}
	.st22{fill:#D5F4F2;}
	.st23{fill:#FFFFFF;}
	.st24{fill:#A8F6F1;}
	.st25{fill-rule:evenodd;clip-rule:evenodd;fill:#D7FFFC;}
	.st26{fill-rule:evenodd;clip-rule:evenodd;fill:#E9F0FF;}
	.st27{fill-rule:evenodd;clip-rule:evenodd;fill:#A7B8DA;}
	.st28{fill:#A7B8DA;}
	.st29{fill-rule:evenodd;clip-rule:evenodd;fill:#D7E1FC;}
	.st30{fill-rule:evenodd;clip-rule:evenodd;fill:#A684F8;}
	.st31{fill:#D7E1FC;}
	.st32{fill-rule:evenodd;clip-rule:evenodd;fill:#FFFFFF;}
	.st33{fill-rule:evenodd;clip-rule:evenodd;fill:#5E689D;}
	.st34{fill-rule:evenodd;clip-rule:evenodd;}
	.st35{fill:#59FFFF;}
	.st36{fill-rule:evenodd;clip-rule:evenodd;fill:#59FFFF;}
	.st37{fill-rule:evenodd;clip-rule:evenodd;fill:#6170AF;}
	.st38{fill:#2D7BC6;}
	.st39{fill:#4698E6;}
</style>
<path class="st0" d="M737.6,2324.5c-111.2-7.6-152.4-89.5-159.1-129.5c79.1-9.7,204.2,57.9,256.8,92.9
	C849,2303.3,848.7,2332.1,737.6,2324.5z"/>
<path class="st1" d="M685.5,2076.5c-18.2,101.3-0.3,301.7,217.1,293.4C910.7,2306.1,878.7,2158.2,685.5,2076.5z"/>
<path class="st2" d="M903.6,2357.1c-66.2-45.4-148.9-127.4-206.3-258.2c22.9,68.7,86.5,201.6,180.2,270.9c8.1,0.3,16.4,0.3,25.1,0
	C903.1,2366,903.4,2361.7,903.6,2357.1z"/>
<path class="st3" d="M541.7,2322.7c61-43.6,219.3-93.5,365,55.6C869.1,2414,743.4,2452.9,541.7,2322.7z"/>
<path class="st2" d="M896,2386.8c-115.9-65.9-261.2-70.3-329.3-62.2c113.6-28.7,243.1,7,331.1,44.9c3,2.9,5.9,5.8,8.9,8.9
	C903.7,2381.1,900.1,2384,896,2386.8z"/>
<path class="st4" d="M661,1874.8c7.1,10.6,18.7,37.3,14.1,66c7.8,7.6,16.3,16,25.1,25.3c-6.4-17.2-11.3-42.5-1.2-62.8
	c6.8,10.5,17.4,38.7,8.7,70.8c10.7,11.5,21.8,24.1,33,37.6c-8.4-20.7-15.5-48.4-13.2-77.5c11.8,15.5,33.1,55.5,29.6,97.8
	c13.6,17.4,27.2,36,40.3,55.7c-7.3-23.6-13.2-57.5-8.2-94.2c12,20.3,32.1,70.1,21,114.1c8.5,13.6,16.6,27.7,24.2,42.1
	c-5.6-26.2-8.9-59.7-4.9-96.9c12.1,9.8,32.6,50,23,134c6.4,14.4,12.2,29,17.3,43.8H858c-0.6-7.1-3.1-17.5-8-30.9
	c-51.1-4.3-112.3-49.1-136.7-71.1c66.3,3.7,117.1,46.4,136,69.1c-8-21.3-21.9-49.9-44.1-85.3c-42.5,9.5-97.8-40.3-120.4-66.8
	c58,11,95.7,37.8,113.6,56.2c-12.1-18.6-26.4-38.9-43.1-60.9c-50.8,1.6-82.4-30.9-91.8-47.5c44.1,8.5,70.6,24.7,83.7,37
	c-20.6-26.4-44.7-55-72.7-85.7c-0.4,2-0.9,4-1.5,6c-2.7-3.7-6-9.4-8.9-16.5c-46.5,3.3-78.2-8.1-88.3-14.4c43.9-5.3,75,5.3,87.5,12.6
	c-5.3-5.7-10.7-11.5-16.3-17.3c4.5,3.8,9.5,8.2,14.9,13.1C656.7,1913.4,654.2,1894.2,661,1874.8z"/>
<path class="st0" d="M869.8,2230.5c-49.4-144.2-169.3-270.4-223.1-315.4c161.4,168.9,208,280.6,211.2,315.4H869.8z"/>
<path class="st4" d="M2086,1787c-101.9,68.5-298.4,286.3-268.9,609.2C1919,2353.8,2115.5,2172.7,2086,1787z"/>
<path class="st5" d="M2211.6,2073c-13.6,87.6-102.5,278.6-349.2,341.7C1878.5,2330.9,1970.8,2145.1,2211.6,2073z"/>
<path class="st2" d="M1867.9,2386.8c66.3-91.6,173.7-210.8,293.5-262.8c-60,35.7-196,140.3-291.8,288.4c-3,0.8-5.9,1.6-9,2.3
	C1862.3,2406.4,1864.7,2397,1867.9,2386.8z"/>
<path class="st2" d="M1828.7,2389.5c25.2-200.6,151.9-417.9,216-506.1c-124.7,141.3-197.7,344-230.1,472.9
	c0.5,12.6,1.3,25.4,2.5,38.4C1820.8,2393.1,1824.7,2391.4,1828.7,2389.5z"/>
<path class="st6" d="M821.5,620.9c0-38.8,31.5-70.3,70.3-70.3h919.9c38.8,0,70.3,31.5,70.3,70.3v1708.5c0,38.8-31.5,70.3-70.3,70.3
	H891.8c-38.8,0-70.3-31.5-70.3-70.3V620.9z"/>
<path class="st7" d="M888.5,731.8c0-38.8,31.5-70.3,70.3-70.3h786c38.8,0,70.3,31.5,70.3,70.3v1486.7c0,38.8-31.5,70.3-70.3,70.3
	h-786c-38.8,0-70.3-31.5-70.3-70.3V731.8z"/>
<path class="st8" d="M902.8,731c0-30.3,24.6-54.9,54.9-54.9h787.5c30.3,0,54.9,24.6,54.9,54.9v1488.2c0,30.3-24.6,54.9-54.9,54.9
	H957.7c-30.3,0-54.9-24.6-54.9-54.9V731z"/>
<path class="st9" d="M1231,615.4c0,4.6,3.7,8.2,8.2,8.2h269.4c4.5,0,8.2-3.7,8.2-8.2l0,0c0-4.6-3.7-8.2-8.2-8.2h-269.4
	C1234.7,607.2,1231,610.9,1231,615.4L1231,615.4z"/>
<path class="st9" d="M1214.5,615.4c0,4.6-3.7,8.2-8.2,8.2h-5.5c-4.6,0-8.2-3.7-8.2-8.2l0,0c0-4.6,3.7-8.2,8.2-8.2h5.5
	C1210.8,607.2,1214.5,610.9,1214.5,615.4L1214.5,615.4z"/>
<path d="M999.3,1167.1c0,13.3-11.2,24.1-25.1,24.1s-25.1-10.8-25.1-24.1c0-13.3,11.2-24.1,25.1-24.1S999.3,1153.9,999.3,1167.1z"/>
<path class="st6" d="M1005.6,1167.1c0,13.3-10.8,24.1-24.1,24.1c-13.3,0-24.1-10.8-24.1-24.1c0-13.3,10.8-24.1,24.1-24.1
	C994.8,1143.1,1005.6,1153.9,1005.6,1167.1z"/>
<path class="st10" d="M965.8,1166.1c0-9.2,7.5-16.7,16.7-16.7h803.2c9.2,0,16.7,7.5,16.7,16.7l0,0c0,9.2-7.5,16.7-16.7,16.7H982.6
	C973.3,1182.8,965.8,1175.3,965.8,1166.1L965.8,1166.1z"/>
<path class="st11" d="M970.9,2026.3c0-32.8,26.5-59.3,59.3-59.3h643.4c32.8,0,59.3,26.5,59.3,59.3v149.3c0,32.8-26.5,59.3-59.3,59.3
	h-643.4c-32.7,0-59.3-26.5-59.3-59.3V2026.3z"/>
<path class="st12" d="M1014.8,2129.5c0-2.4,2-4.4,4.4-4.4h665.4c2.4,0,4.4,2,4.4,4.4l0,0c0,2.4-2,4.4-4.4,4.4h-665.4
	C1016.7,2133.9,1014.8,2131.9,1014.8,2129.5L1014.8,2129.5z"/>
<path class="st12" d="M1014.8,2155.9c0-2.4,2-4.4,4.4-4.4h665.4c2.4,0,4.4,2,4.4,4.4l0,0c0,2.4-2,4.4-4.4,4.4h-665.4
	C1016.7,2160.3,1014.8,2158.3,1014.8,2155.9L1014.8,2155.9z"/>
<path class="st12" d="M1014.8,2182.2c0-2.4,2-4.4,4.4-4.4h665.4c2.4,0,4.4,2,4.4,4.4l0,0c0,2.4-2,4.4-4.4,4.4h-665.4
	C1016.7,2186.6,1014.8,2184.7,1014.8,2182.2L1014.8,2182.2z"/>
<path class="st11" d="M970.9,818.5c0-19.4,15.7-35.1,35.1-35.1h691.7c19.4,0,35.1,15.7,35.1,35.1v96.6c0,19.4-15.7,35.1-35.1,35.1
	H1006c-19.4,0-35.1-15.7-35.1-35.1V818.5z"/>
<path class="st12" d="M1135.5,822.9c0-9.7,7.9-17.6,17.6-17.6h524.8c9.7,0,17.6,7.9,17.6,17.6v87.8c0,9.7-7.9,17.6-17.6,17.6h-524.8
	c-9.7,0-17.6-7.9-17.6-17.6V822.9z"/>
<path class="st13" d="M1277.5,1545.2l45,26.2c7.5,61.1,3.1,218.6,0,289.7c94.1,77.4,223.8,25.1,263.5-7.3l-6.3-276.1
	c56.5,0,46.8-8.4,46-49.2c-2.1-110.9-8.4-189.3-25.1-203.9c-13.4-11.7-64.8-47.4-88.9-63.8l-142.2,7.3l-8.4,13.6
	c-62.8,37.6-71.1,70.1-74.2,117.1C1284.4,1436.5,1279.6,1512.1,1277.5,1545.2z"/>
<path class="st14" d="M1322.5,1571.4l-45-26.2c0.1-1.9,0.2-4,0.4-6.2l43.5,24l14.6-141.2l10.5,200.8c0.8,21.7,2,47.7,3.2,75.4
	c3,64,6.3,136.7,5.6,184.4c-11.3-5.6-22.3-12.7-32.8-21.4C1325.6,1789.9,1330,1632.4,1322.5,1571.4z"/>
<path class="st14" d="M1366.1,1273.7l22.3,25.8l41.8,19.9c10.1-1,30.5-3.3,31.4-4.2c0.8-0.8,28.2-22.7,41.8-33.5l10.6-19.4
	c-0.8-0.5-1.5-1-2.2-1.5l-142.2,7.3L1366.1,1273.7z"/>
<path class="st14" d="M1626.8,1557l-42.9,4l-26.1-157.9l11.3,462.4c1.5-0.9,3-1.8,4.4-2.7l9.2-158l-2.9-127
	C1619.4,1577.6,1626.4,1573.5,1626.8,1557z"/>
<path class="st15" d="M1440.4,1221.3l66.2,48.6l-6.5,8.8l-59.2-43.4l-60.5,51.6l-7.1-8.4L1440.4,1221.3z"/>
<path class="st16" d="M1451,1145.3c-1.7-5.2-7.3-8.1-13.9-6.7c-7.2,1.6-11,5.2-13.3,8.9c-2.4,4-3.3,8.4-3.8,11.9l-15.2-2.2
	c0.6-3.9,1.8-10.9,5.9-17.7c4.3-7,11.5-13.3,23.1-15.9c12.2-2.7,27,2.2,31.8,16.9c4.4,13.4-1,31.5-18.3,53v38h-15.4v-43.6l1.8-2.1
	C1451.6,1164.3,1453,1151.2,1451,1145.3z"/>
<path class="st17" d="M1434.3,1322.1c12.8,1.3,26.4-4.8,39.2-13.4c13.2-8.8,26.9-21.1,40.2-34.6c2.3-2.3,4.7-4.8,7-7.2
	c-3.3-2.2-6.3-4.3-9-6.2l-6.8,0.3c-0.7,0.7-1.4,1.5-2.1,2.2c-13.1,13.2-26,24.7-37.8,32.7c-12.2,8.1-22,11.6-29.2,10.9
	c-17.7-1.7-33.8-11.7-47.1-23.8c-5.5-5-10.3-10.2-14.5-15.2l-4.7,0.2l-6.4,10.4c4.4,5.2,9.5,10.6,15.2,15.8
	C1392.8,1307.5,1412,1319.9,1434.3,1322.1z"/>
<path class="st18" d="M972.1,1549.9l45,26.2c7.5,61.1,3.1,218.6,0,289.7c94.1,77.4,223.8,25.1,263.5-7.3l-6.3-276.1
	c56.5,0,46.8-8.4,46-49.1c-2.1-110.9-8.4-189.3-25.1-203.9c-13.4-11.7-64.8-47.4-88.9-63.8l-142.2,7.3l-8.4,13.6
	c-62.8,37.7-71.1,70.1-74.3,117.1C979,1441.1,974.2,1516.8,972.1,1549.9z"/>
<path class="st19" d="M1017.1,1576.1l-45-26.2c0.1-1.9,0.3-4,0.4-6.2l43.5,24l14.6-141.2l10.5,200.8c0.8,21.7,2,47.7,3.2,75.4
	c3,64,6.3,136.7,5.5,184.4c-11.3-5.6-22.3-12.7-32.8-21.4C1020.2,1794.6,1024.6,1637.1,1017.1,1576.1z"/>
<path class="st19" d="M1060.7,1278.4l22.3,25.8l41.8,19.9c10.1-1.1,30.5-3.3,31.4-4.2c0.8-0.8,28.2-22.7,41.8-33.5l10.6-19.4
	c-0.8-0.5-1.5-1-2.2-1.5l-142.2,7.3L1060.7,1278.4z"/>
<path class="st19" d="M1321.4,1561.6l-42.9,4l-26.1-157.9l11.3,462.4c1.5-0.9,3-1.8,4.4-2.7l9.2-158l-2.9-127
	C1314,1582.3,1321,1578.2,1321.4,1561.6z"/>
<path class="st15" d="M1135,1226l66.2,48.6l-6.5,8.9l-59.2-43.4l-60.5,51.6l-7.1-8.3L1135,1226z"/>
<path class="st16" d="M1147.7,1149.9c-1.7-5.2-7.3-8.1-13.9-6.7c-7.2,1.6-11,5.2-13.3,8.9c-2.4,4-3.3,8.4-3.8,11.9l-15.2-2.2
	c0.6-3.9,1.8-10.9,5.9-17.7c4.3-7,11.5-13.3,23.1-15.9c12.2-2.7,27,2.2,31.8,16.9c4.4,13.4-1,31.5-18.3,53v38h-15.4v-43.6l1.8-2.1
	C1148.3,1169,1149.7,1155.9,1147.7,1149.9z"/>
<path class="st20" d="M1129.2,1334.8c13,1.3,26.7-5.1,39.6-14.2c13.2-9.3,27-22.4,40.4-36.7c3.1-3.3,6.2-6.7,9.3-10.1
	c-4.5-3.1-8.6-5.9-12.2-8.3l-1.1,0.1c-2.4,2.7-4.8,5.3-7.2,7.9c-13.1,14-26.1,26.2-38.1,34.6c-12.2,8.6-22,12.2-29.2,11.5
	c-17.6-1.8-33.9-12.4-47.3-25.2c-7.5-7.2-13.8-14.8-18.7-21.6l-0.7,0l-8.3,13.5c4.8,6.2,10.5,12.8,17.1,19.1
	C1087.4,1319.3,1106.7,1332.4,1129.2,1334.8z"/>
<path class="st6" d="M1118.5,1231.3c0-3.6,2.9-6.6,6.6-6.6h22.4c3.6,0,6.6,2.9,6.6,6.6v9.8c0,3.6-3,6.6-6.6,6.6h-22.4
	c-3.6,0-6.6-3-6.6-6.6V1231.3z"/>
<path class="st6" d="M1421.8,1229.1c0-2.4,2-4.4,4.4-4.4h26.8c2.4,0,4.4,2,4.4,4.4v14.2c0,2.4-2,4.4-4.4,4.4h-26.8
	c-2.4,0-4.4-2-4.4-4.4V1229.1z"/>
<path class="st10" d="M1066.2,1149.4h58.6v33.5h-58.6V1149.4z"/>
<path class="st10" d="M1430.2,1149.4H1267v33.5h163.2V1149.4z"/>
<path class="st11" d="M2005.1,985.4c0-24.3,19.7-43.9,43.9-43.9h619.3c24.3,0,43.9,19.7,43.9,43.9V1137c0,24.2-19.7,43.9-43.9,43.9
	h-619.3c-24.2,0-43.9-19.7-43.9-43.9V985.4z"/>
<path class="st21" d="M2157.8,970.1l10.6,30.5l32.2,0.7l-25.7,19.5l9.3,30.8l-26.5-18.4l-26.5,18.4l9.3-30.8l-25.7-19.5l32.2-0.7
	L2157.8,970.1z"/>
<path class="st21" d="M2291.7,970.1l10.6,30.5l32.2,0.7l-25.7,19.5l9.3,30.8l-26.5-18.4l-26.5,18.4l9.3-30.8l-25.7-19.5l32.2-0.7
	L2291.7,970.1z"/>
<path class="st21" d="M2425.7,970.1l10.6,30.5l32.2,0.7l-25.7,19.5l9.3,30.8l-26.5-18.4l-26.5,18.4l9.3-30.8l-25.7-19.5l32.2-0.7
	L2425.7,970.1z"/>
<path class="st22" d="M2559.6,970.1l10.6,30.5l32.2,0.7l-25.7,19.5l9.3,30.8l-26.5-18.4l-26.5,18.4l9.3-30.8l-25.7-19.5l32.2-0.7
	L2559.6,970.1z"/>
<path class="st11" d="M2027.1,1231.4l13.2-116.4l75.8,12.1L2027.1,1231.4z"/>
<path class="st22" d="M2071,1132.6c0-4.9,3.9-8.8,8.8-8.8h557.8c4.9,0,8.8,3.9,8.8,8.8l0,0c0,4.8-3.9,8.8-8.8,8.8h-557.8
	C2074.9,1141.3,2071,1137.4,2071,1132.6L2071,1132.6z"/>
<path class="st22" d="M2071,1093c0-4.8,3.9-8.8,8.8-8.8h557.8c4.9,0,8.8,3.9,8.8,8.8l0,0c0,4.8-3.9,8.8-8.8,8.8h-557.8
	C2074.9,1101.8,2071,1097.9,2071,1093L2071,1093z"/>
<path class="st7" d="M1014.8,2019.7c0-8.5,6.9-15.4,15.4-15.4h70.3c8.5,0,15.4,6.9,15.4,15.4v65.9c0,8.5-6.9,15.4-15.4,15.4h-70.3
	c-8.5,0-15.4-6.9-15.4-15.4V2019.7z"/>
<path class="st12" d="M1202.8,2068h-6.9l-2.7-7.1h-12.6l-2.6,7.1h-6.7l12.2-31.4h6.7L1202.8,2068z M1191.1,2055.6l-4.3-11.7
	l-4.2,11.7H1191.1z"/>
<path class="st12" d="M1206.1,2036.6h11.6c2.6,0,4.6,0.2,6,0.6c1.8,0.5,3.4,1.5,4.7,2.9c1.3,1.4,2.3,3.1,3,5.1c0.7,2,1,4.5,1,7.4
	c0,2.6-0.3,4.8-1,6.7c-0.8,2.3-1.9,4.1-3.4,5.6c-1.1,1.1-2.6,1.9-4.5,2.5c-1.4,0.4-3.3,0.7-5.6,0.7h-12V2036.6z M1212.5,2041.9v20.8
	h4.7c1.8,0,3.1-0.1,3.8-0.3c1-0.2,1.9-0.7,2.5-1.3c0.7-0.6,1.2-1.6,1.7-3c0.4-1.4,0.7-3.3,0.7-5.8s-0.2-4.3-0.7-5.6
	c-0.4-1.3-1-2.3-1.8-3c-0.8-0.7-1.8-1.2-2.9-1.5c-0.9-0.2-2.6-0.3-5.2-0.3H1212.5z"/>
<path class="st12" d="M1237.9,2036.6h11.6c2.6,0,4.6,0.2,6,0.6c1.8,0.5,3.4,1.5,4.7,2.9c1.3,1.4,2.3,3.1,3,5.1c0.7,2,1,4.5,1,7.4
	c0,2.6-0.3,4.8-1,6.7c-0.8,2.3-1.9,4.1-3.4,5.6c-1.1,1.1-2.6,1.9-4.5,2.5c-1.4,0.4-3.3,0.7-5.6,0.7h-12V2036.6z M1244.2,2041.9v20.8
	h4.7c1.8,0,3-0.1,3.8-0.3c1-0.2,1.9-0.7,2.5-1.3c0.7-0.6,1.2-1.6,1.7-3c0.4-1.4,0.7-3.3,0.7-5.8s-0.2-4.3-0.7-5.6
	c-0.4-1.3-1-2.3-1.8-3c-0.8-0.7-1.8-1.2-2.9-1.5c-0.9-0.2-2.6-0.3-5.2-0.3H1244.2z"/>
<path class="st12" d="M1288.9,2068v-26.1h-9.3v-5.3h25v5.3h-9.3v26.1H1288.9z"/>
<path class="st12" d="M1306.6,2052.5c0-3.2,0.5-5.9,1.4-8.1c0.7-1.6,1.7-3,2.9-4.3c1.2-1.3,2.6-2.2,4.1-2.8c2-0.8,4.2-1.2,6.8-1.2
	c4.6,0,8.3,1.4,11.1,4.3c2.8,2.9,4.2,6.9,4.2,12c0,5.1-1.4,9.1-4.1,11.9c-2.8,2.9-6.5,4.3-11.1,4.3c-4.7,0-8.4-1.4-11.2-4.3
	C1308,2061.4,1306.6,2057.5,1306.6,2052.5z M1313.1,2052.3c0,3.6,0.8,6.3,2.5,8.1c1.6,1.8,3.7,2.7,6.3,2.7s4.6-0.9,6.2-2.7
	c1.6-1.8,2.4-4.6,2.4-8.2c0-3.6-0.8-6.3-2.4-8.1c-1.6-1.8-3.7-2.7-6.3-2.7s-4.7,0.9-6.3,2.7
	C1313.9,2046,1313.1,2048.7,1313.1,2052.3z"/>
<path class="st12" d="M1374.4,2056.5l6.2,1.9c-1,3.4-2.5,6-4.7,7.7c-2.2,1.7-5,2.5-8.3,2.5c-4.2,0-7.6-1.4-10.3-4.3
	c-2.7-2.9-4-6.8-4-11.7c0-5.2,1.3-9.3,4-12.2c2.7-2.9,6.3-4.3,10.7-4.3c3.8,0,7,1.1,9.4,3.4c1.4,1.3,2.5,3.3,3.2,5.8l-6.3,1.5
	c-0.4-1.6-1.2-2.9-2.3-3.9c-1.2-1-2.6-1.4-4.3-1.4c-2.3,0-4.2,0.8-5.7,2.5c-1.4,1.7-2.2,4.4-2.2,8.1c0,4,0.7,6.8,2.2,8.5
	c1.4,1.7,3.3,2.5,5.6,2.5c1.7,0,3.1-0.5,4.3-1.6C1373,2060.5,1373.9,2058.8,1374.4,2056.5z"/>
<path class="st12" d="M1414.4,2068h-6.9l-2.8-7.1h-12.6l-2.6,7.1h-6.7l12.2-31.4h6.7L1414.4,2068z M1402.7,2055.6l-4.3-11.7
	l-4.2,11.7H1402.7z"/>
<path class="st12" d="M1417.8,2068v-31.4h13.4c3.4,0,5.8,0.3,7.3,0.9c1.5,0.6,2.8,1.6,3.7,3c0.9,1.5,1.4,3.1,1.4,5
	c0,2.4-0.7,4.3-2.1,5.8c-1.4,1.5-3.5,2.5-6.2,2.9c1.4,0.8,2.5,1.7,3.4,2.6c0.9,1,2.1,2.7,3.6,5.1l3.8,6.1h-7.6l-4.6-6.8
	c-1.6-2.4-2.8-4-3.3-4.6c-0.6-0.6-1.2-1.1-1.9-1.3c-0.7-0.2-1.7-0.4-3.2-0.4h-1.3v13.1H1417.8z M1424.1,2049.9h4.7
	c3,0,4.9-0.1,5.7-0.4c0.8-0.2,1.3-0.7,1.8-1.3c0.4-0.6,0.6-1.4,0.6-2.4c0-1.1-0.3-1.9-0.9-2.6c-0.6-0.7-1.3-1.1-2.4-1.2
	c-0.5-0.1-2.1-0.1-4.6-0.1h-5V2049.9z"/>
<path class="st12" d="M1456.6,2068v-26.1h-9.3v-5.3h25v5.3h-9.3v26.1H1456.6z"/>
<path class="st12" d="M1041.1,2057.1v-6.6h46.1v6.6H1041.1z"/>
<path class="st12" d="M1060.9,2030.7h6.6v46.1h-6.6V2030.7z"/>
<path class="st12" d="M1091.6,862.5c0,18.2-14.8,32.9-32.9,32.9c-18.2,0-32.9-14.7-32.9-32.9s14.8-32.9,32.9-32.9
	C1076.9,829.5,1091.6,844.3,1091.6,862.5z"/>
<path class="st11" d="M1080.6,862.5c0,12.1-9.8,22-22,22s-22-9.8-22-22s9.8-22,22-22S1080.6,850.3,1080.6,862.5z"/>
<path class="st12" d="M1076.3,885.5l7.7-7.7l19,19l-7.7,7.7L1076.3,885.5z"/>
<path class="st1" d="M2002,1352.3l19.9,13.6l-6.3,120.3l69,52.3c-1.1-59.3-7.3-179.9-24.1-188.2c-16.7-8.4-43.2-13.9-54.4-15.7
	L2002,1352.3z"/>
<path d="M2016.7,1919.1l-6.3-116.1c-43.2,6.3-130.3,19.2-132.8,20.9c-3.1,2.1-17.8,20.9-19.9,27.2c-2.1,6.3,31.4,87.8,33.5,94.1
	c1.7,5,34.2,4.2,50.2,3.1L2016.7,1919.1z"/>
<path class="st23" d="M1964.4,1904.4c-33.9,10.4-115.7,25.1-152.7,30.3c1,35.6,13.4,107.7,54.4,111.9
	c51.2,5.2,110.9-29.3,131.8-50.2c20.9-20.9,26.1-89.9,24.1-111.9C2019.8,1862.6,2015.6,1888.8,1964.4,1904.4z"/>
<path class="st24" d="M1941.4,1270.7c-46-0.8-98,5.2-118.2,8.4l110.8,53.3c24.4,31,77,78,92,17.8
	C2044.9,1274.9,1998.9,1271.7,1941.4,1270.7z"/>
<path class="st25" d="M2015.6,1284.8c-21-7.6-41.7-2.1-48.1,39.2c-2.6,16.6-3.2,29.7-2.4,39.9c24,18.8,50.9,26.5,61-13.8
	C2034.8,1315.1,2029.6,1295.7,2015.6,1284.8z"/>
<path class="st23" d="M1671.5,1315.6c-67.8,9.2-130,45-152.7,61.7c-15.9,103.7,73.6,152,120.3,163.1l169.4,83.7
	c-20.9,91.7-30.5,269,98.3,244.7c161.1-30.3,163.2-112.9,161.1-198.7c-2.1-85.8-13.6-260.4-25.1-296c-11.5-35.6-34.5-45-96.2-63.8
	c-49.4-15.1-157.9-9.8-206-5.2v-18.8h-48.1C1713.7,1292.3,1739.3,1306.4,1671.5,1315.6z"/>
<path class="st26" d="M2030,1350c-26.2-19.5-61.3-24.2-86.6,37.9l19.9,466.2c105-37.6,106.3-109.5,104.5-183.8
	c-2.1-85.8-13.6-260.4-25.1-296C2039.6,1364.4,2035.6,1356.5,2030,1350z"/>
<path class="st27" d="M2004.5,1331.1c-6.4-1.1-13-1-19.8,0.9c-18.1,4.9-34.4,21.5-47.4,53.4l-0.5,1.3l0.1,1.4l19.9,466.2l0.1,2
	c2.2-0.7,4.4-1.5,6.5-2.2l-0.3-6.9l-19.6-459.3c25.3-62.1,60.4-57.3,86.6-37.9C2023.7,1342.4,2015.5,1336.5,2004.5,1331.1z"/>
<path d="M1709.2,1337.6c-68.6,3.3-73.2-34.2-66.9-53.3c78.8-16,238-46,244.7-37.7c8.4,10.5,14.6,34.5-8.4,53.3
	C1855.6,1318.8,1795,1333.4,1709.2,1337.6z"/>
<path class="st6" d="M1834.7,1396.2c-130.5-23.4-232.2,4.2-266.7,20.9c38.7,34.9,117.1,105.4,121.3,108.8
	c4.2,3.3,85.4-35.6,125.5-55.4L1834.7,1396.2z"/>
<path class="st28" d="M1826.3,1843c0-15.8,12.8-28.6,28.5-28.6h34.9c15.8,0,28.5,12.8,28.5,28.6v118.6c0,15.8-12.8,28.6-28.5,28.6
	h-34.9c-15.8,0-28.5-12.8-28.5-28.6V1843z"/>
<path class="st29" d="M1906.7,1820.1c7,5.2,11.6,13.5,11.6,23v118.6c0,12.7-8.3,23.5-19.8,27.2c-7-5.2-11.6-13.6-11.6-23v-118.6
	C1887,1834.5,1895.3,1823.8,1906.7,1820.1z"/>
<path class="st7" d="M1414.3,1428.6c38.5-61.9,83.7-51.6,101.4-38.7c12.2,85.4,23.2,268.2-34.5,303.3
	c-72.2,43.9-122.4-29.3-136-70.1C1331.7,1582.3,1366.2,1506,1414.3,1428.6z"/>
<path class="st7" d="M1945.6,1499.7l6.3-79.5c13.4-20.1,33.5-3.5,41.8,7.3c63.8-37.7,95.2,72.2,105.6,112.9
	c10.5,40.8,10.5,110.9-15.7,146.4c-26.1,35.6-70.1,33.5-115,13.6c-36-15.9-58.9-74.2-65.9-101.4l-34.5-71.1L1945.6,1499.7z"/>
<path class="st15" d="M1524.2,1478.9c4.5,87-1.4,188.9-43,214.3c-36.2,22-66.9,14.6-90.2-3.5c-1.3-85.5,43.7-183.4,76.6-236
	C1482.7,1453.7,1502.3,1463.2,1524.2,1478.9z"/>
<path class="st15" d="M1945.9,1495.6l-0.3,4.1l-77.4,28.2l34.5,71.1c7,27.2,29.9,85.5,65.9,101.4c45,19.9,88.9,22,115-13.6
	c6.5-8.8,11.4-19.8,14.9-31.9C2019.4,1626.7,1964.6,1552.6,1945.9,1495.6z"/>
<path d="M1979,1446.4c-16.7-61.7-40.8-81.6-59.6-70.1l-41.8,29.3c-20.2,17.1-60.9,51.7-61.7,53.3c-1,2.1,10.5,22,64.9,61.7
	C1935.1,1560.4,1995.7,1508.1,1979,1446.4z"/>
<path d="M1471.8,1362.7c25.9-27.6,49.8-30.3,58.6-28.2l10.5,33.5c8,31.7,19.2,99.6,0,117.1c-24.1,22-57.5,28.2-88.9,2.1
	C1420.6,1461,1439.4,1397.2,1471.8,1362.7z"/>
<path class="st10" d="M1469.7,1401.4l6.3-3.1l88.9-65.9c10.5,0.7,32.8,6.3,38.7,23c5.8,16.7-2.4,35.6-7.3,42.9l-46,27.2
	c-8,12.6-30.8,35.6-57.5,27.2C1465.9,1444.3,1466.2,1415,1469.7,1401.4z"/>
<path class="st3" d="M1771.9,1417.1c15.9-1.7,48.5-21.6,62.8-31.4l20.9,40.8c51.9,138.9,73.2,237.8,77.4,269.8
	c-20.9,40.2-56.1,53.7-71.1,55.4l10.5,342c-160.6,102.9-301.2,30.3-351.4-18.8v-350.4c-10.8-3.8-35.1-15.5-46-31.4
	c-13.6-19.9-1-68,26.2-161.1c21.8-74.5,50.2-133.5,61.7-153.7c20.6,10.1,63.4,30.5,70.1,31.4
	C1641.2,1410.8,1752.1,1419.2,1771.9,1417.1z"/>
<path class="st30" d="M1521,1761.8v-37.2c-0.7-0.3-1.5-0.6-2.4-0.9c3.5-44,3.4-92.3,2.2-123.4c-0.1-1.8,1.3-3.3,3.2-3.4
	c1.8-0.1,3.3,1.3,3.4,3.2c1.2,31.6,1.3,80.8-2.3,125.4C1524,1738,1522.7,1750.3,1521,1761.8z M1866.2,1751c-1.6,0.3-3,0.6-4.3,0.7
	l1.1,36.3c-0.8-8.8-1.7-17.8-2.5-27c-4.9-54.1-9.5-112.7-12.3-150.2c-0.1-1.8,1.2-3.4,3-3.5c1.8-0.1,3.4,1.2,3.5,3
	C1857.3,1645.6,1861.6,1699.7,1866.2,1751z"/>
<path class="st1" d="M1828.4,2029.9c-171.5-5-255.5-126.9-276.1-187.2c55.4,79.5,157.9,80.5,188.2,121.3
	C1764.8,1996.7,1809.2,2021.6,1828.4,2029.9z"/>
<path class="st1" d="M1723.8,1515.4l99.4-104.6c-17.1,10.1-53.6,32.4-62.8,40.8C1751.2,1460,1732.2,1497.6,1723.8,1515.4z"/>
<path class="st1" d="M1626.6,1518.5c-30.1-29.3-41.8-91-43.9-118.2c7,8.7,21.8,32.2,25.1,56.5
	C1611.1,1481.1,1621.7,1508.1,1626.6,1518.5z"/>
<path class="st1" d="M1610.9,1417.1c7,15,28,47.5,56.5,57.5C1653.8,1477.1,1623.4,1469,1610.9,1417.1z"/>
<path class="st1" d="M1692.5,1463.1c33.5,1.7,64.1-20.9,75.3-32.4c-49.4-7.5-114.7-9.4-141.2-9.4
	C1634.6,1434.5,1659,1461.4,1692.5,1463.1z"/>
<path class="st30" d="M1520.6,1724.4c-11-3.9-34.9-15.5-45.7-31.3c-4.9-7.2-6.4-18-5.1-33.3c9.8,11.4,29.1,30.3,53.2,43.8
	L1520.6,1724.4z M1929,1672.9c1.9,9.8,3.2,17.7,4,23.4c-20.4,39.2-54.4,53-70,55.3c-1.2-5.8-1.4-11.5-1.1-15.5
	C1896.9,1715.4,1918.9,1689.2,1929,1672.9z"/>
<path class="st31" d="M1806.5,1406.6c8.4,10,23,5.6,29.3,2.1c6.6,16,26.8,51.5,54.4,64.8c34.5,16.7,46-8.4,51.2-26.1
	c5.2-17.8,7.3-42.9-14.6-81.6c-22-38.7-45-48.1-59.6-47.1c-11.7,0.8-36.6,24.4-47.1,36.6C1797,1384.7,1796,1394.1,1806.5,1406.6z"/>
<path class="st32" d="M1885,1470.8c14.7-3.3,29.5-10.3,42-23.2c1.3-1.3,1.2-3.4-0.1-4.7c-1.3-1.3-3.4-1.2-4.7,0.1
	c-13.2,13.5-29.2,20-44.9,22.5C1879.8,1467.4,1882.4,1469.2,1885,1470.8z M1861.2,1449.9c2-0.3,4-0.7,5.9-1.2
	c11.8-2.8,23.1-8.1,29.9-12c1.6-0.9,2.1-2.9,1.2-4.5c-0.9-1.6-2.9-2.1-4.5-1.2c-6.4,3.7-17.1,8.6-28.2,11.3
	c-3.1,0.8-6.2,1.3-9.2,1.6C1857.9,1445.9,1859.5,1447.9,1861.2,1449.9z M1847.7,1431.3c2.1-0.7,4.3-1.6,6.5-2.6
	c13.1-5.8,28.4-15.4,36.6-20.5l0,0c1.2-0.8,2.3-1.4,3.2-1.9c1.5-1,2-3,1.1-4.5c-0.9-1.5-3-2-4.5-1.1c-0.9,0.6-2,1.2-3.2,2l0,0l0,0
	c-8.2,5.1-23.1,14.4-35.7,20c-2.6,1.2-5.1,2.1-7.3,2.9C1845.3,1427.5,1846.4,1429.4,1847.7,1431.3z M1837.3,1412.3
	c9.1-20.9,25.9-37,33.8-42.8c1.5-1.1,1.8-3.1,0.7-4.6c-1.1-1.5-3.1-1.8-4.6-0.7c-8.6,6.3-26.9,23.8-36.5,46.7c1.9-0.7,3.7-1.5,5-2.2
	C1836.2,1409.8,1836.7,1411,1837.3,1412.3z"/>
<path class="st31" d="M1546.1,1304.1c-20.9,2.5-30.3,19.2-32.4,27.2c-34.5,34.5-53.3,74.2-42.9,91c10.5,16.7,46,28.2,52.3,22
	c5-5,26.5-35.6,36.6-50.2c3.1-0.3,11.1-2.1,17.8-6.3c8.4-5.2,17.8-22,0-51.2C1563.2,1313.1,1550.6,1305.2,1546.1,1304.1z"/>
<path class="st32" d="M1572,1390.6c-5.2-1.7-10.6-4.9-16-9.2c-11.2-9-20.8-21.8-26.1-30.9c-1.5-2.6-4.9-3.5-7.5-1.9
	c-2.6,1.6-3.5,4.9-1.9,7.5c5.8,9.8,16.2,23.7,28.7,33.8c2.8,2.3,5.9,4.4,9,6.3c0.5-0.8,1-1.5,1.5-2.2
	C1562,1393.8,1566.9,1392.8,1572,1390.6z M1549.4,1408.8c-10.8-4.3-22.4-12-33.7-24.7c-2-2.3-5.5-2.5-7.8-0.5
	c-2.3,2-2.5,5.5-0.5,7.8c11.7,13.1,23.8,21.5,35.4,26.6C1545,1415,1547.2,1411.9,1549.4,1408.8z M1536.6,1426.7
	c-16.7-4.1-30.6-11.8-36.5-16.1c-2.5-1.8-5.9-1.2-7.7,1.2c-1.8,2.5-1.2,5.9,1.2,7.7c6.2,4.5,19.6,12,35.9,16.7
	C1531.7,1433.4,1534.1,1430.1,1536.6,1426.7z"/>
<path class="st15" d="M2091.4,1512.6c-0.1,0.2-0.3,0.5-0.5,0.7c-28.2,41.8-78.4-51.2-87.9-69c-3.8-7.3-7.5-13.4-10.5-18
	c0.4,0.4,0.7,0.9,1,1.3C2045.8,1396.8,2076.3,1464.5,2091.4,1512.6z"/>
<path class="st32" d="M2071.8,1464c2.5,4.8,4.9,9.8,7.1,14.8c-15.2-7.3-27.3-8.9-36.5-7.7c-8.3,1-14.6,4.4-18.8,8.2
	c-2.1-3.2-4.1-6.3-6-9.3c5.7-4.7,13.5-8.5,23.4-9.7C2049.9,1459,2060.1,1460,2071.8,1464z M2038.7,1499.7c6.3-2.1,13.8-2.9,22.3-1.3
	c9.3,1.7,19.5,6.2,30.1,14.7c-0.1,0.1-0.1,0.2-0.2,0.3c-2.3,3.4-4.8,6-7.4,7.7c-9.2-7.1-17.5-10.6-24.5-11.9
	c-4.4-0.8-8.4-0.8-11.9-0.2C2044.2,1506.1,2041.4,1503,2038.7,1499.7z"/>
<path d="M1611.9,1247.7c-50.2-8.4-57.5-166.3-11.5-160l13.6,15.7C1624.8,1171,1665.6,1256.6,1611.9,1247.7z"/>
<path class="st23" d="M1875.5,1264.4c41.8-28.2,33.5-36.6,27.2-116.1v-47.1c0-88.9-40.8-124.4-106.7-125.5c-65.9-1-200.8,2.1-206,91
	c-5.2,88.9,3.1,168.4,25.1,205c22,36.6,69,31.4,101.4,31.4S1833.6,1292.6,1875.5,1264.4z"/>
<path class="st33" d="M1603.3,1244.3c39.1,31.3,131.7,22,167.6,5.5c38.7-17.8,40.8-28.2,45-74.3c4.2-46-9.4-97.3-22-118.2
	c-12.6-20.9-64.8-39.7-141.2-20.9c-28.7,7.1-49,19.2-62.8,31.9C1585.9,1138.4,1590.4,1202.6,1603.3,1244.3z"/>
<path class="st34" d="M1592.1,1052.2c14.4-10.8,33.4-20.4,58-26.4c39.5-9.7,73.4-9.9,99.4-4.5c25.4,5.2,45.3,16.1,53.9,30.5
	c7.1,11.9,14,31.3,18.6,53.1c4.6,22,7.1,47.4,4.9,71.8c-2,22.2-3.6,39-10.9,52.1c-7.7,13.9-20.8,22.2-40.4,31.2
	c-19.8,9.1-53.5,15.7-87,16.2c-27.2,0.4-56.6-3.2-78.8-14.6c-11.8-26.3-18.7-67.1-20.6-115c1.6,38.6,6.3,72.5,14.3,97.9
	c39.1,31.3,131.7,22,167.6,5.5c38.7-17.8,40.8-28.2,45-74.3c4.2-46-9.4-97.3-22-118.2c-12.6-20.9-64.8-39.7-141.2-20.9
	c-28.7,7.1-49,19.2-62.8,31.9c0-0.5,0.1-1,0.1-1.5C1590.3,1061.6,1591,1056.8,1592.1,1052.2z"/>
<path class="st35" d="M1648.5,1179.7c0,9.8-5.2,17.8-11.5,17.8c-6.3,0-11.5-8-11.5-17.8c0-9.8,5.2-17.8,11.5-17.8
	C1643.4,1161.9,1648.5,1169.9,1648.5,1179.7z"/>
<path class="st35" d="M1746.9,1166.8c1.3,9.4-2.7,17.8-9,18.7c-6.3,0.9-12.5-6.1-13.8-15.5c-1.3-9.4,2.7-17.8,9-18.7
	C1739.4,1150.4,1745.6,1157.3,1746.9,1166.8z"/>
<path class="st36" d="M1719.2,1108c-1.6,2.9-2.9,6.3-3.7,9.3c-0.8,2.9-3.8,4.7-6.7,3.9c-2.9-0.8-4.7-3.7-3.9-6.7
	c1-3.8,2.5-8.1,4.7-12c2.2-3.9,5.2-7.8,9.4-10.2c4.4-2.6,9.7-3.2,15.3-0.9c5.3,2.2,10.5,6.8,15.9,13.8c1.8,2.4,1.3,5.9-1.1,7.7
	c-2.4,1.8-5.9,1.3-7.7-1.1c-4.7-6.3-8.5-9.2-11.2-10.3c-2.4-1-4.1-0.6-5.6,0.2C1722.8,1102.9,1720.9,1105,1719.2,1108z
	 M1621.7,1122.8c-1.5,2.9-2.6,6.1-3.3,9c-0.7,3-3.7,4.8-6.6,4c-3-0.7-4.8-3.7-4-6.6c0.9-3.6,2.3-7.7,4.3-11.5
	c2-3.8,4.7-7.6,8.4-10.2c3.9-2.8,8.8-4,14.3-2.4c5.1,1.5,10.1,5.5,15.1,11.5c1.9,2.3,1.6,5.8-0.8,7.7c-2.3,1.9-5.8,1.6-7.7-0.8
	c-4.3-5.2-7.5-7.3-9.7-7.9c-1.9-0.6-3.3-0.2-4.8,0.8C1624.9,1117.7,1623.2,1119.9,1621.7,1122.8z"/>
<path d="M1838.7,1088.9c-1.1-18.2,12.7-33.8,30.8-34.9l21.2-1.3c18.2-1.1,33.8,12.7,34.9,30.8l6.1,99.2
	c1.1,18.2-12.7,33.8-30.8,34.9l-21.2,1.3c-18.2,1.1-33.8-12.7-34.9-30.8L1838.7,1088.9z"/>
<path class="st33" d="M1909.7,1057.2c9,5.4,15.3,15,16,26.2l6.1,99.2c1.1,18.2-12.7,33.8-30.8,34.9l-15.9,1
	c-4.6-5.3-7.6-12.1-8.1-19.6l-6.9-104.1c-1.1-16.1,9.7-30.6,25.4-34.2L1909.7,1057.2z"/>
<path class="st35" d="M1898.7,1091.7c-0.3-3.8,1.7-7.4,5.1-9.3l0,0c6.3-3.5,14.2,0.8,14.6,8l5.6,91.1c0.3,5.3-3.7,9.9-9,10.2l0,0
	c-5.3,0.3-9.9-3.7-10.3-9L1898.7,1091.7z"/>
<path class="st0" d="M2194,2321.7c-19,31.8-99.5,92.7-269,81.2C1967.4,2370.7,2080.7,2309.4,2194,2321.7z"/>
<path class="st6" d="M287.9,2407.3c0-4.2,3-7.7,6.8-7.7h2312c3.7,0,6.8,3.4,6.8,7.7l0,0c0,4.2-3,7.7-6.8,7.7h-2312
	C290.9,2415,287.9,2411.6,287.9,2407.3L287.9,2407.3z"/>
<path class="st37" d="M2260.6,1352.9c1,0.8,1.1,2.1,0.3,3.1c-4.4,5.5-9,11.1-13.6,16.7c-0.8,0.9-2.2,1.1-3.1,0.3
	c-0.9-0.8-1.1-2.2-0.3-3.1c4.6-5.6,9.1-11.2,13.6-16.7C2258.2,1352.3,2259.6,1352.2,2260.6,1352.9z M823.2,1391.9
	c0.8,0.9,0.6,2.3-0.3,3.1c-3.2,2.6-6.4,5.2-9.6,7.8c-0.9,0.8-2.3,0.6-3.1-0.3c-0.8-0.9-0.6-2.3,0.3-3.1c3.2-2.6,6.4-5.2,9.6-7.8
	C821.1,1390.8,822.5,1391,823.2,1391.9z M2226.2,1394.4c0.9,0.8,1,2.2,0.2,3.1c-4.6,5.4-9.3,10.8-14.1,16.2c-0.8,0.9-2.2,1-3.1,0.2
	c-0.9-0.8-1-2.2-0.2-3.1c4.8-5.4,9.5-10.8,14.1-16.2C2223.9,1393.7,2225.3,1393.6,2226.2,1394.4z M785,1423.3
	c0.8,0.9,0.7,2.3-0.3,3.1c-6.3,5.3-12.5,10.6-18.8,16c-0.9,0.8-2.3,0.7-3.1-0.2c-0.8-0.9-0.7-2.3,0.2-3.1
	c6.3-5.4,12.6-10.8,18.9-16.1C782.8,1422.3,784.2,1422.4,785,1423.3z M2190.6,1434.8c0.9,0.8,1,2.2,0.1,3.1
	c-4.8,5.3-9.7,10.6-14.7,15.9c-0.8,0.9-2.2,0.9-3.1,0.1c-0.9-0.8-0.9-2.2-0.1-3.1c4.9-5.3,9.8-10.6,14.6-15.9
	C2188.3,1434,2189.7,1434,2190.6,1434.8z M738.2,1463.8c0.8,0.9,0.7,2.3-0.2,3.1c-6.1,5.5-12.2,11-18.3,16.6
	c-0.9,0.8-2.3,0.8-3.1-0.1c-0.8-0.9-0.8-2.3,0.1-3.1c6.1-5.6,12.3-11.2,18.4-16.6C736,1462.8,737.4,1462.9,738.2,1463.8z
	 M2153.7,1474.2c0.9,0.8,0.9,2.2,0.1,3.1c-5,5.1-10,10.2-15,15.4c-0.9,0.9-2.2,0.9-3.1,0c-0.9-0.9-0.9-2.2,0-3.1
	c5.1-5.1,10.1-10.2,15-15.3C2151.4,1473.4,2152.8,1473.3,2153.7,1474.2z M692.6,1505.7c0.8,0.9,0.8,2.3-0.1,3.1
	c-3,2.8-6,5.7-8.9,8.5c-2.8,2.7-5.5,5.4-8.2,8.1c-0.9,0.9-2.2,0.9-3.1,0c-0.9-0.9-0.9-2.2,0-3.1c2.7-2.7,5.4-5.4,8.3-8.1
	c3-2.9,6-5.7,9-8.6C690.4,1504.8,691.8,1504.8,692.6,1505.7z M2115.8,1512.4c0.9,0.9,0.8,2.2,0,3.1c-5.1,5-10.3,10-15.6,15
	c-0.9,0.8-2.3,0.8-3.1-0.1c-0.8-0.9-0.8-2.3,0.1-3.1c5.2-5,10.4-10,15.5-15C2113.6,1511.5,2115,1511.5,2115.8,1512.4z M653,1546.3
	c0.9,0.8,1,2.2,0.2,3.1c-5,5.9-9.7,11.7-14.1,17.6c-0.7,1-2.1,1.2-3.1,0.4s-1.2-2.1-0.4-3.1c4.4-5.9,9.2-11.8,14.3-17.8
	C650.7,1545.6,652.1,1545.5,653,1546.3z M2076.7,1549.6c0.8,0.9,0.8,2.3-0.1,3.1c-5.2,4.8-10.5,9.7-15.9,14.5
	c-0.9,0.8-2.3,0.8-3.1-0.1c-0.8-0.9-0.7-2.3,0.2-3.1c5.3-4.8,10.6-9.6,15.8-14.5C2074.5,1548.7,2075.9,1548.7,2076.7,1549.6z
	 M2036.8,1585.6c0.8,0.9,0.7,2.3-0.2,3.1c-5.4,4.7-10.9,9.5-16.4,14.2c-0.9,0.8-2.3,0.7-3.1-0.2c-0.8-0.9-0.7-2.3,0.2-3.1
	c5.5-4.7,11-9.4,16.4-14.2C2034.6,1584.6,2036,1584.7,2036.8,1585.6z M620,1591.2c1,0.6,1.4,2,0.8,3c-3.8,6.4-7.2,12.7-10.3,19.1
	c-0.5,1.1-1.8,1.5-2.9,1c-1.1-0.5-1.5-1.9-1-2.9c3.1-6.4,6.6-12.9,10.5-19.4C617.6,1591,618.9,1590.6,620,1591.2z M1995.7,1620.6
	c0.8,0.9,0.6,2.3-0.3,3.1c-5.5,4.6-11.1,9.1-16.7,13.7c-0.9,0.8-2.3,0.6-3.1-0.3c-0.8-0.9-0.6-2.3,0.3-3.1
	c5.6-4.5,11.1-9.1,16.6-13.6C1993.6,1619.6,1995,1619.7,1995.7,1620.6z M596.9,1641.1c1.2,0.3,1.8,1.6,1.5,2.7
	c-2.2,7.2-3.9,14.3-5.2,21.4c-0.2,1.2-1.4,2-2.5,1.8c-1.2-0.2-2-1.3-1.8-2.6c1.3-7.2,3.1-14.5,5.3-21.9
	C594.5,1641.4,595.7,1640.8,596.9,1641.1z M1953.8,1654.5c0.8,1,0.6,2.3-0.4,3.1c-5.6,4.4-11.3,8.8-17,13.2c-1,0.7-2.3,0.6-3.1-0.4
	c-0.7-1-0.6-2.3,0.4-3.1c5.7-4.4,11.4-8.8,17-13.2C1951.7,1653.3,1953.1,1653.5,1953.8,1654.5z M1911,1687.1c0.7,1,0.5,2.3-0.5,3.1
	c-5.8,4.3-11.6,8.6-17.5,12.8c-1,0.7-2.3,0.5-3.1-0.5c-0.7-1-0.5-2.4,0.5-3.1c5.9-4.2,11.7-8.5,17.4-12.8
	C1908.9,1686,1910.3,1686.2,1911,1687.1z M588.3,1695.7c1.2,0,2.2,0.9,2.2,2.1c0.2,7.4,0.8,14.6,2,21.8c0.2,1.2-0.6,2.3-1.8,2.5
	c-1.2,0.2-2.3-0.6-2.5-1.8c-1.2-7.4-1.9-14.8-2-22.4C586.1,1696.7,587.1,1695.7,588.3,1695.7z M1867.3,1718.7c0.7,1,0.4,2.4-0.5,3.1
	c-5.9,4.1-11.8,8.2-17.8,12.3c-1,0.7-2.4,0.4-3-0.6c-0.7-1-0.4-2.4,0.6-3.1c6-4.1,11.9-8.2,17.7-12.2
	C1865.2,1717.4,1866.6,1717.7,1867.3,1718.7z M1822.7,1749c0.7,1,0.4,2.4-0.6,3c-6,3.9-12,7.9-18,11.7c-1,0.7-2.4,0.4-3-0.6
	c-0.7-1-0.4-2.4,0.7-3c6-3.9,12-7.8,18-11.7C1820.7,1747.8,1822,1748,1822.7,1749z M598.2,1750c1.1-0.4,2.4,0.1,2.8,1.3
	c2.5,6.7,5.5,13.4,8.9,19.9c0.6,1.1,0.1,2.4-0.9,3c-1.1,0.6-2.4,0.2-3-0.9c-3.5-6.7-6.6-13.5-9.2-20.4
	C596.4,1751.7,597,1750.4,598.2,1750z M1777.4,1778.1c0.6,1,0.3,2.4-0.7,3c-6.1,3.8-12.2,7.5-18.4,11.3c-1,0.6-2.4,0.3-3-0.7
	c-0.6-1-0.3-2.4,0.7-3c6.2-3.7,12.3-7.5,18.3-11.3C1775.4,1776.8,1776.8,1777.1,1777.4,1778.1z M624.4,1798.5c1-0.7,2.3-0.5,3.1,0.4
	c4.3,5.7,8.9,11.4,13.9,16.9c0.8,0.9,0.7,2.3-0.2,3.1c-0.9,0.8-2.3,0.7-3.1-0.2c-5.1-5.6-9.8-11.4-14.1-17.2
	C623.3,1800.6,623.5,1799.2,624.4,1798.5z M1731.3,1806c0.6,1.1,0.3,2.4-0.8,3c-6.2,3.6-12.4,7.2-18.7,10.8c-1.1,0.6-2.4,0.2-3-0.8
	c-0.6-1-0.2-2.4,0.8-3c6.3-3.6,12.5-7.2,18.7-10.8C1729.3,1804.6,1730.7,1804.9,1731.3,1806z M1684.4,1832.6c0.6,1.1,0.2,2.4-0.9,3
	c-6.3,3.4-12.6,6.9-19,10.3c-1.1,0.6-2.4,0.2-3-0.9c-0.6-1.1-0.2-2.4,0.9-3c6.4-3.4,12.7-6.8,19-10.3
	C1682.5,1831.1,1683.9,1831.5,1684.4,1832.6z M661.8,1839.2c0.8-0.9,2.2-1,3.1-0.2c5.4,4.8,11.1,9.5,17.1,14.1
	c1,0.7,1.1,2.1,0.4,3.1c-0.7,1-2.1,1.1-3.1,0.4c-6-4.6-11.8-9.4-17.3-14.2C661.1,1841.5,661,1840.1,661.8,1839.2z M1636.8,1857.9
	c0.6,1.1,0.1,2.4-0.9,2.9c-3.2,1.7-6.4,3.3-9.7,4.9c-3.3,1.7-6.6,3.3-10,5c-1.1,0.5-2.4,0.1-2.9-1c-0.5-1.1-0.1-2.4,1-2.9
	c3.3-1.6,6.6-3.3,9.9-5c3.2-1.6,6.4-3.3,9.7-4.9C1635,1856.4,1636.3,1856.8,1636.8,1857.9z M706,1872.8c0.7-1,2-1.3,3-0.7
	c6,3.9,12.3,7.7,18.7,11.4c1,0.6,1.4,1.9,0.8,3c-0.6,1-1.9,1.4-3,0.8c-6.5-3.7-12.8-7.6-18.9-11.5
	C705.6,1875.2,705.3,1873.8,706,1872.8z M1587.2,1882.1c0.5,1.1,0,2.4-1.1,2.9c-6.8,3.1-13.5,6-20.3,8.9c-1.1,0.5-2.4,0-2.9-1.2
	c-0.5-1.1,0-2.4,1.2-2.9c6.8-2.9,13.5-5.8,20.2-8.9C1585.4,1880.5,1586.7,1881,1587.2,1882.1z M754,1900.1c0.5-1.1,1.9-1.5,2.9-1
	c6.6,3.2,13.3,6.4,20.1,9.4c1.1,0.5,1.6,1.8,1.1,2.9c-0.5,1.1-1.8,1.6-2.9,1.1c-6.9-3.1-13.7-6.2-20.3-9.5
	C753.9,1902.5,753.5,1901.2,754,1900.1z M1536.1,1903.6c0.4,1.1-0.1,2.4-1.3,2.8c-6.9,2.7-13.8,5.3-20.8,7.8
	c-1.1,0.4-2.4-0.2-2.8-1.3s0.2-2.4,1.3-2.8c6.9-2.5,13.8-5.1,20.7-7.8C1534.4,1901.9,1535.7,1902.5,1536.1,1903.6z M1484,1922.4
	c0.4,1.2-0.2,2.4-1.4,2.8c-7,2.3-14.1,4.5-21.1,6.7c-1.2,0.4-2.4-0.3-2.7-1.5c-0.4-1.2,0.3-2.4,1.5-2.7c7-2.2,14-4.4,21-6.7
	C1482.4,1920.6,1483.6,1921.2,1484,1922.4z M804.9,1922.4c0.4-1.1,1.7-1.7,2.8-1.3c6.8,2.6,13.6,5.1,20.6,7.5
	c1.1,0.4,1.8,1.7,1.4,2.8c-0.4,1.2-1.6,1.8-2.8,1.4c-7-2.4-14-5-20.8-7.6C805,1924.8,804.5,1923.6,804.9,1922.4z M1431,1938.4
	c0.3,1.2-0.4,2.4-1.5,2.7c-7.1,2-14.3,3.8-21.4,5.6c-1.2,0.3-2.4-0.4-2.7-1.6c-0.3-1.2,0.4-2.4,1.6-2.7c7.1-1.8,14.2-3.6,21.3-5.6
	C1429.4,1936.6,1430.6,1937.2,1431,1938.4z M857.3,1940.3c0.3-1.2,1.6-1.8,2.7-1.5c7,2.1,14.1,4.1,21.2,6c1.2,0.3,1.9,1.5,1.6,2.7
	c-0.3,1.2-1.5,1.9-2.7,1.6c-7.2-1.9-14.3-3.9-21.4-6C857.6,1942.7,856.9,1941.5,857.3,1940.3z M1377.2,1951.7
	c0.3,1.2-0.5,2.4-1.7,2.6c-7.2,1.6-14.5,3.1-21.7,4.5c-1.2,0.2-2.3-0.5-2.6-1.7c-0.2-1.2,0.5-2.3,1.7-2.6c7.2-1.4,14.4-2.9,21.6-4.5
	C1375.7,1949.8,1376.9,1950.6,1377.2,1951.7z M910.8,1954.3c0.3-1.2,1.4-1.9,2.6-1.7c7.2,1.6,14.4,3.1,21.7,4.6
	c1.2,0.2,2,1.4,1.7,2.6c-0.2,1.2-1.4,2-2.6,1.7c-7.4-1.5-14.6-3-21.9-4.6C911.3,1956.7,910.5,1955.5,910.8,1954.3z M1322.8,1962.4
	c0.2,1.2-0.6,2.3-1.8,2.5c-7.3,1.2-14.6,2.4-21.9,3.4c-1.2,0.2-2.3-0.7-2.5-1.9c-0.2-1.2,0.7-2.3,1.9-2.5c7.3-1.1,14.5-2.2,21.8-3.4
	C1321.4,1960.4,1322.6,1961.2,1322.8,1962.4z M965.2,1964.9c0.2-1.2,1.3-2,2.5-1.8c7.3,1.2,14.6,2.3,22,3.3c1.2,0.2,2,1.3,1.9,2.5
	c-0.2,1.2-1.3,2-2.5,1.9c-7.4-1-14.8-2.1-22.1-3.3C965.8,1967.3,965,1966.1,965.2,1964.9z M1267.9,1970.3c0.1,1.2-0.7,2.3-1.9,2.4
	c-7.3,0.9-14.7,1.7-22,2.4c-1.2,0.1-2.3-0.8-2.4-2c-0.1-1.2,0.8-2.3,2-2.4c7.3-0.7,14.6-1.5,21.9-2.4
	C1266.7,1968.2,1267.8,1969.1,1267.9,1970.3z M1020.2,1972.4c0.1-1.2,1.2-2.1,2.4-2c7.3,0.8,14.7,1.5,22.1,2.1
	c1.2,0.1,2.1,1.2,2,2.4c-0.1,1.2-1.2,2.1-2.4,2c-7.4-0.6-14.8-1.3-22.2-2.1C1020.9,1974.6,1020,1973.6,1020.2,1972.4z
	 M1212.7,1975.5c0.1,1.2-0.8,2.3-2,2.3c-7.4,0.5-14.8,0.9-22.1,1.3c-1.2,0.1-2.2-0.9-2.3-2.1c-0.1-1.2,0.9-2.2,2.1-2.3
	c7.3-0.4,14.7-0.8,22-1.3C1211.6,1973.4,1212.7,1974.3,1212.7,1975.5z M1075.4,1976.8c0.1-1.2,1.1-2.2,2.3-2.1
	c7.3,0.4,14.7,0.7,22.1,0.9c1.2,0,2.2,1.1,2.1,2.3c0,1.2-1.1,2.2-2.3,2.1c-7.4-0.2-14.8-0.5-22.2-0.9
	C1076.3,1979,1075.4,1978,1075.4,1976.8z M1157.4,1978.1c0,1.2-0.9,2.2-2.2,2.2c-7.4,0.1-14.8,0.2-22.2,0.2c-1.2,0-2.2-1-2.2-2.2
	c0-1.2,1-2.2,2.2-2.2c7.3,0,14.7-0.1,22.1-0.2C1156.4,1975.9,1157.4,1976.9,1157.4,1978.1z"/>
<path class="st13" d="M2348.3,1339.5l-17.1-132.9l-84.5,113.5l33.9,0.6l28,8.6L2348.3,1339.5z"/>
<path class="st38" d="M2309,1354.9l7.9-23.6l-36.4-10.6L2309,1354.9z"/>
<path class="st39" d="M2280.6,1320.7l28.4,34.2l1.3-24.7l2.3-0.1l18-122.5L2280.6,1320.7z"/>
<path class="st6" d="M542.6,1600.3h136.1c14.6,0,26.4,11.8,26.4,26.4v129.6c0,14.6-11.8,26.4-26.4,26.4H542.6
	c-14.6,0-26.4-11.8-26.4-26.4v-129.6C516.3,1612.1,528.1,1600.3,542.6,1600.3z"/>
<path class="st21" d="M611.8,1650.8l10.6,30.4l32.2,0.7l-25.7,19.5l9.3,30.9l-26.5-18.4l-26.5,18.4l9.3-30.9l-25.7-19.5l32.2-0.7
	L611.8,1650.8z"/>
</svg>
