<?xml version="1.0" encoding="UTF-8"?><svg id="Object" xmlns="http://www.w3.org/2000/svg" xmlns:xlink="http://www.w3.org/1999/xlink" viewBox="0 0 4500 3000"><defs><linearGradient id="linear-gradient" x1="904.3686" y1="259.4512" x2="2436.6379" y2="2073.2801" gradientUnits="userSpaceOnUse"><stop offset="0" stop-color="#fff"/><stop offset=".0237" stop-color="#fcfcfd"/><stop offset=".1784" stop-color="#f0f2f6"/><stop offset=".3958" stop-color="#e9ecf3"/><stop offset="1" stop-color="#e8ebf2"/></linearGradient><linearGradient id="linear-gradient-2" x1="1269.3088" y1="1997.2948" x2="4858.0601" y2="2829.9538" gradientUnits="userSpaceOnUse"><stop offset="0" stop-color="#a1d156"/><stop offset="1" stop-color="#7eaf27"/></linearGradient><linearGradient id="linear-gradient-3" x1="2080.7998" y1="2338.038" x2="987.803" y2="1216.3722" gradientUnits="userSpaceOnUse"><stop offset="0" stop-color="#e99579"/><stop offset="1" stop-color="#ce7169"/></linearGradient><linearGradient id="linear-gradient-4" x1="3398.0602" y1="1614.7943" x2="4175" y2="1614.7943" gradientUnits="userSpaceOnUse"><stop offset="0" stop-color="#ffbf1f"/><stop offset="1" stop-color="#ef6946"/></linearGradient><linearGradient id="linear-gradient-5" x1="3448.0845" y1="1143.8038" x2="3868.9521" y2="1796.8777" gradientUnits="userSpaceOnUse"><stop offset="0" stop-color="#ffd77d"/><stop offset="1" stop-color="#ffbf1f"/></linearGradient><linearGradient id="linear-gradient-6" x1="2809.8571" y1="1248.6132" x2="3368.8847" y2="1736.8248" gradientUnits="userSpaceOnUse"><stop offset="0" stop-color="#fff"/><stop offset="1" stop-color="#d4e0ff"/></linearGradient><linearGradient id="linear-gradient-7" x1="3121.0611" y1="1198.5128" x2="3426.6089" y2="1771.2743" gradientUnits="userSpaceOnUse"><stop offset="0" stop-color="#6b94fc"/><stop offset="1" stop-color="#4675ff"/></linearGradient><linearGradient id="linear-gradient-8" x1="122.3373" y1="984.1527" x2="1611.7874" y2="1700.1536" gradientUnits="userSpaceOnUse"><stop offset="0" stop-color="#4675ff"/><stop offset="1" stop-color="#2b2c88"/></linearGradient><linearGradient id="linear-gradient-9" x1="483.9096" y1="1848.5182" x2="553.523" y2="1848.5182" xlink:href="#linear-gradient-4"/><linearGradient id="linear-gradient-10" x1="474.7062" y1="1848.5182" x2="628.2651" y2="1848.5182" gradientTransform="translate(1234.3325 3697.0363) rotate(-180)" gradientUnits="userSpaceOnUse"><stop offset="0" stop-color="#ff8d95"/><stop offset="1" stop-color="#fa5b60"/></linearGradient><linearGradient id="linear-gradient-11" x1="1349.6977" y1="1848.5182" x2="1419.311" y2="1848.5182" gradientTransform="translate(2751.4938 3697.0363) rotate(180)" xlink:href="#linear-gradient-4"/><linearGradient id="linear-gradient-12" x1="1104.186" y1="1848.5182" x2="1257.7448" y2="1848.5182" gradientTransform="matrix(1,0,0,1,0,0)" xlink:href="#linear-gradient-10"/><linearGradient id="linear-gradient-13" x1="1174.6731" y1="714.8723" x2="2683.5352" y2="1752.3966" xlink:href="#linear-gradient-7"/><linearGradient id="linear-gradient-14" x1="514.7937" y1="1231.2116" x2="1149.065" y2="1231.2116" xlink:href="#linear-gradient-3"/><linearGradient id="linear-gradient-15" x1="558.209" y1="1106.4393" x2="758.3094" y2="1335.8947" gradientUnits="userSpaceOnUse"><stop offset="0" stop-color="#ffcc8d"/><stop offset="1" stop-color="#f7a952"/></linearGradient><linearGradient id="linear-gradient-16" x1="631.001" y1="1399.7769" x2="947.6921" y2="1613.3246" xlink:href="#linear-gradient-3"/><linearGradient id="linear-gradient-17" x1="634.817" y1="1415.9798" x2="782.5027" y2="1687.5917" xlink:href="#linear-gradient-15"/><linearGradient id="linear-gradient-18" x1="1111.9125" y1="1191.9767" x2="1343.9848" y2="1406.6847" gradientTransform="translate(2506.0716 2645.0816) rotate(-180)" xlink:href="#linear-gradient-15"/><linearGradient id="linear-gradient-19" x1="1196.3652" y1="1042.6631" x2="1374.3876" y2="1169.4901" xlink:href="#linear-gradient-15"/><linearGradient id="linear-gradient-20" x1="967.8821" y1="1300.2362" x2="1084.607" y2="1365.8157" xlink:href="#linear-gradient-3"/><linearGradient id="linear-gradient-21" x1="1107.4474" y1="1515.4849" x2="1394.1166" y2="1774.5974" xlink:href="#linear-gradient-15"/></defs><path d="m4088.2514,2142.3274c-60.1749,147.273-168.7513,278.4534-310.8442,376.731-81.3657,56.2844-165.7001,96.4144-252.5328,123.8503-517.1244,163.2842-1122.904-124.4441-1717.7296-140.1274-182.2641-4.8117-458.977-6.2858-723.9582-46.764-282.5483-43.1397-551.7881-130.6275-679.0167-313.6899-35.2161-50.6949-59.5603-108.7401-70.2684-175.18-83.3928-517.3295,435.5747-995.9825,869.8596-1384.9778,337.8294-302.6133,712.513-274.3585,712.513-274.3585,479.1036,28.6643,593.7608,274.3585,1518.3695,706.2273,657.2523,306.9743,801.5976,766.2585,653.6078,1128.2889Z" style="fill:url(#linear-gradient); stroke-width:0px;"/><path d="m4088.2514,2142.3274c-60.1749,147.273-168.7513,278.4534-310.8442,376.731-81.3657,56.2844-165.7001,96.4144-252.5328,123.8503-517.1244,163.2842-1122.904-124.4441-1717.7296-140.1274-182.2641-4.8117-458.977-6.2858-723.9582-46.764-282.5483-43.1397-551.7881-130.6275-679.0167-313.6899h3684.0815Z" style="fill:url(#linear-gradient-2); stroke-width:0px;"/><path d="m404.1698,2142.3274h3684.0815s-2319.5082,58.8038-3684.0815,0Z" style="fill:#c9f779; stroke-width:0px;"/><path d="m3524.8744,2642.9087c-517.1244,163.2842-1122.904-124.4441-1717.7296-140.1274-182.2641-4.8117-458.977-6.2858-723.9582-46.764-124.7512-61.3006-209.4542-159.0459-127.4947-313.6899h330.7042c-22.481,56.3869-29.9337,138.3667,85.2559,180.9333,186.3181,68.8558,569.1914,11.5272,1156.8099,64.7609,367.415,33.2916,756.4512,162.6289,996.4124,254.8872Z" style="fill:url(#linear-gradient-3); stroke-width:0px;"/><path d="m3628.9679,2492.7873c-.8193-3.7926-3.3425-9.315-8.3768-6.9012-4.4139,2.1163-3.2619,8.6515-2.6157,12.5216.9602,5.7524,3.3911,11.1316,6.8791,15.7829.1066.1423.2196.2707.3357.3925,1.6122,3.5183,7.7626,3.1797,7.1887-1.1822-.9082-6.9021-1.9398-13.8058-3.4109-20.6137Z" style="fill:#7ca52d; stroke-width:0px;"/><path d="m3648.7321,2478.0867c-.5795-.4249-1.155-.6395-1.7036-.6951-1.4731-.4946-3.127-.1145-3.9938,1.7392-4.9653,10.618-7.5736,21.8533-7.6146,33.5859-.0078,2.2485,1.6081,3.4433,3.345,3.6098,1.9073.7887,4.4026.2379,5.1016-2.3289,2.0293-7.4498,4.0587-14.8995,6.0878-22.3493,1.3184-4.8404,3.5628-10.0526-1.2224-13.5615Z" style="fill:#7ca52d; stroke-width:0px;"/><path d="m3655.2857,2498.585c-3.8273,4.926-6.0286,10.293-6.7138,16.4994-.2254,2.0418,1.8951,3.7523,3.7718,3.7718.6628.0069,1.2351-.1609,1.7328-.4327,1.1453-.0009,2.2913-.5164,3.0672-1.7753,2.8876-4.684,4.3999-9.9045,4.5808-15.3961.0995-3.02-4.3863-5.309-6.4389-2.6672Z" style="fill:#7ca52d; stroke-width:0px;"/><path d="m3170.3389,2335.1336c-.8193-3.7926-3.3425-9.315-8.3768-6.9012-4.4139,2.1163-3.2619,8.6515-2.6157,12.5216.9602,5.7524,3.3911,11.1316,6.8791,15.7829.1066.1423.2196.2707.3357.3925,1.6122,3.5183,7.7626,3.1797,7.1887-1.1822-.9082-6.9021-1.9398-13.8058-3.4109-20.6137Z" style="fill:#7ca52d; stroke-width:0px;"/><path d="m3190.1031,2320.433c-.5795-.4249-1.155-.6395-1.7036-.6951-1.4731-.4946-3.127-.1145-3.9938,1.7392-4.9653,10.618-7.5736,21.8533-7.6146,33.5859-.0078,2.2485,1.6081,3.4433,3.345,3.6098,1.9073.7887,4.4026.2379,5.1016-2.3289,2.0293-7.4498,4.0587-14.8995,6.0878-22.3493,1.3184-4.8404,3.5628-10.0526-1.2224-13.5615Z" style="fill:#7ca52d; stroke-width:0px;"/><path d="m3196.6566,2340.9312c-3.8273,4.926-6.0286,10.293-6.7138,16.4994-.2254,2.0418,1.8951,3.7523,3.7718,3.7718.6628.0069,1.2351-.1609,1.7328-.4327,1.1453-.0009,2.2913-.5164,3.0672-1.7753,2.8876-4.684,4.3999-9.9045,4.5808-15.3961.0995-3.02-4.3863-5.309-6.4389-2.6672Z" style="fill:#7ca52d; stroke-width:0px;"/><path d="m3733.3879,2249.1406c-.8193-3.7926-3.3425-9.315-8.3768-6.9012-4.4139,2.1163-3.2619,8.6515-2.6157,12.5216.9602,5.7524,3.3911,11.1316,6.8791,15.7829.1066.1423.2196.2707.3357.3925,1.6122,3.5183,7.7626,3.1797,7.1887-1.1822-.9082-6.9021-1.9398-13.8058-3.4109-20.6137Z" style="fill:#7ca52d; stroke-width:0px;"/><path d="m3753.1521,2234.44c-.5795-.4249-1.155-.6395-1.7036-.6951-1.4731-.4946-3.127-.1145-3.9938,1.7392-4.9653,10.618-7.5736,21.8533-7.6146,33.5859-.0078,2.2485,1.6081,3.4433,3.345,3.6098,1.9073.7887,4.4026.2379,5.1016-2.3289,2.0293-7.4498,4.0587-14.8995,6.0878-22.3493,1.3184-4.8404,3.5628-10.0526-1.2224-13.5615Z" style="fill:#7ca52d; stroke-width:0px;"/><path d="m3759.7057,2254.9383c-3.8273,4.926-6.0286,10.293-6.7138,16.4994-.2254,2.0418,1.8951,3.7523,3.7718,3.7718.6628.0069,1.2351-.1609,1.7328-.4327,1.1453-.0009,2.2913-.5164,3.0672-1.7753,2.8876-4.684,4.3999-9.9045,4.5808-15.3961.0995-3.02-4.3863-5.309-6.4389-2.6672Z" style="fill:#7ca52d; stroke-width:0px;"/><path d="m4007.7464,2122.1987c-.8193-3.7926-3.3425-9.315-8.3768-6.9012-4.4139,2.1163-3.2619,8.6515-2.6157,12.5216.9602,5.7524,3.3911,11.1316,6.8791,15.7829.1066.1423.2196.2707.3357.3925,1.6122,3.5183,7.7626,3.1797,7.1887-1.1822-.9082-6.9021-1.9398-13.8058-3.4109-20.6137Z" style="fill:#7ca52d; stroke-width:0px;"/><path d="m4027.5106,2107.4981c-.5795-.4249-1.155-.6395-1.7036-.6951-1.4731-.4946-3.127-.1145-3.9938,1.7392-4.9653,10.618-7.5736,21.8533-7.6146,33.5859-.0078,2.2485,1.6081,3.4433,3.345,3.6098,1.9073.7887,4.4026.2379,5.1016-2.3289,2.0293-7.4498,4.0587-14.8995,6.0878-22.3493,1.3184-4.8404,3.5628-10.0526-1.2224-13.5615Z" style="fill:#7ca52d; stroke-width:0px;"/><path d="m4034.0641,2127.9963c-3.8273,4.926-6.0286,10.293-6.7138,16.4994-.2254,2.0418,1.8951,3.7523,3.7718,3.7718.6628.0069,1.2351-.1609,1.7328-.4327,1.1453-.0009,2.2913-.5164,3.0672-1.7753,2.8876-4.684,4.3999-9.9045,4.5808-15.3961.0995-3.02-4.3863-5.309-6.4389-2.6672Z" style="fill:#7ca52d; stroke-width:0px;"/><path d="m2685.0929,2173.385c-.8193-3.7926-3.3425-9.315-8.3768-6.9012-4.4139,2.1163-3.2619,8.6515-2.6157,12.5216.9602,5.7524,3.3911,11.1316,6.8791,15.7829.1066.1423.2196.2707.3357.3925,1.6122,3.5183,7.7626,3.1797,7.1887-1.1822-.9082-6.9021-1.9398-13.8058-3.4109-20.6137Z" style="fill:#7ca52d; stroke-width:0px;"/><path d="m2704.8571,2158.6843c-.5795-.4249-1.155-.6395-1.7036-.6951-1.4731-.4946-3.127-.1145-3.9938,1.7392-4.9653,10.618-7.5736,21.8533-7.6146,33.5859-.0078,2.2485,1.6081,3.4433,3.345,3.6098,1.9073.7887,4.4026.2379,5.1016-2.3289,2.0293-7.4498,4.0587-14.8995,6.0878-22.3493,1.3184-4.8404,3.5628-10.0526-1.2224-13.5615Z" style="fill:#7ca52d; stroke-width:0px;"/><path d="m2711.4107,2179.1826c-3.8273,4.926-6.0286,10.293-6.7138,16.4994-.2254,2.0418,1.8951,3.7523,3.7718,3.7718.6628.0069,1.2351-.1609,1.7328-.4327,1.1453-.0009,2.2913-.5164,3.0672-1.7753,2.8876-4.684,4.3999-9.9045,4.5808-15.3961.0995-3.02-4.3863-5.309-6.4389-2.6672Z" style="fill:#7ca52d; stroke-width:0px;"/><path d="m830.7613,2136.5308c.8193-3.7926,3.3425-9.315,8.3768-6.9012,4.4139,2.1163,3.2619,8.6515,2.6157,12.5216-.9602,5.7524-3.3911,11.1316-6.8791,15.7829-.1066.1423-.2196.2707-.3357.3925-1.6122,3.5183-7.7626,3.1797-7.1887-1.1822.9082-6.9021,1.9398-13.8058,3.4109-20.6137Z" style="fill:#7ca52d; stroke-width:0px;"/><path d="m810.9971,2121.8302c.5795-.4249,1.155-.6395,1.7036-.6951,1.4731-.4946,3.127-.1145,3.9938,1.7392,4.9653,10.618,7.5736,21.8533,7.6146,33.5859.0078,2.2485-1.6081,3.4433-3.345,3.6098-1.9073.7887-4.4026.2379-5.1016-2.3289-2.0293-7.4498-4.0587-14.8995-6.0878-22.3493-1.3184-4.8404-3.5628-10.0526,1.2224-13.5615Z" style="fill:#7ca52d; stroke-width:0px;"/><path d="m804.4436,2142.3285c3.8273,4.926,6.0286,10.293,6.7138,16.4994.2254,2.0418-1.8951,3.7523-3.7718,3.7718-.6628.0069-1.2351-.1609-1.7328-.4327-1.1453-.0009-2.2913-.5164-3.0672-1.7753-2.8876-4.684-4.3999-9.9045-4.5808-15.3961-.0995-3.02,4.3863-5.309,6.4389-2.6672Z" style="fill:#7ca52d; stroke-width:0px;"/><path d="m558.4503,2195.9069c.8193-3.7926,3.3425-9.315,8.3768-6.9012,4.4139,2.1163,3.2619,8.6515,2.6157,12.5216-.9602,5.7524-3.3911,11.1316-6.8791,15.7829-.1066.1423-.2196.2707-.3357.3925-1.6122,3.5183-7.7626,3.1797-7.1887-1.1822.9082-6.9021,1.9398-13.8058,3.4109-20.6137Z" style="fill:#7ca52d; stroke-width:0px;"/><path d="m538.6861,2181.2063c.5795-.4249,1.155-.6395,1.7036-.6951,1.4731-.4946,3.127-.1145,3.9938,1.7392,4.9653,10.618,7.5736,21.8533,7.6146,33.5859.0078,2.2485-1.6081,3.4433-3.345,3.6098-1.9073.7887-4.4026.2379-5.1016-2.3289-2.0293-7.4498-4.0587-14.8995-6.0878-22.3493-1.3184-4.8404-3.5628-10.0526,1.2224-13.5615Z" style="fill:#7ca52d; stroke-width:0px;"/><path d="m532.1325,2201.7045c3.8273,4.926,6.0286,10.293,6.7138,16.4994.2254,2.0418-1.8951,3.7523-3.7718,3.7718-.6628.0069-1.2351-.1609-1.7328-.4327-1.1453-.0009-2.2913-.5164-3.0672-1.7753-2.8876-4.684-4.3999-9.9045-4.5808-15.3961-.0995-3.02,4.3863-5.309,6.4389-2.6672Z" style="fill:#7ca52d; stroke-width:0px;"/><path d="m920.8491,2353.5607c.8193-3.7926,3.3425-9.315,8.3768-6.9012,4.4139,2.1163,3.2619,8.6515,2.6157,12.5216-.9602,5.7524-3.3911,11.1316-6.8791,15.7829-.1066.1423-.2196.2707-.3357.3925-1.6122,3.5183-7.7626,3.1797-7.1887-1.1822.9082-6.9021,1.9398-13.8058,3.4109-20.6137Z" style="fill:#7ca52d; stroke-width:0px;"/><path d="m901.0849,2338.86c.5795-.4249,1.155-.6395,1.7036-.6951,1.4731-.4946,3.127-.1145,3.9938,1.7392,4.9653,10.618,7.5736,21.8533,7.6146,33.5859.0078,2.2485-1.6081,3.4433-3.345,3.6098-1.9073.7887-4.4026.2379-5.1016-2.3289-2.0293-7.4498-4.0587-14.8995-6.0878-22.3493-1.3184-4.8404-3.5628-10.0526,1.2224-13.5615Z" style="fill:#7ca52d; stroke-width:0px;"/><path d="m894.5314,2359.3583c3.8273,4.926,6.0286,10.293,6.7138,16.4994.2254,2.0418-1.8951,3.7523-3.7718,3.7718-.6628.0069-1.2351-.1609-1.7328-.4327-1.1453-.0009-2.2913-.5164-3.0672-1.7753-2.8876-4.684-4.3999-9.9045-4.5808-15.3961-.0995-3.02,4.3863-5.309,6.4389-2.6672Z" style="fill:#7ca52d; stroke-width:0px;"/><path d="m2119.9964,2279.8524c-.8193-3.7926-3.3425-9.315-8.3768-6.9012-4.4139,2.1163-3.2619,8.6515-2.6157,12.5216.9602,5.7524,3.3911,11.1316,6.8791,15.7829.1066.1423.2196.2707.3357.3925,1.6122,3.5183,7.7626,3.1797,7.1887-1.1822-.9082-6.9021-1.9398-13.8058-3.4109-20.6137Z" style="fill:#7ca52d; stroke-width:0px;"/><path d="m2139.7606,2265.1518c-.5795-.4249-1.155-.6395-1.7036-.6951-1.4731-.4946-3.127-.1145-3.9938,1.7392-4.9653,10.618-7.5736,21.8533-7.6146,33.5859-.0078,2.2485,1.6081,3.4433,3.345,3.6098,1.9073.7887,4.4026.2379,5.1016-2.3289,2.0293-7.4498,4.0587-14.8995,6.0878-22.3493,1.3184-4.8404,3.5628-10.0526-1.2224-13.5615Z" style="fill:#7ca52d; stroke-width:0px;"/><path d="m2146.3141,2285.65c-3.8273,4.926-6.0286,10.293-6.7138,16.4994-.2254,2.0418,1.8951,3.7523,3.7718,3.7718.6628.0069,1.2351-.1609,1.7328-.4327,1.1453-.0009,2.2913-.5164,3.0672-1.7753,2.8876-4.684,4.3999-9.9045,4.5808-15.3961.0995-3.02-4.3863-5.309-6.4389-2.6672Z" style="fill:#7ca52d; stroke-width:0px;"/><path d="m3446.7448,2128.341c-.8193-3.7926-3.3425-9.315-8.3768-6.9012-4.4139,2.1163-3.2619,8.6515-2.6157,12.5216.9602,5.7524,3.3911,11.1316,6.8791,15.7829.1066.1423.2196.2707.3357.3925,1.6122,3.5183,7.7626,3.1797,7.1887-1.1822-.9082-6.9021-1.9398-13.8058-3.4109-20.6137Z" style="fill:#7ca52d; stroke-width:0px;"/><path d="m3466.509,2113.6404c-.5795-.4249-1.155-.6395-1.7036-.6951-1.4731-.4946-3.127-.1145-3.9938,1.7392-4.9653,10.618-7.5736,21.8533-7.6146,33.5859-.0078,2.2485,1.6081,3.4433,3.345,3.6098,1.9073.7887,4.4026.2379,5.1016-2.3289,2.0293-7.4498,4.0587-14.8995,6.0878-22.3493,1.3184-4.8404,3.5628-10.0526-1.2224-13.5615Z" style="fill:#7ca52d; stroke-width:0px;"/><path d="m3473.0625,2134.1387c-3.8273,4.926-6.0286,10.293-6.7138,16.4994-.2254,2.0418,1.8951,3.7523,3.7718,3.7718.6628.0069,1.2351-.1609,1.7328-.4327,1.1453-.0009,2.2913-.5164,3.0672-1.7753,2.8876-4.684,4.3999-9.9045,4.5808-15.3961.0995-3.02-4.3863-5.309-6.4389-2.6672Z" style="fill:#7ca52d; stroke-width:0px;"/><path d="m1647.0352,2124.2461c-.8193-3.7926-3.3425-9.315-8.3768-6.9012-4.4139,2.1163-3.2619,8.6515-2.6157,12.5216.9602,5.7524,3.3911,11.1316,6.8791,15.7829.1066.1423.2196.2707.3357.3925,1.6122,3.5183,7.7626,3.1797,7.1887-1.1822-.9082-6.9021-1.9398-13.8058-3.4109-20.6137Z" style="fill:#7ca52d; stroke-width:0px;"/><path d="m1666.7994,2109.5455c-.5795-.4249-1.155-.6395-1.7036-.6951-1.4731-.4946-3.127-.1145-3.9938,1.7392-4.9653,10.618-7.5736,21.8533-7.6146,33.5859-.0078,2.2485,1.6081,3.4433,3.345,3.6098,1.9073.7887,4.4026.2379,5.1016-2.3289,2.0293-7.4498,4.0587-14.8995,6.0878-22.3493,1.3184-4.8404,3.5628-10.0526-1.2224-13.5615Z" style="fill:#7ca52d; stroke-width:0px;"/><path d="m1673.3529,2130.0437c-3.8273,4.926-6.0286,10.293-6.7138,16.4994-.2254,2.0418,1.8951,3.7523,3.7718,3.7718.6628.0069,1.2351-.1609,1.7328-.4327,1.1453-.0009,2.2913-.5164,3.0672-1.7753,2.8876-4.684,4.3999-9.9045,4.5808-15.3961.0995-3.02-4.3863-5.309-6.4389-2.6672Z" style="fill:#7ca52d; stroke-width:0px;"/><path d="m3832.3978,1122.3131c-15.4126-1.8336-30.7164-2.7092-45.866-2.7289l-.0249-.0242h-86.2999l11.0572,7.3138c-160.8045,31.7104-290.085,163.7488-310.4924,335.2835-27.7874,233.5679,164.9208,483.2475,261.4043,591.9471-20.1013,33.4471-33.6099,55.9241-33.6099,55.9241h86.3234s420.5008-246.3328,457.3524-556.0896c25.3442-213.031-126.8133-406.2816-339.8442-431.6258Zm-236.8102,363.0213c12.5435-105.4343,108.1983-180.7493,213.6329-168.2057,45.7156,5.4388,85.7611,26.5099,115.4448,57.2214l30.9315,189.8303s-30.9166,51.8913-61.4941,103.204c-36.9072,24.9466-82.607,37.258-130.3094,31.5829-105.4346-12.5435-180.7492-108.1988-168.2057-213.6329Z" style="fill:url(#linear-gradient-4); stroke-width:0px;"/><path d="m3746.0742,1122.3131c-213.0311-25.3442-406.2815,126.8132-431.6258,339.8442-36.8517,309.7569,314.1176,647.8711,314.1176,647.8711,0,0,420.5007-246.3327,457.3524-556.0896,25.3442-213.031-126.8131-406.2815-339.8442-431.6258Zm-68.6044,576.6543c-105.4345-12.5435-180.7492-108.1987-168.2057-213.633,12.5435-105.4342,108.1985-180.7492,213.633-168.2057,105.4345,12.5435,180.7492,108.1987,168.2057,213.633-12.5435,105.4342-108.1985,180.7492-213.633,168.2057Z" style="fill:url(#linear-gradient-5); stroke-width:0px;"/><path d="m1546.5014,701.494h583.7666s33.326-153.155-131.9504-105.0755c0,0-76.7019-128.9881-165.857-103.0526-89.1551,25.9356-77.4858,109.6291-77.4858,109.6291,0,0-91.5571-31.6399-208.4734,98.4989Z" style="fill:#fff; stroke-width:0px;"/><path d="m1129.4724,1967.1424c0-96.5216-78.246-174.7679-174.7677-174.7679h-77.8031c-96.5219,0-174.7682,78.2463-174.7682,174.7679s78.2463,174.7682,174.7682,174.7682h77.8031c96.5216,0,174.7677-78.2465,174.7677-174.7682Z" style="fill:#2b2c89; stroke-width:0px;"/><rect x="1564.1124" y="1722.5999" width="1889.7975" height="243.6467" style="fill:#2b2c89; stroke-width:0px;"/><path d="m2394.7973,1967.1424c0-96.5216-78.246-174.7679-174.7677-174.7679h-77.8031c-96.5219,0-174.7682,78.2463-174.7682,174.7679s78.2463,174.7682,174.7682,174.7682h77.8031c96.5216,0,174.7677-78.2465,174.7677-174.7682Z" style="fill:#2b2c89; stroke-width:0px;"/><path d="m3287.486,1967.1424c0-68.5606-39.4994-127.8657-96.9645-156.4921v-18.2759h-77.8031c-96.5219,0-174.7682,78.2463-174.7682,174.7679s78.2463,174.7682,174.7682,174.7682h77.8031v-18.2761c57.4651-28.6263,96.9645-87.9312,96.9645-156.4921Z" style="fill:#2b2c89; stroke-width:0px;"/><circle cx="3190.5213" cy="1967.1425" r="174.768" style="fill:#4675ff; stroke-width:0px;"/><circle cx="3190.5213" cy="1967.1425" r="77.1822" style="fill:#fff; stroke-width:0px;"/><path d="m2022.1612,1967.1424c0-68.5606-39.4994-127.8657-96.9645-156.4921v-18.2759h-77.8031c-96.5219,0-174.7682,78.2463-174.7682,174.7679s78.2463,174.7682,174.7682,174.7682h77.8031v-18.2761c57.4651-28.6263,96.9645-87.9312,96.9645-156.4921Z" style="fill:#2b2c89; stroke-width:0px;"/><circle cx="1925.1965" cy="1967.1425" r="174.768" style="fill:#4675ff; stroke-width:0px;"/><circle cx="1925.1965" cy="1967.1425" r="77.1822" style="fill:#fff; stroke-width:0px;"/><rect x="2781.3222" y="1074.5816" width="63.471" height="892.6887" style="fill:#2b2c89; stroke-width:0px;"/><path d="m3586.9942,1499.4277v467.7196h-174.0334c0-122.8471-99.5883-222.4349-222.4354-222.4349s-222.4349,99.5878-222.4349,222.4349h-123.2975v-892.6886h510.2657c48.7499,0,92.2173,30.6913,108.4944,76.6361l123.4409,348.3329Z" style="fill:url(#linear-gradient-6); stroke-width:0px;"/><path d="m2896.8801,1115.4077h89.1871v334.8811h0c-49.2568,0-89.1871-39.9303-89.1871-89.187v-245.6941Zm141.3971,0v334.8811h1.0032l62.7547,70.5142h263.8343v-404.5969c-3.5421-.5322-7.1456-.7984-10.8106-.7984h-316.7816Zm386.6814,49.364c-6.5108-18.3861-19.8602-33.0049-36.5672-41.4199v397.4512h157.6537v-14.3322l-121.0865-341.6992Z" style="fill:url(#linear-gradient-7); stroke-width:0px;"/><rect x="3038.2773" y="1564.9462" width="122.8471" height="34.8067" rx="17.4033" ry="17.4033" style="fill:#b6c3ed; stroke-width:0px;"/><rect x="3453.9099" y="1904.8231" width="180.1757" height="102.3726" style="fill:#b6c3ed; stroke-width:0px;"/><path d="m3453.9373,1568.4357l-73.7442-32.5193v-35.9164h18.488c10.1433,0,18.3661-8.2229,18.3661-18.3663v-133.2059c0-10.1434-8.2228-18.3662-18.3661-18.3662h-67.6879c-10.1433,0-18.3661,8.2228-18.3661,18.3662v133.2059c0,10.1434,8.2228,18.3663,18.3661,18.3663h28.7253v42.5906c0,4.0569,2.3954,7.7299,6.1064,9.3675l79.8506,35.2126c1.3436.5918,2.7453.8718,4.1249.8718,3.9329,0,7.6839-2.2794,9.3735-6.1084,2.2814-5.1726-.064-11.217-5.2366-13.4984Z" style="fill:#b6c3ed; stroke-width:0px;"/><rect x="3324.9119" y="1330.0616" width="92.1353" height="169.9384" rx="19.2582" ry="19.2582" style="fill:#fff; stroke-width:0px;"/><rect x="2896.9946" y="1115.4067" width="89.0641" height="40.6215" style="fill:#2b2c89; stroke-width:0px;"/><path d="m3355.0503,1115.4067c3.665,0,7.2686.2662,10.8106.7985v39.823h-327.5922v-40.6215h316.7816Z" style="fill:#2b2c89; stroke-width:0px;"/><path d="m3421.1831,1156.0282h-32.8002v-32.6774c13.9638,7.0227,25.5726,18.3861,32.8002,32.6774Z" style="fill:#2b2c89; stroke-width:0px;"/><rect x="2896.9946" y="1115.4067" width="89.0641" height="40.6215" style="fill:#6368c9; stroke-width:0px;"/><path d="m3365.8609,1116.2052v39.823h-327.5922v-40.6215h316.7816c3.665,0,7.2686.2662,10.8106.7985Z" style="fill:#6368c9; stroke-width:0px;"/><path d="m3421.1831,1156.0282h-32.8002v-32.6774c13.9638,7.0227,25.5726,18.3861,32.8002,32.6774Z" style="fill:#6368c9; stroke-width:0px;"/><line x1="2874.4726" y1="1770.2636" x2="3007.111" y2="1770.2636" style="fill:none; stroke:#b6c3ed; stroke-linecap:round; stroke-linejoin:round; stroke-width:10.2373px;"/><line x1="2874.4726" y1="1803.0228" x2="2982.9875" y2="1803.0228" style="fill:none; stroke:#b6c3ed; stroke-linecap:round; stroke-linejoin:round; stroke-width:10.2373px;"/><line x1="2874.4726" y1="1835.782" x2="2960.4656" y2="1835.782" style="fill:none; stroke:#b6c3ed; stroke-linecap:round; stroke-linejoin:round; stroke-width:10.2373px;"/><path d="m3523.8998,1780.5008h63.0858v67.5659h-106.4675v-24.1843c0-23.943,19.4387-43.3816,43.3816-43.3816Z" style="fill:#ef6946; stroke-width:0px;"/><rect x="430.7279" y="787.8106" width="1019.6307" height="1179.3319" style="fill:url(#linear-gradient-8); stroke-width:0px;"/><rect x="470.7735" y="1827.0199" width="69.6133" height="42.9965" style="fill:url(#linear-gradient-9); stroke-width:0px;"/><rect x="540.3868" y="1827.0199" width="153.5588" height="42.9965" transform="translate(1234.3325 3697.0363) rotate(180)" style="fill:url(#linear-gradient-10); stroke-width:0px;"/><rect x="1340.9403" y="1827.0199" width="69.6133" height="42.9965" transform="translate(2751.4938 3697.0363) rotate(-180)" style="fill:url(#linear-gradient-11); stroke-width:0px;"/><rect x="1187.3814" y="1827.0199" width="153.5588" height="42.9965" style="fill:url(#linear-gradient-12); stroke-width:0px;"/><path d="m2826.2431,787.8156v1179.3318h-678.6071c0-122.8471-99.5881-222.4349-222.4351-222.4349s-222.4351,99.5878-222.4351,222.4349h-252.4098V787.8156h1375.8872Z" style="fill:url(#linear-gradient-13); stroke-width:0px;"/><path d="m1635.7646,1022.9439h1068.7695v196.5553h-872.2144c-108.4817,0-196.5551-88.0734-196.5551-196.5551v-.0002h0Z" style="fill:#769dff; stroke-width:0px;"/><path d="m1924.4553,1278.8753h780.0789v196.5553h-583.5238c-108.4817,0-196.5551-88.0734-196.5551-196.5551v-.0002h0Z" style="fill:#769dff; stroke-width:0px;"/><path d="m2247.9525,1534.8067h456.5816v196.5553h-260.0265c-108.4817,0-196.5551-88.0734-196.5551-196.5551v-.0002h0Z" style="fill:#769dff; stroke-width:0px;"/><line x1="2781.3222" y1="1889.9603" x2="2181.1278" y2="1889.9603" style="fill:none; stroke:#2b2c89; stroke-linecap:round; stroke-linejoin:round; stroke-width:10.2373px;"/><path d="m1450.3559,787.8156h1375.8872s-613.326,47.42-1375.8872,0Z" style="fill:#6b94fc; stroke-width:0px;"/><rect x="469.9708" y="833.1999" width="941.1449" height="933.6377" style="fill:#2b2c89; stroke-width:0px;"/><rect x="469.975" y="833.2076" width="941.1315" height="102.3726" style="fill:#e8ebf2; stroke-width:0px;"/><rect x="514.7937" y="1085.8426" width="634.2713" height="290.7381" style="fill:url(#linear-gradient-14); stroke-width:0px;"/><rect x="514.7937" y="1085.8426" width="304.4502" height="290.7381" style="fill:url(#linear-gradient-15); stroke-width:0px;"/><rect x="637.7447" y="1085.8426" width="58.5481" height="81.898" style="fill:#fff4e9; stroke-width:0px;"/><rect x="514.7937" y="1376.5807" width="743.5611" height="391.0632" style="fill:url(#linear-gradient-16); stroke-width:0px;"/><rect x="514.7937" y="1376.5807" width="409.8368" height="391.0632" style="fill:url(#linear-gradient-17); stroke-width:0px;"/><rect x="678.7284" y="1376.5807" width="56.5965" height="88.0404" style="fill:#ffe0a0; stroke-width:0px;"/><rect x="1094.9559" y="1181.2667" width="316.1598" height="282.5483" transform="translate(2506.0716 2645.0816) rotate(180)" style="fill:url(#linear-gradient-18); stroke-width:0px;"/><rect x="1229.0807" y="1182.0728" width="44.8869" height="71.6608" style="fill:#fff4e9; stroke-width:0px;"/><rect x="1192.5361" y="1054.3247" width="218.5796" height="126.942" style="fill:url(#linear-gradient-19); stroke-width:0px;"/><rect x="1291.5321" y="1055.1308" width="37.0805" height="63.471" style="fill:#ffe0a0; stroke-width:0px;"/><rect x="854.3728" y="1231.2116" width="240.0473" height="145.369" style="fill:url(#linear-gradient-20); stroke-width:0px;"/><rect x="854.3728" y="1231.2116" width="152.2251" height="145.369" style="fill:#ffcc8d; stroke-width:0px;"/><rect x="914.8725" y="1231.2116" width="31.2257" height="55.2812" style="fill:#fff4e9; stroke-width:0px;"/><rect x="1024.6982" y="1463.8149" width="386.4176" height="303.0228" style="fill:url(#linear-gradient-21); stroke-width:0px;"/><rect x="1192.0003" y="1464.6211" width="46.8385" height="151.5114" style="fill:#ffe0a0; stroke-width:0px;"/><path d="m551.9981,1377.4815l372.6325-.9008s-103.0338,15.5615-372.6325.9008Z" style="fill:#ffe9b8; stroke-width:0px;"/><path d="m819.2439,1152.3995v215.0432s-7.7775-93.7773,0-215.0432Z" style="fill:#ffe9b8; stroke-width:0px;"/><path d="m1024.6982,1463.8149h365.8791s-200.9616,19.0961-365.8791,0Z" style="fill:#ffe9b8; stroke-width:0px;"/><path d="m1094.9559,1181.2667l295.6214.8061s-148.4865,16.2425-295.6214-.8061Z" style="fill:#ffe9b8; stroke-width:0px;"/><path d="m924.6305,1521.184v246.4598s-12.9533-73.7644,0-246.4598Z" style="fill:#ffe9b8; stroke-width:0px;"/><rect x="469.9708" y="934.3312" width="941.1449" height="44.2378" style="fill:#fff; stroke-width:0px;"/><rect x="867.7385" y="946.6159" width="145.6095" height="19.6684" rx="9.8342" ry="9.8342" style="fill:#b6c3ed; stroke-width:0px;"/><rect x="469.975" y="867.9119" width="941.1315" height="6.1424" style="fill:#b6c3ed; stroke-width:0px;"/><rect x="469.975" y="849.4848" width="941.1315" height="6.1424" style="fill:#b6c3ed; stroke-width:0px;"/><rect x="469.975" y="908.7381" width="941.1315" height="6.1424" style="fill:#b6c3ed; stroke-width:0px;"/><rect x="469.975" y="890.311" width="941.1315" height="6.1424" style="fill:#b6c3ed; stroke-width:0px;"/><rect x="395.0178" y="1904.8231" width="1230.5182" height="102.3726" style="fill:#b6c3ed; stroke-width:0px;"/><rect x="1488.3567" y="1904.8231" width="137.1792" height="102.3726" style="fill:#fff; stroke-width:0px;"/><path d="m1407.2015,660.723c-18.3575,0-34.9767,7.4417-47.006,19.4709-12.0293,12.0293-19.4709,28.6485-19.4709,47.006,0-18.3575-7.4417-34.9767-19.4709-47.006-12.0293-12.0293-28.6485-19.4709-47.006-19.4709,18.3575,0,34.9767-7.4417,47.006-19.4709,12.0293-12.0293,19.4709-28.6485,19.4709-47.006,0,18.3575,7.4417,34.9767,19.4709,47.006,12.0293,12.0293,28.6485,19.4709,47.006,19.4709Z" style="fill:#ffbf1f; stroke-width:0px;"/><path d="m3049.2573,955.556c-18.3575,0-34.9767,7.4417-47.006,19.4709-12.0293,12.0293-19.4709,28.6485-19.4709,47.006,0-18.3575-7.4417-34.9767-19.4709-47.006-12.0293-12.0293-28.6485-19.4709-47.006-19.4709,18.3575,0,34.9767-7.4417,47.006-19.4709,12.0293-12.0293,19.4709-28.6485,19.4709-47.006,0,18.3575,7.4417,34.9767,19.4709,47.006,12.0293,12.0293,28.6485,19.4709,47.006,19.4709Z" style="fill:#ffbf1f; stroke-width:0px;"/><path d="m2381.0369,556.0584c-18.3575,0-34.9767,7.4417-47.006,19.4709-12.0293,12.0293-19.4709,28.6485-19.4709,47.006,0-18.3575-7.4417-34.9767-19.4709-47.006-12.0293-12.0293-28.6485-19.4709-47.006-19.4709,18.3575,0,34.9767-7.4417,47.006-19.4709,12.0293-12.0293,19.4709-28.6485,19.4709-47.006,0,18.3575,7.4417,34.9767,19.4709,47.006,12.0293,12.0293,28.6485,19.4709,47.006,19.4709Z" style="fill:#fff; stroke-width:0px;"/></svg>